SplineFontDB: 3.2
FontName: LibertinusMath-Regular
FullName: Libertinus Math Regular
FamilyName: Libertinus Math
Weight: Regular
UComments: "2003-08-29: Created.+AAoA-2004-07-25: v(1.0) release candidate+AAoA-2005-12-28: v(1.1.0) stable+AAoA-2006-01-01: v(2.0.0) stable+AAoA-2006-09-05: v(2.2.0) stable+AAoA-2006-12-04: v(2.3.0) stable+AAoA-2007-03-11: v(2.4.0) stable+AAoA-2007-12-00: v(2.7.0) stable+AAoA-2008-06-00: v(2.8.14) stable+AAoA"
Version: 5.3.0
ItalicAngle: 0
UnderlinePosition: -98
UnderlineWidth: 40
Ascent: 754
Descent: 246
InvalidEm: 0
LayerCount: 2
Layer: 0 0 "Back" 1
Layer: 1 0 "Fore" 0
XUID: [1021 993 1524925707 2876416]
FSType: 0
OS2Version: 0
OS2_WeightWidthSlopeOnly: 0
OS2_UseTypoMetrics: 1
CreationTime: 1156455862
ModificationTime: 1673107570
PfmFamily: 17
TTFWeight: 400
TTFWidth: 5
LineGap: 0
VLineGap: 0
OS2TypoAscent: 894
OS2TypoAOffset: 0
OS2TypoDescent: -246
OS2TypoDOffset: 0
OS2TypoLinegap: 0
OS2WinAscent: 894
OS2WinAOffset: 0
OS2WinDescent: 246
OS2WinDOffset: 0
HheadAscent: 894
HheadAOffset: 0
HheadDescent: -246
HheadDOffset: 0
OS2CapHeight: 658
OS2XHeight: 429
OS2FamilyClass: 261
OS2Vendor: 'QUE '
Lookup: 258 0 0 "'kern' Cyrillic kerning" { "'kern' Cyrillic Kerning" [150,0,6] } ['kern' ('DFLT' <'dflt' > 'cyrl' <'dflt' > ) ]
Lookup: 258 0 0 "'kern' Greek kerning" { "'kern' Greek Kerning" [150,0,6] } ['kern' ('DFLT' <'dflt' > 'grek' <'dflt' > ) ]
Lookup: 260 0 0 "'mark' Mark positioning" { "'mark' Right"  "'mark' Komb OR"  "'mark' Above"  "'mark' Middle"  "'mark' Ogonek"  "'mark' Cedilla"  "'mark' Below"  } ['mark' ('DFLT' <'dflt' > 'cyrl' <'dflt' > 'grek' <'dflt' > 'hebr' <'dflt' > 'latn' <'AZE ' 'CRT ' 'TRK ' 'dflt' > ) ]
Lookup: 262 0 0 "'mkmk' Mark to Mark" { "'mkmk' Mark to Mark-1"  } ['mkmk' ('DFLT' <'dflt' > 'cyrl' <'dflt' > 'grek' <'dflt' > 'hebr' <'dflt' > 'latn' <'AZE ' 'CRT ' 'TRK ' 'dflt' > ) ]

StartChar: exclam
Encoding: 33 33 0
Width: 288
GlyphClass: 2
Flags: MW
LayerCount: 2
Fore
SplineSet
144 658 m 0
 168 658 197 639 197 585 c 0
 197 520 183 478 173 392 c 0
 160 284 160 224 158 210 c 0
 157 199 154 190 144 190 c 0
 134 190 131 197 130 203 c 0
 128 224 122 314 114 392 c 0
 105 480 91 515 91 585 c 0
 91 639 120 658 144 658 c 0
EndSplineSet
Refer: 256 46 N 1 0 0 1 34 0 2
Colour: ff9ccc
EndChar

StartChar: quotedbl
Encoding: 34 34 1
Width: 336
GlyphClass: 2
Flags: MW
LayerCount: 2
Fore
SplineSet
215 427 m 1
 215 427 189 586 189 595 c 0
 189 617 210 645 240 645 c 0
 266 645 275 628 275 612 c 0
 275 596 242 431 242 431 c 1
 215 427 l 1
89 426 m 1
 89 426 63 585 63 594 c 0
 63 616 84 644 114 644 c 0
 140 644 149 627 149 611 c 0
 149 595 116 430 116 430 c 1
 89 426 l 1
EndSplineSet
Colour: ff00ff
EndChar

StartChar: numbersign
Encoding: 35 35 2
Width: 465
GlyphClass: 2
Flags: MW
LayerCount: 2
Fore
SplineSet
279 245 m 1
 297 360 l 1
 184 360 l 1
 165 245 l 1
 279 245 l 1
335 360 m 1
 316 245 l 1
 411 245 l 1
 404 192 l 1
 310 192 l 1
 280 14 l 1
 242 14 l 1
 269 192 l 1
 157 192 l 1
 128 14 l 1
 91 14 l 1
 119 192 l 1
 26 192 l 1
 34 245 l 1
 128 245 l 1
 146 360 l 1
 53 360 l 1
 61 413 l 1
 154 413 l 1
 183 592 l 1
 221 592 l 1
 191 413 l 1
 305 413 l 1
 333 592 l 1
 371 592 l 1
 342 413 l 1
 438 413 l 1
 430 360 l 1
 335 360 l 1
EndSplineSet
EndChar

StartChar: dollar
Encoding: 36 36 3
Width: 465
GlyphClass: 2
Flags: MW
LayerCount: 2
Fore
SplineSet
207.1 366.7 m 1
 218.7 578 l 1
 164.3 577.2 118 527.6 118 476 c 0
 118 422.3 161.9 389 207.1 366.7 c 1
238.3 267.6 m 1
 224.9 24 l 1
 297.7 24.7 339 64.7 339 139 c 0
 339 217.4 288.5 247.2 238.3 267.6 c 1
371 585 m 1
 381 536 385 510 388 465 c 1
 380 458 368 459 357 459 c 1
 340.7 511.2 317.9 561.3 255.2 574.6 c 1
 242.9 350.9 l 1
 261.2 343.6 277.7 337.9 289 333 c 0
 356 304 417 260 417 171 c 0
 417 112 383 54 330 21 c 0
 300.1 2.3 262.2 -7.7 223.1 -8.9 c 1
 218.5 -93.2 l 1
 211.2 -97.4 191.6 -98.3 181.6 -98.3 c 1
 186.5 -8.1 l 1
 125.2 -4.1 99.7 12 48 12 c 1
 37 58 33 81 29 153 c 1
 38 158 48 160 59 156 c 1
 77.1 76 121.1 35.9 188.4 26.3 c 1
 202.4 281.4 l 1
 196.7 283.6 191.2 285.8 186 288 c 0
 114 319 51 364 51 451 c 0
 51 547.3 129.6 606.8 220.4 609.9 c 1
 224.8 689.5 l 1
 234 693 249 694.5 261.8 694.5 c 1
 257.1 609.3 l 1
 319.4 605.9 323.5 591.2 371 585 c 1
EndSplineSet
EndChar

StartChar: percent
Encoding: 37 37 4
Width: 637
GlyphClass: 2
Flags: MW
LayerCount: 2
Fore
SplineSet
433 83 m 0
 433 31 458 19 477 19 c 0
 532 19 565 108 565 164 c 0
 565 216 537 225 523 225 c 0
 474 225 433 141 433 83 c 0
378 98 m 0
 378 180 438 256 512 256 c 0
 552 256 598 238 598 165 c 0
 598 98 554 -12 471 -12 c 0
 410 -12 378 45 378 98 c 0
364 521 m 0
 406 521 483 533 514 575 c 1
 546 559 l 1
 136 -12 l 1
 102 3 l 1
 461 503 l 1
 423 488 384 484 354 484 c 0
 331 484 293 494 274 505 c 1
 276 498 277 489 277 480 c 0
 277 416 233 303 149 303 c 0
 87 303 57 361 57 412 c 0
 57 500.1 118 571 190 571 c 0
 218 571 247 558 257 546 c 1
 311 521 346 521 364 521 c 0
111 398 m 0
 111 346 137 334 155 334 c 0
 210 334 244 421 244 479 c 0
 244 529 219 540 201 540 c 0
 152 540 111 456 111 398 c 0
EndSplineSet
EndChar

StartChar: parenleft
Encoding: 40 40 5
Width: 356
GlyphClass: 2
Flags: MW
IsExtendedShape: 1
GlyphVariantsVertical: parenleft parenleft.size1 parenleft.size2 parenleft.size3 parenleft.size4 parenleft.size5 parenleft.size6 parenleft.size7 parenleft.size8 parenleft.size9 parenleft.size10 parenleft.size11 parenleft.size12
GlyphCompositionVertical: 3  uni239D%0,0,250,1273 uni239C%1,1000,1000,1252 uni239B%0,250,0,1273
LayerCount: 2
Fore
SplineSet
43 274 m 0
 43 492 148 648 309 730 c 1
 325 704 l 1
 179 607 125 473 125 274 c 0
 125 73 179 -62 325 -158 c 1
 309 -186 l 1
 148 -103 43 54 43 274 c 0
EndSplineSet
EndChar

StartChar: parenright
Encoding: 41 41 6
Width: 356
GlyphClass: 2
Flags: MW
IsExtendedShape: 1
GlyphVariantsVertical: parenright parenright.size1 parenright.size2 parenright.size3 parenright.size4 parenright.size5 parenright.size6 parenright.size7 parenright.size8 parenright.size9 parenright.size10 parenright.size11 parenright.size12
GlyphCompositionVertical: 3  uni23A0%0,0,250,1273 uni239F%1,1000,1000,1252 uni239E%0,250,0,1273
LayerCount: 2
Fore
SplineSet
313 274 m 0
 313 54 208 -103 47 -186 c 1
 31 -158 l 1
 177 -62 231 73 231 274 c 0
 231 473 177 607 31 704 c 1
 47 730 l 1
 208 648 313 492 313 274 c 0
EndSplineSet
Colour: ff00ff
EndChar

StartChar: asterisk
Encoding: 42 42 7
Width: 369
GlyphClass: 2
Flags: MW
LayerCount: 2
Fore
SplineSet
168 547 m 1
 155 550 141 551 126 551 c 0
 77 551 45 558 45 588 c 0
 45 602 54 618 78 618 c 0
 112 618 130 585 174 567 c 1
 170 606 151 633 151 659 c 0
 151 680 163 698 181 698 c 0
 199 698 214 687 214 663 c 0
 214 636 197 596 195 566 c 1
 241 586 257 618 290 618 c 0
 317 618 324 598 324 588 c 0
 324 558 289 551 255 551 c 0
 236 551 218 550 200 547 c 1
 234 510 283 500 283 460 c 0
 283 442 268 431 254 431 c 0
 215 431 208 496 183 535 c 1
 158 490 151 431 113 431 c 0
 96 431 84 444 84 459 c 0
 84 502 135 510 168 547 c 1
EndSplineSet
EndChar

StartChar: plus
Encoding: 43 43 8
Width: 648
GlyphClass: 2
Flags: MW
LayerCount: 2
Fore
SplineSet
299 -5 m 9
 299 235 l 1
 59 235 l 17
 47 247 47 273 59 285 c 9
 299 285 l 1
 299 525 l 17
 311 537 337 537 349 525 c 9
 349 285 l 1
 589 285 l 17
 601 273 601 247 589 235 c 9
 349 235 l 1
 349 -5 l 17
 337 -17 311 -17 299 -5 c 9
EndSplineSet
EndChar

StartChar: slash
Encoding: 47 47 9
Width: 525
GlyphClass: 2
Flags: W
GlyphVariantsVertical: slash slash.size1 slash.size2 slash.size3 slash.size4
LayerCount: 2
Fore
SplineSet
103.93 -200 m 1
 94.93 -209 59 -209 50 -200 c 1
 421.7 720 l 1
 430.7 729 466.63 729 475.63 720 c 1
 103.93 -200 l 1
EndSplineSet
EndChar

StartChar: one
Encoding: 49 49 10
Width: 465
GlyphClass: 2
Flags: MW
LayerCount: 2
Fore
SplineSet
288 122 m 2
 288 39 305 34 375 31 c 1
 381 25 381 4 375 -2 c 1
 325 -1 300.6 0 253 0 c 0
 198.8 0 163 -1 114 -2 c 1
 108 4 108 25 114 31 c 1
 184 34 211 39 211 122 c 2
 211 448 l 2
 211 482 207.5 506 191 506 c 0
 172 506 149.5 500 104 481 c 1
 95 487.1 90.6 496.6 89 508 c 1
 177 549 229.7 573.7 285 608 c 1
 288.5 608 291 607.8 291 603 c 0
 289.3 590 288 529 288 469 c 2
 288 122 l 2
EndSplineSet
EndChar

StartChar: two
Encoding: 50 50 11
Width: 465
GlyphClass: 2
Flags: MW
LayerCount: 2
Fore
SplineSet
61 468 m 0
 61 528 130 610 241 610 c 0
 322 610 410 566 410 458 c 0
 410 382 367 338 310 283 c 2
 209 186 l 2
 204 181 135 113 135 65 c 1
 313 65 l 2
 349 65 366 90 383 161 c 1
 393 163 406 161 412 156 c 1
 411 126 401 51 388 -2 c 1
 388 -2 342 0 310 0 c 2
 135 0 l 2
 103 0 52 -2 52 -2 c 1
 52 57 68 105 166 205 c 1
 240 278 l 1
 299 338 322 390 322 454 c 0
 322 550 271 575 235 575 c 0
 162 575 136 539 136 514 c 0
 136 506 142 497 144 490 c 0
 146 483 148 477 148 469 c 0
 148 446.9 118 429 101 429 c 0
 80 429 61 447 61 468 c 0
EndSplineSet
EndChar

StartChar: three
Encoding: 51 51 12
Width: 465
GlyphClass: 2
Flags: MW
LayerCount: 2
Fore
SplineSet
215 575 m 0
 189 575 120 563 120 499 c 0
 120 480 116 447 81 447 c 0
 57 447 47 467 47 481 c 0
 47 514 89 610 236 610 c 0
 288.3 610 323.2 593.1 345 571 c 0
 369.3 546.4 376.3 521.9 376.3 491.9 c 0
 376.3 439.2 353.3 397.6 271 359 c 1
 272 357 l 1
 331 347 413 308 413 199 c 0
 413 67 307 -10 188 -10 c 0
 128 -10 44 17 44 57 c 0
 44 73 65 92 86 92 c 0
 106 92 119 80 129 66 c 0
 141 48 150 25 201 25 c 0
 236 25 325 52 325 185 c 0
 325 298 251 314 194 314 c 0
 181 314 163 314 146 312 c 1
 141 344 l 1
 240.1 358.1 298.1 434.5 298.1 484.7 c 0
 298.1 549 258.2 575 215 575 c 0
EndSplineSet
EndChar

StartChar: four
Encoding: 52 52 13
Width: 465
GlyphClass: 2
Flags: MW
LayerCount: 2
Fore
SplineSet
271 507 m 1
 202 412.8 131.3 301.2 80 219 c 1
 271 219 l 1
 271 507 l 1
430 219 m 2
 441 219 445 213 445 203 c 0
 445 191 430 172 416 172 c 2
 347 172 l 1
 347 80 l 2
 347 33 368 35 417 31 c 1
 423 25 423 4 417 -2 c 1
 385 -1 347.4 0 308 0 c 0
 262 0 222 -1 190 -2 c 1
 184 4 184 25 190 31 c 1
 233 34 271 34 271 80 c 2
 271 172 l 1
 67 172 l 2
 37 172 31 199 28 214 c 1
 119.5 357 236 521.5 299 599 c 0
 302.7 603.5 308 610 315 610 c 2
 347 610 l 1
 349 608 l 1
 347.3 600.2 347 561 347 511 c 2
 347 219 l 1
 430 219 l 2
EndSplineSet
EndChar

StartChar: five
Encoding: 53 53 14
Width: 465
GlyphClass: 2
Flags: MW
LayerCount: 2
Fore
SplineSet
319 189 m 0
 319 298 268 341 203 341 c 0
 167 341 129 337 76 317 c 1
 110 605 l 1
 145 602 181 600 218 600 c 0
 271 600 325 605 382 611 c 1
 389 607 l 1
 373 539 l 1
 332 535 298 533 268 533 c 0
 220 533 188 538 151 542 c 1
 131 375 l 1
 149 382 186 391 229 391 c 0
 341 391 408 304 408 207 c 0
 408 81 320 -11 196 -11 c 0
 139 -11 54 23 54 64 c 0
 54 84 73 101 92 101 c 0
 113 101 130 86 143 69 c 0
 158 49 171 24 209 24 c 0
 269 24 319 94 319 189 c 0
EndSplineSet
EndChar

StartChar: six
Encoding: 54 54 15
Width: 465
GlyphClass: 2
Flags: MW
LayerCount: 2
Fore
SplineSet
135.2 307 m 1
 129.3 278.2 127 251.5 127 229 c 0
 127 58 184 24 247 24 c 0
 296 24 338 74 338 184 c 0
 338 234 316 330 218 330 c 0
 200.6 330 168 328.6 135.2 307 c 1
144.3 343.3 m 1
 174.1 357 213 365 239 365 c 0
 375 365 421 288 421 202 c 0
 421 116 367 -11 236 -11 c 0
 159 -11 44 29 44 232 c 0
 44 311 75 402 137 474 c 0
 193 539 255 581 356 611 c 1
 364 606 368 597 368 585 c 1
 235 535.2 171.4 434.2 144.3 343.3 c 1
EndSplineSet
EndChar

StartChar: seven
Encoding: 55 55 16
Width: 465
GlyphClass: 2
Flags: MW
LayerCount: 2
Fore
SplineSet
170 535 m 2
 138 535 105 528 83 448 c 1
 72 446.7 61.9 447.9 51 451 c 1
 59 503 70 563 71 611 c 0
 71 614 72 614 75 614 c 0
 93 610 91 600 125 600 c 2
 331 600 l 2
 369 600 391 606 408 611 c 1
 424 599 l 1
 312 326 257 160 200 -10 c 1
 132 -13 l 1
 124 -6 l 1
 192 146 271 341 349 535 c 1
 170 535 l 2
EndSplineSet
EndChar

StartChar: nine
Encoding: 57 57 17
Width: 465
GlyphClass: 2
Flags: MW
LayerCount: 2
Fore
SplineSet
335.8 292 m 1
 341.7 320.8 344 347.5 344 370 c 0
 344 541 287 575 224 575 c 0
 175 575 133 525 133 415 c 0
 133 365 155 269 253 269 c 0
 270.4 269 303 270.4 335.8 292 c 1
326.7 255.7 m 1
 296.9 242 258 234 232 234 c 0
 96 234 50 311 50 397 c 0
 50 483 104 610 235 610 c 0
 312 610 427 570 427 367 c 0
 427 288 396 197 334 125 c 0
 278 60 216 18 115 -12 c 1
 107 -7 103 2 103 14 c 1
 236 63.8 299.6 164.8 326.7 255.7 c 1
EndSplineSet
Colour: ff00ff
EndChar

StartChar: less
Encoding: 60 60 19
Width: 648
GlyphClass: 2
Flags: MW
LayerCount: 2
Fore
SplineSet
110.36 260 m 1
 589 27 l 1
 601 15 601 -16.61 589 -28.61 c 1
 59 229.39 l 1
 53 235.39 50 250.5 50 260 c 0
 50 269.5 53 284.61 59 290.61 c 1
 589 548.61 l 1
 601 536.61 601 505 589 493 c 1
 110.36 260 l 1
EndSplineSet
EndChar

StartChar: greater
Encoding: 62 62 21
Width: 648
GlyphClass: 2
Flags: MW
LayerCount: 2
Fore
SplineSet
537.64 260 m 1
 59 493 l 1
 47 505 47 536.61 59 548.61 c 1
 589 290.61 l 1
 595 284.61 598 269.5 598 260 c 0
 598 250.5 595 235.39 589 229.39 c 1
 59 -28.61 l 1
 47 -16.61 47 15 59 27 c 1
 537.64 260 l 1
EndSplineSet
Colour: ff00ff
EndChar

StartChar: question
Encoding: 63 63 22
Width: 435
GlyphClass: 2
Flags: MW
LayerCount: 2
Fore
SplineSet
114 572 m 0
 114 557 116 551 120 546 c 0
 124 541 126 535 126 522 c 0
 126 499 106 487 87 487 c 0
 71 487 46 495 46 530 c 0
 46 568 67 596 97 620 c 1
 126 645 168 659 221 659 c 0
 323 659 389 599 389 508 c 0
 389 429 327 385 280 351 c 0
 257 334 237 318 228 301 c 0
 215 276 214 252 214 228 c 2
 214 184 l 2
 214 177 205 174 197 174 c 0
 189 174 181 177 181 184 c 2
 181 230 l 2
 181 273 186 332 251 391 c 0
 291 428 306 457 306 504 c 0
 306 569 268 626 211 626 c 0
 154 626 114 602 114 572 c 0
EndSplineSet
Refer: 256 46 N 1 0 0 1 87 0 2
Colour: ff9ccc
EndChar

StartChar: at
Encoding: 64 64 23
Width: 895
GlyphClass: 2
Flags: MW
LayerCount: 2
Fore
SplineSet
569 316 m 0
 569 354 540 379 504 379 c 0
 487 379 444 370 414 339 c 0
 363 288 346 224 346 162 c 0
 346 114 361 70 424 70 c 0
 459 70 508 127 539 200 c 0
 552 231 569 282 569 316 c 0
583 74 m 0
 583 64 592 62 594 62 c 0
 696 62 759 109 759 275 c 0
 759 481 584 580 459 580 c 0
 307 580 139 478 139 241 c 0
 139 91 215 -125 473 -125 c 0
 558 -125 620 -102 674 -59 c 1
 687 -77 l 1
 627 -123 567 -158 454 -158 c 0
 215 -158 59 10 59 223 c 0
 59 438 244 611 469 611 c 0
 684 611 839 469 839 282 c 0
 839 168 769 27 551 27 c 0
 522 27 515 52 515 68 c 0
 515 83 522 106 530 131 c 1
 528 132 l 1
 484 58 430 29 395 29 c 0
 295 29 273 113 273 153 c 0
 273 296 400 410 506 410 c 0
 539 410 573 393 583 367 c 1
 588 391 l 1
 641 404 l 1
 656 399 l 1
 596 141 l 2
 590 114 583 80.5 583 74 c 0
EndSplineSet
EndChar

StartChar: A
Encoding: 65 65 24
Width: 695
GlyphClass: 2
Flags: MW
TopAccentHorizontal: 354
AnchorPoint: "below" 308 -110 basechar 0
AnchorPoint: "cedilla" 116 5 basechar 0
AnchorPoint: "above" 354 850 basechar 0
LayerCount: 2
Fore
SplineSet
263 283 m 2
 440 283 l 1
 346 555 l 1
 340 555 l 1
 237.8 296.3 l 2
 234 286 241 283 263 283 c 2
155 79 m 2
 139.4 37.9 186.4 33.6 224 31 c 1
 230 25 230 4 224 -2 c 1
 187 -1 137 0 96 0 c 0
 65.7 0 33 -1 7 -2 c 1
 1 4 1 25 7 31 c 1
 50.5 34 81 40 107 102 c 2
 334 638 l 1
 347 638 374 649 389 658 c 1
 595 86 l 2
 612.4 37.8 646.2 34.5 685 31 c 1
 691 25 691 4 685 -2 c 1
 650 -1 612 0 571 0 c 0
 532 0 477 -1 440 -2 c 1
 434 4 434 25 440 31 c 1
 487.6 34.4 525.8 37.5 514 72 c 2
 456 241 l 1
 245 241 l 2
 221 241 215 237 210 224 c 2
 155 79 l 2
EndSplineSet
EndChar

StartChar: B
Encoding: 66 66 25
Width: 588
GlyphClass: 2
Flags: MW
TopAccentHorizontal: 267
AnchorPoint: "middle" 306 175 basechar 0
AnchorPoint: "right" 509 732 basechar 0
AnchorPoint: "below" 268 -110 basechar 0
AnchorPoint: "cedilla" 250 0 basechar 0
AnchorPoint: "above" 267 850 basechar 0
LayerCount: 2
Fore
SplineSet
191 550 m 2
 191 366 l 1
 265 366 l 2
 348 366 407 396 407 481 c 0
 407 583 334 613 278 613 c 0
 191 613 191 603 191 550 c 2
191 332 m 1
 191 118 l 2
 191 57 204 31 274 31 c 0
 426 31 454 92 454 165 c 0
 454 255 397 332 260 332 c 2
 191 332 l 1
148 645 m 0
 184 645 238 647 273 647 c 0
 459 647 488 560 488 493 c 0
 488 438.7 443.1 387.4 393 362 c 1
 393 360 l 1
 480 335 547 280 547 184 c 0
 547 98 494 -2 295 -2 c 0
 211 -2 184.7 0 149 0 c 0
 111.9 0 58 -1 19 -2 c 1
 13 4 13 25 19 31 c 1
 89 34 106 39 106 122 c 2
 106 523 l 2
 106 606 89 611 19 614 c 1
 13 620 13 641 19 647 c 1
 58 646 112.3 645 148 645 c 0
EndSplineSet
EndChar

StartChar: C
Encoding: 67 67 26
Width: 646
GlyphClass: 2
Flags: MW
TopAccentHorizontal: 340
AnchorPoint: "komb_OR" 620 606 basechar 0
AnchorPoint: "middle" 346 315 basechar 0
AnchorPoint: "right" 609 732 basechar 0
AnchorPoint: "below" 363 -110 basechar 0
AnchorPoint: "cedilla" 356 -7 basechar 0
AnchorPoint: "above" 340 850 basechar 0
LayerCount: 2
Fore
SplineSet
357 -10 m 0
 142 -10 37 136.2 37 310 c 0
 37 414.3 76.6 512.2 143 573 c 0
 202 627 273 658 358 658 c 0
 481 658 526 618 577 613 c 1
 587 558 594 510 599 458 c 1
 587.7 452 578 449 566 453 c 1
 540 539 485 621 347 621 c 0
 295 621 237 593 187.4 532 c 0
 150.9 487.1 128 415.3 128 329 c 0
 128 183 221.4 31 356 31 c 0
 449 31 517 62 588 140 c 1
 599 140 606 134 611 125 c 1
 543 36 454 -10 357 -10 c 0
EndSplineSet
EndChar

StartChar: D
Encoding: 68 68 27
Width: 701
GlyphClass: 2
Flags: MW
TopAccentHorizontal: 306
AnchorPoint: "middle" 346 315 basechar 0
AnchorPoint: "right" 619 732 basechar 0
AnchorPoint: "below" 309 -110 basechar 0
AnchorPoint: "cedilla" 309 1 basechar 0
AnchorPoint: "above" 306 850 basechar 0
LayerCount: 2
Fore
SplineSet
191 84 m 2
 191 52 202 32 300 32 c 0
 441 32 562 82 562 284 c 0
 562 438 491 613 275 613 c 0
 226 613 191 599 191 564 c 2
 191 84 l 2
148 645 m 0
 187 645 242 647 313 647 c 0
 505 647 658 494 658 308 c 0
 658 62 472 -2 331 -2 c 0
 228 -2 186 0 149 0 c 0
 111.3 0 58 -1 19 -2 c 1
 13 4 13 25 19 31 c 1
 89 34 106 39 106 122 c 2
 106 523 l 2
 106 606 89 611 19 614 c 1
 13 620 13 641 19 647 c 1
 59 646 112.3 645 148 645 c 0
EndSplineSet
EndChar

StartChar: E
Encoding: 69 69 28
Width: 557
GlyphClass: 2
Flags: MW
TopAccentHorizontal: 281
AnchorPoint: "right" 527 732 basechar 0
AnchorPoint: "cedilla" 287 4 basechar 0
AnchorPoint: "below" 287 -110 basechar 0
AnchorPoint: "above" 281 850 basechar 0
LayerCount: 2
Fore
SplineSet
281 361 m 2
 366 361 369 374 372 429 c 1
 378 435 399 435 405 429 c 1
 404 405 403 371 403 343 c 0
 403 308.7 404 281 405 255 c 1
 399 249 378 249 372 255 c 1
 369 300 366 323 281 323 c 2
 190 323 l 1
 190 102 l 2
 190 55 204 39 246 39 c 2
 362 39 l 2
 438 39 473 98 493 170 c 1
 506.1 173.2 517.6 170.9 528 165 c 1
 520 114 505 48 491 -2 c 1
 491 -2 411 0 363 0 c 2
 148 0 l 2
 115 0 55 -1 18 -2 c 1
 12 4 12 25 18 31 c 1
 88 34 105 39 105 122 c 2
 105 523 l 2
 105 606 88 611 18 614 c 1
 12 620 12 641 18 647 c 1
 58 646 116.5 645 147 645 c 2
 402 645 l 2
 426 645 434 646 451 649 c 0
 454 649 455 648 455 646 c 0
 457 638 472 542 477 501 c 1
 467.2 496.3 456.4 494.2 444 496 c 1
 422 565 406 605 331 605 c 2
 256 605 l 2
 202 605 190 585 190 541 c 2
 190 361 l 1
 281 361 l 2
EndSplineSet
EndChar

StartChar: F
Encoding: 70 70 29
Width: 485
GlyphClass: 2
Flags: MW
TopAccentHorizontal: 284
AnchorPoint: "right" 507 732 basechar 0
AnchorPoint: "cedilla" 153 -1 basechar 0
AnchorPoint: "below" 209 -110 basechar 0
AnchorPoint: "above" 284 850 basechar 0
LayerCount: 2
Fore
SplineSet
283 323 m 2
 190 323 l 1
 190 122 l 2
 190 39 207 34 277 31 c 1
 283 25 283 4 277 -2 c 1
 242 -1 193 0 148 0 c 0
 103 0 53 -1 18 -2 c 1
 12 4 12 25 18 31 c 1
 88 34 105 39 105 122 c 2
 105 523 l 2
 105 606 88 611 18 614 c 1
 12 620 12 641 18 647 c 1
 58 646 115 645 147 645 c 2
 402.3 645 l 2
 427 645 431.8 645.6 449.3 649 c 0
 451.7 649 452.9 648.3 453.3 646 c 0
 454.7 638.4 469.8 542 475 501 c 1
 467 498 456 496 444 496 c 1
 422 565 397 605 291 605 c 2
 246 605 l 2
 202 605 190 595 190 541 c 2
 190 361 l 1
 283 361 l 2
 368 361 371 374 374 429 c 1
 380 435 401 435 407 429 c 1
 406 403 405 376.5 405 343 c 0
 405 308.7 406 280 407 255 c 1
 401 249 380 249 374 255 c 1
 371 300 368 323 283 323 c 2
EndSplineSet
EndChar

StartChar: G
Encoding: 71 71 30
Width: 685
GlyphClass: 2
Flags: MW
TopAccentHorizontal: 365
AnchorPoint: "komb_OR" 600 606 basechar 0
AnchorPoint: "middle" 308 335 basechar 0
AnchorPoint: "right" 631 732 basechar 0
AnchorPoint: "cedilla" 337 2 basechar 0
AnchorPoint: "below" 367 -110 basechar 0
AnchorPoint: "above" 365 850 basechar 0
LayerCount: 2
Fore
SplineSet
377 658 m 0
 488 658 525 623 585 613 c 1
 601 541 605.5 501 608 459 c 1
 596.7 454.3 586.3 452.3 575 453 c 1
 549 539 508 622 363 622 c 0
 246.5 622 133 502 133 327 c 0
 133 195 217 26 375 26 c 0
 429 26 496 32 530 64 c 1
 530 217 l 2
 530 257.1 502.9 260.8 448 265 c 1
 442 271 442 295 448 301 c 1
 492 300 538.5 299 572 299 c 0
 612 299 637 300 661 301 c 1
 667 295 667 271 661 265 c 1
 632 262 615 252.2 615 217 c 2
 615 101 l 2
 615 90 620 82 631 73 c 1
 563 15 470 -10 352 -10 c 0
 161 -10 37 127.2 37 307 c 0
 37 527 210 658 377 658 c 0
EndSplineSet
EndChar

StartChar: grave
Encoding: 96 96 31
Width: 392
GlyphClass: 2
Flags: MW
LayerCount: 2
Fore
SplineSet
178 699 m 1
 248 573 l 2
 253 563 254 556 254 549 c 0
 254 544 247 538 239 538 c 0
 233 538 226 543 210 558 c 2
 96 667 l 1
 98 678 l 1
 106 684 129 701 163 701 c 0
 168 701 174 700 178 699 c 1
EndSplineSet
Colour: ff00ff
EndChar

StartChar: ograve
Encoding: 242 242 32
Width: 504
GlyphClass: 2
Flags: MW
AnchorPoint: "above" 255 834 basechar 0
AnchorPoint: "komb_OR" 420 396 basechar 0
LayerCount: 2
Fore
SplineSet
224 671 m 1
 294 545 l 2
 299 535 300 528 300 521 c 0
 300 516 293 510 285 510 c 0
 279 510 272 515 256 530 c 2
 142 639 l 1
 144 650 l 1
 152 656 175 673 209 673 c 0
 214 673 220 672 224 671 c 1
41 205 m 0
 41 268.2 60 326.4 96.3 369 c 0
 132.9 412 187.2 439 253 439 c 0
 406 439 463 318 463 214 c 0
 463 152.7 442.7 89.8 397.9 46 c 0
 363.8 12.7 315.4 -10 251 -10 c 0
 109 -10 41 103 41 205 c 0
238 404 m 0
 148 404 127 315 127 228 c 0
 127 151 161 25 265 25 c 0
 312 25 377 56 377 182 c 0
 377 326 324 404 238 404 c 0
EndSplineSet
Colour: ff00ff
EndChar

StartChar: oacute
Encoding: 243 243 33
Width: 504
GlyphClass: 2
Flags: MW
AnchorPoint: "above" 255 834 basechar 0
AnchorPoint: "komb_OR" 420 396 basechar 0
LayerCount: 2
Fore
SplineSet
270 671 m 1
 273 672 279 673 284 673 c 0
 290.4 673 316 672 339 650 c 1
 342 639 l 1
 227 530 l 2
 212 515 204 511 197 511 c 0
 190 511 183 517 183 524 c 0
 183 535.2 186.3 539.2 194.4 552 c 2
 270 671 l 1
41 205 m 0
 41 268.2 60 326.4 96.3 369 c 0
 132.9 412 187.2 439 253 439 c 0
 406 439 463 318 463 214 c 0
 463 152.7 442.7 89.8 397.9 46 c 0
 363.8 12.7 315.4 -10 251 -10 c 0
 109 -10 41 103 41 205 c 0
238 404 m 0
 148 404 127 315 127 228 c 0
 127 151 161 25 265 25 c 0
 312 25 377 56 377 182 c 0
 377 326 324 404 238 404 c 0
EndSplineSet
Colour: ff00ff
EndChar

StartChar: ocircumflex
Encoding: 244 244 34
Width: 504
GlyphClass: 2
Flags: MW
AnchorPoint: "above" 255 833 basechar 0
AnchorPoint: "komb_OR" 420 396 basechar 0
LayerCount: 2
Fore
SplineSet
268 660 m 1
 297 613 341 560 377 520 c 1
 372 513 363.4 504.9 354 503 c 1
 316 527 281 555 251 586 c 1
 219 554 186 525 147 503 c 1
 138 505 131 511 125 520 c 1
 161 560 207 614 236 660 c 1
 246.7 662.3 257.3 663 268 660 c 1
41 205 m 0
 41 268.2 60 326.4 96.3 369 c 0
 132.9 412 187.2 439 253 439 c 0
 406 439 463 318 463 214 c 0
 463 152.7 442.7 89.8 397.9 46 c 0
 363.8 12.7 315.4 -10 251 -10 c 0
 109 -10 41 103 41 205 c 0
238 404 m 0
 148 404 127 315 127 228 c 0
 127 151 161 25 265 25 c 0
 312 25 377 56 377 182 c 0
 377 326 324 404 238 404 c 0
EndSplineSet
Colour: ff00ff
EndChar

StartChar: otilde
Encoding: 245 245 35
Width: 504
GlyphClass: 2
Flags: MW
AnchorPoint: "above" 255 834 basechar 0
AnchorPoint: "komb_OR" 420 396 basechar 0
LayerCount: 2
Fore
SplineSet
304 573 m 0
 326 573 337 583 351 625 c 1
 362 626 372 623 378 619 c 1
 366 559 337 520 291 520 c 0
 269 520 248 538 227 552 c 0
 209 563 190 571 173 571 c 0
 147 571 137 556 127 523 c 1
 116 521 106 522 100 528 c 1
 114 587 137 626 180 626 c 0
 210 626 232 606 252 592 c 0
 268 580 285 573 304 573 c 0
41 205 m 0
 41 268.2 60 326.4 96.3 369 c 0
 132.9 412 187.2 439 253 439 c 0
 406 439 463 318 463 214 c 0
 463 152.7 442.7 89.8 397.9 46 c 0
 363.8 12.7 315.4 -10 251 -10 c 0
 109 -10 41 103 41 205 c 0
238 404 m 0
 148 404 127 315 127 228 c 0
 127 151 161 25 265 25 c 0
 312 25 377 56 377 182 c 0
 377 326 324 404 238 404 c 0
EndSplineSet
Colour: ff00ff
EndChar

StartChar: odieresis
Encoding: 246 246 36
Width: 504
GlyphClass: 2
Flags: MW
AnchorPoint: "above" 255 834 basechar 0
LayerCount: 2
Fore
SplineSet
121 575 m 0
 121 601 142 623 168 623 c 0
 194 623 215 601 215 575 c 0
 215 549 194 528 168 528 c 0
 142 528 121 549 121 575 c 0
290 575 m 0
 290 601 311 623 337 623 c 0
 363 623 384 601 384 575 c 0
 384 549 363 528 337 528 c 0
 311 528 290 549 290 575 c 0
41 205 m 0
 41 268.2 60 326.4 96.3 369 c 0
 132.9 412 187.2 439 253 439 c 0
 406 439 463 318 463 214 c 0
 463 152.7 442.7 89.8 397.9 46 c 0
 363.8 12.7 315.4 -10 251 -10 c 0
 109 -10 41 103 41 205 c 0
238 404 m 0
 148 404 127 315 127 228 c 0
 127 151 161 25 265 25 c 0
 312 25 377 56 377 182 c 0
 377 326 324 404 238 404 c 0
EndSplineSet
Colour: ff00ff
EndChar

StartChar: divide
Encoding: 247 247 37
Width: 648
GlyphClass: 2
Flags: MW
LayerCount: 2
Back
SplineSet
324 101.81 m 25
 598 260 l 25
 324 418.19 l 17
 50 260 l 9
 324 101.81 l 25
EndSplineSet
Fore
SplineSet
271 102 m 0
 271 131 295 155 324 155 c 0
 353 155 377 131 377 102 c 0
 377 73 353 49 324 49 c 0
 295 49 271 73 271 102 c 0
59 285 m 1
 589 285 l 1
 601 273 601 247 589 235 c 1
 59 235 l 1
 47 247 47 273 59 285 c 1
271 418 m 0
 271 447 295 471 324 471 c 0
 353 471 377 447 377 418 c 0
 377 389 353 365 324 365 c 0
 295 365 271 389 271 418 c 0
EndSplineSet
Colour: ff00ff
EndChar

StartChar: ugrave
Encoding: 249 249 38
Width: 531
GlyphClass: 2
Flags: MW
AnchorPoint: "above" 255 834 basechar 0
LayerCount: 2
Fore
SplineSet
219 671 m 1
 289 545 l 2
 294 535 295 528 295 521 c 0
 295 516 288 510 280 510 c 0
 274 510 267 515 251 530 c 2
 137 639 l 1
 139 650 l 1
 147 656 170 673 204 673 c 0
 209 673 215 672 219 671 c 1
217 -10 m 0
 118 -10 88 57 88 126 c 2
 88 318 l 2
 88 383 74 394 26 398 c 1
 20 404 20 425 26 431 c 1
 60 430 96 429 128 429 c 0
 143 429 158 430 163 431 c 0
 168 431 171 428 171 425 c 2
 171 425 167 352 167 322 c 2
 167 140 l 2
 167 51 217 37 247 37 c 0
 272 37 310 53 347 85 c 0
 361 97 363 105 363 124 c 2
 363 317 l 2
 363 383 350 395 301 398 c 1
 295 404 295 425 301 431 c 1
 335 430 371 429 403 429 c 0
 418 429 433 430 438 431 c 0
 443 431 446 428 446 425 c 2
 446 425 442 352 442 322 c 2
 442 130 l 2
 442 81 451 62 515 57 c 1
 521 51 521 36 515 30 c 1
 454 23 419 8 397 -10 c 1
 390.5 -12.5 386 -13 378 -10 c 1
 378 -10 369.5 23.5 367 49 c 0
 366.3 56 357 54 352 50 c 0
 303 10 256 -10 217 -10 c 0
EndSplineSet
Colour: ff00ff
EndChar

StartChar: uacute
Encoding: 250 250 39
Width: 531
GlyphClass: 2
Flags: MW
AnchorPoint: "above" 255 834 basechar 0
LayerCount: 2
Fore
SplineSet
297 671 m 1
 300 672 306 673 311 673 c 0
 317.4 673 343 672 366 650 c 1
 369 639 l 1
 254 530 l 2
 239 515 231 511 224 511 c 0
 217 511 210 517 210 524 c 0
 210 535.2 213.3 539.2 221.4 552 c 2
 297 671 l 1
217 -10 m 0
 118 -10 88 57 88 126 c 2
 88 318 l 2
 88 383 74 394 26 398 c 1
 20 404 20 425 26 431 c 1
 60 430 96 429 128 429 c 0
 143 429 158 430 163 431 c 0
 168 431 171 428 171 425 c 2
 171 425 167 352 167 322 c 2
 167 140 l 2
 167 51 217 37 247 37 c 0
 272 37 310 53 347 85 c 0
 361 97 363 105 363 124 c 2
 363 317 l 2
 363 383 350 395 301 398 c 1
 295 404 295 425 301 431 c 1
 335 430 371 429 403 429 c 0
 418 429 433 430 438 431 c 0
 443 431 446 428 446 425 c 2
 446 425 442 352 442 322 c 2
 442 130 l 2
 442 81 451 62 515 57 c 1
 521 51 521 36 515 30 c 1
 454 23 419 8 397 -10 c 1
 390.5 -12.5 386 -13 378 -10 c 1
 378 -10 369.5 23.5 367 49 c 0
 366.3 56 357 54 352 50 c 0
 303 10 256 -10 217 -10 c 0
EndSplineSet
Colour: ff00ff
EndChar

StartChar: ucircumflex
Encoding: 251 251 40
Width: 531
GlyphClass: 2
Flags: MW
AnchorPoint: "above" 247 834 basechar 0
LayerCount: 2
Fore
SplineSet
263 660 m 1
 292 613 336 560 372 520 c 1
 367 513 358.4 504.9 349 503 c 1
 311 527 276 555 246 586 c 1
 214 554 181 525 142 503 c 1
 133 505 126 511 120 520 c 1
 156 560 202 614 231 660 c 1
 241.7 662.3 252.3 663 263 660 c 1
217 -10 m 0
 118 -10 88 57 88 126 c 2
 88 318 l 2
 88 383 74 394 26 398 c 1
 20 404 20 425 26 431 c 1
 60 430 96 429 128 429 c 0
 143 429 158 430 163 431 c 0
 168 431 171 428 171 425 c 2
 171 425 167 352 167 322 c 2
 167 140 l 2
 167 51 217 37 247 37 c 0
 272 37 310 53 347 85 c 0
 361 97 363 105 363 124 c 2
 363 317 l 2
 363 383 350 395 301 398 c 1
 295 404 295 425 301 431 c 1
 335 430 371 429 403 429 c 0
 418 429 433 430 438 431 c 0
 443 431 446 428 446 425 c 2
 446 425 442 352 442 322 c 2
 442 130 l 2
 442 81 451 62 515 57 c 1
 521 51 521 36 515 30 c 1
 454 23 419 8 397 -10 c 1
 390.5 -12.5 386 -13 378 -10 c 1
 378 -10 369.5 23.5 367 49 c 0
 366.3 56 357 54 352 50 c 0
 303 10 256 -10 217 -10 c 0
EndSplineSet
Colour: ff00ff
EndChar

StartChar: ebreve
Encoding: 277 277 41
Width: 447
GlyphClass: 2
Flags: MW
AnchorPoint: "ogonek" 361 42 basechar 0
AnchorPoint: "cedilla" 242 -2 basechar 0
AnchorPoint: "below" 236 -110 basechar 0
AnchorPoint: "above" 227 795 basechar 0
LayerCount: 2
Fore
SplineSet
120 648 m 1
 131 595 174 558 228 558 c 0
 280 558 326 590 336 648 c 1
 363 636 l 1
 351 550 287 501 228 501 c 0
 158 501 107 551 93 636 c 1
 120 648 l 1
124 282 m 1
 305 285 l 2
 316 285.2 320 290 320 299 c 0
 320 383 275 404 237 404 c 0
 213 404 143 395 124 282 c 1
386 93 m 1
 398 92 404 87 407 77 c 1
 367 25 313 -10 237 -10 c 0
 165 -10 118 14 84 54 c 0
 51 92 37 146 37 202 c 0
 37 354 150 437 237 437 c 0
 376 437 406 347 406 263 c 0
 406 252 399 246 387 246 c 2
 121 248 l 1
 121 190 133 144 153 111 c 0
 184 60 226 39 262 39 c 0
 320 39 349 55 386 93 c 1
EndSplineSet
Colour: ff00ff
EndChar

StartChar: Edotaccent
Encoding: 278 278 42
Width: 557
GlyphClass: 2
Flags: MW
AnchorPoint: "above" 273 970 basechar 0
AnchorPoint: "below" 279 -110 basechar 0
AnchorPoint: "cedilla" 279 4 basechar 0
AnchorPoint: "right" 519 732 basechar 0
LayerCount: 2
Fore
SplineSet
218 753 m 0
 218 781 242 805 270 805 c 0
 298 805 322 781 322 753 c 0
 322 725 298 701 270 701 c 0
 242 701 218 725 218 753 c 0
281 361 m 2
 366 361 369 374 372 429 c 1
 378 435 399 435 405 429 c 1
 404 405 403 371 403 343 c 0
 403 308.7 404 281 405 255 c 1
 399 249 378 249 372 255 c 1
 369 300 366 323 281 323 c 2
 190 323 l 1
 190 102 l 2
 190 55 204 39 246 39 c 2
 362 39 l 2
 438 39 473 98 493 170 c 1
 506.1 173.2 517.6 171 528 165 c 1
 520 114 505 48 491 -2 c 1
 491 -2 411 0 363 0 c 2
 148 0 l 2
 115 0 55 -1 18 -2 c 1
 12 4 12 25 18 31 c 1
 88 34 105 39 105 122 c 2
 105 523 l 2
 105 606 88 611 18 614 c 1
 12 620 12 641 18 647 c 1
 58 646 116.5 645 147 645 c 2
 402 645 l 2
 426 645 434 646 451 649 c 0
 454 649 455 648 455 646 c 0
 457 638 472 542 477 501 c 1
 467.2 496.3 456.4 494.2 444 496 c 1
 422 565 406 605 331 605 c 2
 256 605 l 2
 202 605 190 585 190 541 c 2
 190 361 l 1
 281 361 l 2
EndSplineSet
Colour: ff00ff
EndChar

StartChar: edotaccent
Encoding: 279 279 43
Width: 447
GlyphClass: 2
Flags: MW
AnchorPoint: "above" 230 795 basechar 0
AnchorPoint: "ogonek" 361 42 basechar 0
AnchorPoint: "cedilla" 242 -2 basechar 0
AnchorPoint: "below" 236 -110 basechar 0
LayerCount: 2
Fore
SplineSet
180 599 m 0
 180 623 208 647 232 647 c 0
 259 647 280 619 280 595 c 0
 280 573.9 256 547 228 547 c 0
 204 547 180 573 180 599 c 0
124 282 m 1
 305 285 l 2
 316 285.2 320 290 320 299 c 0
 320 383 275 404 237 404 c 0
 213 404 143 395 124 282 c 1
386 93 m 1
 398 92 404 87 407 77 c 1
 367 25 313 -10 237 -10 c 0
 165 -10 118 14 84 54 c 0
 51 92 37 146 37 202 c 0
 37 354 150 437 237 437 c 0
 376 437 406 347 406 263 c 0
 406 252 399 246 387 246 c 2
 121 248 l 1
 121 190 133 144 153 111 c 0
 184 60 226 39 262 39 c 0
 320 39 349 55 386 93 c 1
EndSplineSet
Colour: ff00ff
EndChar

StartChar: Eogonek
Encoding: 280 280 44
Width: 557
GlyphClass: 2
Flags: MW
AnchorPoint: "above" 273 850 basechar 0
AnchorPoint: "below" 279 -110 basechar 0
AnchorPoint: "cedilla" 279 4 basechar 0
AnchorPoint: "right" 519 732 basechar 0
LayerCount: 2
Fore
SplineSet
498 -135 m 1
 469 -180 429 -200 388 -200 c 0
 338 -200 300 -180 300 -126 c 0
 300 -84.6 335.6 -27.2 395.9 -0.2 c 1
 384.2 -0.1 372.9 0 363 0 c 2
 148 0 l 2
 115 0 55 -1 18 -2 c 1
 12 4 12 25 18 31 c 1
 88 34 105 39 105 122 c 2
 105 523 l 2
 105 606 88 611 18 614 c 1
 12 620 12 641 18 647 c 1
 58 646 116.5 645 147 645 c 2
 402 645 l 2
 426 645 434 646 451 649 c 0
 454 649 455 648 455 646 c 0
 457 638 472 542 477 501 c 1
 467.2 496.3 456.4 494.2 444 496 c 1
 422 565 406 605 331 605 c 2
 256 605 l 2
 202 605 190 585 190 541 c 2
 190 361 l 1
 281 361 l 2
 366 361 369 374 372 429 c 1
 378 435 399 435 405 429 c 1
 404 405 403 371 403 343 c 0
 403 308.7 404 281 405 255 c 1
 399 249 378 249 372 255 c 1
 369 300 366 323 281 323 c 2
 190 323 l 1
 190 102 l 2
 190 55 204 39 246 39 c 2
 362 39 l 2
 438 39 473 98 493 170 c 1
 506.1 173.2 517.6 171 528 165 c 1
 520 114 505 48 491 -2 c 1
 491 -2 487.6 -1.9 481.8 -1.8 c 1
 482 -2 l 1
 411 -2 362 -69 362 -115 c 0
 362 -141 375 -162 412 -162 c 0
 441 -162 457 -146 479 -124 c 1
 488 -124 494 -128 498 -135 c 1
EndSplineSet
Colour: ff9ccc
EndChar

StartChar: eogonek
Encoding: 281 281 45
Width: 447
GlyphClass: 2
Flags: MW
AnchorPoint: "below" 70 -108 basechar 0
AnchorPoint: "above" 231 645 basechar 0
LayerCount: 2
Fore
SplineSet
373 -135 m 1
 344 -180 304 -200 263 -200 c 0
 213 -200 175 -180 175 -126 c 0
 175 -85 209.4 -46.1 259.2 -9 c 1
 252 -9.7 244.6 -10 237 -10 c 0
 165 -10 118 14 84 54 c 0
 51 92 37 146 37 202 c 0
 37 354 150 437 237 437 c 0
 376 437 406 347 406 263 c 0
 406 252 399 246 387 246 c 2
 121 248 l 1
 121 190 133 144 153 111 c 0
 184 60 226 39 262 39 c 0
 320 39 349 55 386 93 c 1
 398 92 404 87 407 77 c 1
 385.5 49 359.9 26 329.1 10.7 c 1
 266 -41.8 237 -71.6 237 -115 c 0
 237 -141 250 -162 287 -162 c 0
 316 -162 332 -146 354 -124 c 1
 363 -124 369 -128 373 -135 c 1
124 282 m 1
 305 285 l 2
 316 285.2 320 290 320 299 c 0
 320 383 275 404 237 404 c 0
 213 404 143 395 124 282 c 1
EndSplineSet
Colour: ff00ff
EndChar

StartChar: Ecaron
Encoding: 282 282 46
Width: 557
GlyphClass: 2
Flags: MW
LayerCount: 2
Fore
SplineSet
268 697 m 1
 238 734 203 764 167 792 c 1
 183 812 l 1
 222 795 256 776 289 751 c 1
 326 777 358 796 396 812 c 1
 411 792 l 1
 373 763 341 731 311 697 c 1
 268 697 l 1
281 361 m 2
 366 361 369 374 372 429 c 1
 378 435 399 435 405 429 c 1
 404 405 403 371 403 343 c 0
 403 308.7 404 281 405 255 c 1
 399 249 378 249 372 255 c 1
 369 300 366 323 281 323 c 2
 190 323 l 1
 190 102 l 2
 190 55 204 39 246 39 c 2
 362 39 l 2
 438 39 473 98 493 170 c 1
 506.1 173.2 517.6 171 528 165 c 1
 520 114 505 48 491 -2 c 1
 491 -2 411 0 363 0 c 2
 148 0 l 2
 115 0 55 -1 18 -2 c 1
 12 4 12 25 18 31 c 1
 88 34 105 39 105 122 c 2
 105 523 l 2
 105 606 88 611 18 614 c 1
 12 620 12 641 18 647 c 1
 58 646 116.5 645 147 645 c 2
 402 645 l 2
 426 645 434 646 451 649 c 0
 454 649 455 648 455 646 c 0
 457 638 472 542 477 501 c 1
 467.2 496.3 456.4 494.2 444 496 c 1
 422 565 406 605 331 605 c 2
 256 605 l 2
 202 605 190 585 190 541 c 2
 190 361 l 1
 281 361 l 2
EndSplineSet
Colour: ff00ff
EndChar

StartChar: ecaron
Encoding: 283 283 47
Width: 447
GlyphClass: 2
Flags: MW
LayerCount: 2
Fore
SplineSet
199 501 m 1
 170 548 133 593 98 631 c 1
 118 644 l 1
 157 615 190 590 224 554 c 1
 261 592 295 617 332 644 c 1
 351 631 l 1
 316 592 278 547 249 501 c 1
 199 501 l 1
124 282 m 1
 305 285 l 2
 316 285.2 320 290 320 299 c 0
 320 383 275 404 237 404 c 0
 213 404 143 395 124 282 c 1
386 93 m 1
 398 92 404 87 407 77 c 1
 367 25 313 -10 237 -10 c 0
 165 -10 118 14 84 54 c 0
 51 92 37 146 37 202 c 0
 37 354 150 437 237 437 c 0
 376 437 406 347 406 263 c 0
 406 252 399 246 387 246 c 2
 121 248 l 1
 121 190 133 144 153 111 c 0
 184 60 226 39 262 39 c 0
 320 39 349 55 386 93 c 1
EndSplineSet
Colour: ff00ff
EndChar

StartChar: Gcircumflex
Encoding: 284 284 48
Width: 685
GlyphClass: 2
Flags: MW
LayerCount: 2
Fore
SplineSet
383 808 m 1
 413 772 450 738 486 711 c 1
 483.2 701.9 479.1 693.8 470 690 c 1
 431 708 397 726 364 751 c 1
 327 724 295 707 257 690 c 1
 248 696 245 702 243 711 c 1
 280 739 313 774 344 808 c 1
 358 816.4 367.6 815.7 383 808 c 1
377 658 m 0
 488 658 525 623 585 613 c 1
 601 541 605.5 501 608 459 c 1
 596.7 454.3 586.3 452.3 575 453 c 1
 549 539 508 622 363 622 c 0
 246.5 622 133 502 133 327 c 0
 133 195 217 26 375 26 c 0
 429 26 496 32 530 64 c 1
 530 217 l 2
 530 257.1 502.9 260.8 448 265 c 1
 442 271 442 295 448 301 c 1
 492 300 538.5 299 572 299 c 0
 612 299 637 300 661 301 c 1
 667 295 667 271 661 265 c 1
 632 262 615 252.2 615 217 c 2
 615 101 l 2
 615 90 620 82 631 73 c 1
 563 15 470 -10 352 -10 c 0
 161 -10 37 127.2 37 307 c 0
 37 527 210 658 377 658 c 0
EndSplineSet
Colour: ff00ff
EndChar

StartChar: gcircumflex
Encoding: 285 285 49
Width: 500
GlyphClass: 2
Flags: MW
LayerCount: 2
Fore
SplineSet
246 659 m 1
 275 612 319 559 355 519 c 1
 350 512 341.4 503.9 332 502 c 1
 294 526 259 554 229 585 c 1
 197 553 164 524 125 502 c 1
 116 504 109 510 103 519 c 1
 139 559 185 613 214 659 c 1
 224.7 661.3 235.3 662 246 659 c 1
319 279 m 0
 319 362 285 408 222 408 c 0
 167 408 142 372 142 302 c 0
 142 238 151 167 235 167 c 0
 272 167 319 186 319 279 c 0
132 -10 m 1
 103 -45 101 -70 101 -104 c 0
 101 -172 185 -201 221 -201 c 0
 311 -201 417 -163 417 -91 c 0
 417 -65 405 -51 366 -29 c 0
 337 -13 295 -12 245 -12 c 0
 231 -12 203 -15 172 -15 c 0
 159 -15 143 -13 132 -10 c 1
444 387 m 0
 433 387 420 397 416 405 c 1
 410 414 403 417 396 417 c 0
 383 417 363 403 356 393 c 1
 385 363 399 336 399 289 c 0
 399 191 318 136 230 136 c 0
 191 136 163 143 139 157 c 1
 127 140 121 119 121 99 c 0
 121 56 156 42 185 42 c 0
 190 42 200 43 215 44 c 0
 239 47 264 49 282 49 c 0
 319 49 389 48 428 16 c 0
 457 -8 472 -33 472 -65 c 0
 472 -173 326 -238 191 -238 c 0
 114 -238 32 -211 32 -124 c 0
 32 -81 60 -35 114 -3 c 1
 88 10 68 38 68 74 c 0
 68 108 84 151 112 175 c 1
 84 202 60 233 60 287 c 0
 60 379 142 439 231 439 c 0
 290 439 323 419 335 411 c 1
 361 445 409 462 435 462 c 0
 462 462 481 446 481 425 c 0
 481 405 463 387 444 387 c 0
EndSplineSet
Colour: ff00ff
EndChar

StartChar: Gbreve
Encoding: 286 286 50
Width: 685
GlyphClass: 2
Flags: MW
LayerCount: 2
Fore
SplineSet
488 806 m 1
 482 735 418 693 352 693 c 0
 279 693 221 736 216 806 c 1
 244 806 l 1
 252 767 299 745 352 745 c 0
 401 745 453 767 460 806 c 1
 488 806 l 1
377 658 m 0
 488 658 525 623 585 613 c 1
 601 541 605.5 501 608 459 c 1
 596.7 454.3 586.3 452.3 575 453 c 1
 549 539 508 622 363 622 c 0
 246.5 622 133 502 133 327 c 0
 133 195 217 26 375 26 c 0
 429 26 496 32 530 64 c 1
 530 217 l 2
 530 257.1 502.9 260.8 448 265 c 1
 442 271 442 295 448 301 c 1
 492 300 538.5 299 572 299 c 0
 612 299 637 300 661 301 c 1
 667 295 667 271 661 265 c 1
 632 262 615 252.2 615 217 c 2
 615 101 l 2
 615 90 620 82 631 73 c 1
 563 15 470 -10 352 -10 c 0
 161 -10 37 127.2 37 307 c 0
 37 527 210 658 377 658 c 0
EndSplineSet
Colour: ff00ff
EndChar

StartChar: gbreve
Encoding: 287 287 51
Width: 500
GlyphClass: 2
Flags: MW
LayerCount: 2
Fore
SplineSet
112 644 m 1
 123 591 166 554 220 554 c 0
 272 554 318 586 328 644 c 1
 355 632 l 1
 343 546 279 497 220 497 c 0
 150 497 99 547 85 632 c 1
 112 644 l 1
319 279 m 0
 319 362 285 408 222 408 c 0
 167 408 142 372 142 302 c 0
 142 238 151 167 235 167 c 0
 272 167 319 186 319 279 c 0
132 -10 m 1
 103 -45 101 -70 101 -104 c 0
 101 -172 185 -201 221 -201 c 0
 311 -201 417 -163 417 -91 c 0
 417 -65 405 -51 366 -29 c 0
 337 -13 295 -12 245 -12 c 0
 231 -12 203 -15 172 -15 c 0
 159 -15 143 -13 132 -10 c 1
444 387 m 0
 433 387 420 397 416 405 c 1
 410 414 403 417 396 417 c 0
 383 417 363 403 356 393 c 1
 385 363 399 336 399 289 c 0
 399 191 318 136 230 136 c 0
 191 136 163 143 139 157 c 1
 127 140 121 119 121 99 c 0
 121 56 156 42 185 42 c 0
 190 42 200 43 215 44 c 0
 239 47 264 49 282 49 c 0
 319 49 389 48 428 16 c 0
 457 -8 472 -33 472 -65 c 0
 472 -173 326 -238 191 -238 c 0
 114 -238 32 -211 32 -124 c 0
 32 -81 60 -35 114 -3 c 1
 88 10 68 38 68 74 c 0
 68 108 84 151 112 175 c 1
 84 202 60 233 60 287 c 0
 60 379 142 439 231 439 c 0
 290 439 323 419 335 411 c 1
 361 445 409 462 435 462 c 0
 462 462 481 446 481 425 c 0
 481 405 463 387 444 387 c 0
EndSplineSet
Colour: ff00ff
EndChar

StartChar: Gdotaccent
Encoding: 288 288 52
Width: 685
GlyphClass: 2
Flags: MW
LayerCount: 2
Fore
SplineSet
304 753 m 0
 304 781 328 805 356 805 c 0
 384 805 408 781 408 753 c 0
 408 725 384 701 356 701 c 0
 328 701 304 725 304 753 c 0
377 658 m 0
 488 658 525 623 585 613 c 1
 601 541 605.5 501 608 459 c 1
 596.7 454.3 586.3 452.3 575 453 c 1
 549 539 508 622 363 622 c 0
 246.5 622 133 502 133 327 c 0
 133 195 217 26 375 26 c 0
 429 26 496 32 530 64 c 1
 530 217 l 2
 530 257.1 502.9 260.8 448 265 c 1
 442 271 442 295 448 301 c 1
 492 300 538.5 299 572 299 c 0
 612 299 637 300 661 301 c 1
 667 295 667 271 661 265 c 1
 632 262 615 252.2 615 217 c 2
 615 101 l 2
 615 90 620 82 631 73 c 1
 563 15 470 -10 352 -10 c 0
 161 -10 37 127.2 37 307 c 0
 37 527 210 658 377 658 c 0
EndSplineSet
Colour: ff00ff
EndChar

StartChar: gdotaccent
Encoding: 289 289 53
Width: 500
GlyphClass: 2
Flags: MW
LayerCount: 2
Fore
SplineSet
180 599 m 0
 180 623 208 647 232 647 c 0
 259 647 280 619 280 595 c 0
 280 573.9 256 547 228 547 c 0
 204 547 180 573 180 599 c 0
319 279 m 0
 319 362 285 408 222 408 c 0
 167 408 142 372 142 302 c 0
 142 238 151 167 235 167 c 0
 272 167 319 186 319 279 c 0
132 -10 m 1
 103 -45 101 -70 101 -104 c 0
 101 -172 185 -201 221 -201 c 0
 311 -201 417 -163 417 -91 c 0
 417 -65 405 -51 366 -29 c 0
 337 -13 295 -12 245 -12 c 0
 231 -12 203 -15 172 -15 c 0
 159 -15 143 -13 132 -10 c 1
444 387 m 0
 433 387 420 397 416 405 c 1
 410 414 403 417 396 417 c 0
 383 417 363 403 356 393 c 1
 385 363 399 336 399 289 c 0
 399 191 318 136 230 136 c 0
 191 136 163 143 139 157 c 1
 127 140 121 119 121 99 c 0
 121 56 156 42 185 42 c 0
 190 42 200 43 215 44 c 0
 239 47 264 49 282 49 c 0
 319 49 389 48 428 16 c 0
 457 -8 472 -33 472 -65 c 0
 472 -173 326 -238 191 -238 c 0
 114 -238 32 -211 32 -124 c 0
 32 -81 60 -35 114 -3 c 1
 88 10 68 38 68 74 c 0
 68 108 84 151 112 175 c 1
 84 202 60 233 60 287 c 0
 60 379 142 439 231 439 c 0
 290 439 323 419 335 411 c 1
 361 445 409 462 435 462 c 0
 462 462 481 446 481 425 c 0
 481 405 463 387 444 387 c 0
EndSplineSet
Colour: ff00ff
EndChar

StartChar: uni0122
Encoding: 290 290 54
Width: 685
GlyphClass: 2
Flags: MW
LayerCount: 2
Fore
SplineSet
375 -41 m 0
 413 -41 437 -75 437 -127 c 0
 437 -187 388 -217 331 -226 c 1
 325 -220 323 -211 323 -202 c 1
 372 -191 398 -167 398 -149 c 0
 398 -129 385 -125 367 -123 c 1
 350 -120 325 -111 325 -84 c 0
 325 -60 346 -41 375 -41 c 0
377 658 m 0
 488 658 525 623 585 613 c 1
 601 541 605.5 501 608 459 c 1
 596.7 454.3 586.3 452.3 575 453 c 1
 549 539 508 622 363 622 c 0
 246.5 622 133 502 133 327 c 0
 133 195 217 26 375 26 c 0
 429 26 496 32 530 64 c 1
 530 217 l 2
 530 257.1 502.9 260.8 448 265 c 1
 442 271 442 295 448 301 c 1
 492 300 538.5 299 572 299 c 0
 612 299 637 300 661 301 c 1
 667 295 667 271 661 265 c 1
 632 262 615 252.2 615 217 c 2
 615 101 l 2
 615 90 620 82 631 73 c 1
 563 15 470 -10 352 -10 c 0
 161 -10 37 127.2 37 307 c 0
 37 527 210 658 377 658 c 0
EndSplineSet
Colour: ff00ff
EndChar

StartChar: uni0123
Encoding: 291 291 55
Width: 500
GlyphClass: 2
Flags: MW
LayerCount: 2
Fore
SplineSet
228 511 m 0
 189 511 166 548 166 584 c 0
 166 608 173 630 189 650 c 0
 205.9 671.1 234 688 272 693 c 1
 276 689 277 680 277 673 c 1
 220 661 200 629 200 606 c 0
 200 586.4 204.8 593 229 593 c 0
 269 593 279 569 279 552 c 0
 279 536 263 511 228 511 c 0
319 279 m 0
 319 362 285 408 222 408 c 0
 167 408 142 372 142 302 c 0
 142 238 151 167 235 167 c 0
 272 167 319 186 319 279 c 0
132 -10 m 1
 103 -45 101 -70 101 -104 c 0
 101 -172 185 -201 221 -201 c 0
 311 -201 417 -163 417 -91 c 0
 417 -65 405 -51 366 -29 c 0
 337 -13 295 -12 245 -12 c 0
 231 -12 203 -15 172 -15 c 0
 159 -15 143 -13 132 -10 c 1
444 387 m 0
 433 387 420 397 416 405 c 1
 410 414 403 417 396 417 c 0
 383 417 363 403 356 393 c 1
 385 363 399 336 399 289 c 0
 399 191 318 136 230 136 c 0
 191 136 163 143 139 157 c 1
 127 140 121 119 121 99 c 0
 121 56 156 42 185 42 c 0
 190 42 200 43 215 44 c 0
 239 47 264 49 282 49 c 0
 319 49 389 48 428 16 c 0
 457 -8 472 -33 472 -65 c 0
 472 -173 326 -238 191 -238 c 0
 114 -238 32 -211 32 -124 c 0
 32 -81 60 -35 114 -3 c 1
 88 10 68 38 68 74 c 0
 68 108 84 151 112 175 c 1
 84 202 60 233 60 287 c 0
 60 379 142 439 231 439 c 0
 290 439 323 419 335 411 c 1
 361 445 409 462 435 462 c 0
 462 462 481 446 481 425 c 0
 481 405 463 387 444 387 c 0
EndSplineSet
Colour: ff00ff
EndChar

StartChar: Hcircumflex
Encoding: 292 292 56
Width: 730
GlyphClass: 2
Flags: MW
LayerCount: 2
Fore
SplineSet
618 122 m 2
 618 39 635 34 705 31 c 1
 711 25 711 4 705 -2 c 1
 661 -1 613.3 0 576 0 c 0
 538.9 0 491 -1 446 -2 c 1
 440 4 440 25 446 31 c 1
 516 34 533 39 533 122 c 2
 533 321 l 1
 191 321 l 1
 191 122 l 2
 191 39 208 34 278 31 c 1
 284 25 284 4 278 -2 c 1
 234 -1 185.3 0 149 0 c 0
 111.3 0 63 -1 19 -2 c 1
 13 4 13 25 19 31 c 1
 89 34 106 39 106 122 c 2
 106 523 l 2
 106 606 89 611 19 614 c 1
 13 620 13 641 19 647 c 1
 57 646 98 645 148 645 c 0
 199 645 240 646 278 647 c 1
 284 641 284 620 278 614 c 1
 208 611 191 606 191 523 c 2
 191 363 l 1
 533 363 l 1
 533 523 l 2
 533 606 516 611 446 614 c 1
 440 620 440 641 446 647 c 1
 490 646 537.7 645 575 645 c 0
 613 645 664 646 705 647 c 1
 711 641 711 620 705 614 c 1
 635 611 618 606 618 523 c 2
 618 122 l 2
386 806 m 1
 416 770 453 736 489 709 c 1
 486.2 699.9 482.1 691.8 473 688 c 1
 434 706 400 724 367 749 c 1
 330 722 298 705 260 688 c 1
 251 694 248 700 246 709 c 1
 283 737 316 772 347 806 c 1
 361 814.4 370.6 813.7 386 806 c 1
EndSplineSet
Colour: ff00ff
EndChar

StartChar: hcircumflex
Encoding: 293 293 57
Width: 538
GlyphClass: 2
Flags: MW
LayerCount: 2
Fore
SplineSet
339.3 663.9 m 1
 365.4 614.6 405 558.9 437.4 516.9 c 1
 432.9 509.6 423.1 501.1 414.7 499.1 c 1
 380.5 524.3 351 551.7 324 584.2 c 1
 295.2 550.6 267.5 522.2 232.4 499.1 c 1
 224.3 501.2 216 507.5 210.6 516.9 c 1
 243 558.9 284.4 615.6 310.5 663.9 c 1
 320.1 666.3 329.7 667.1 339.3 663.9 c 1
167 285.9 m 2
 167 122 l 2
 167 39 176 35 226.8 31 c 1
 232.8 25 232.8 4 226.8 -2 c 1
 198.8 -1 166 0 128 0 c 0
 88 0 51.2 -1 18.2 -2 c 1
 12.2 4 12.2 25 18.2 31 c 1
 76.2 35 88 39 88 122 c 2
 88 559 l 2
 88 643 76 638 24 641 c 1
 18 647 16 663 18 671 c 1
 58 674 133 688 158 698 c 1
 167 698 171 695 171 688 c 2
 171 688 167 648 167 583 c 2
 166.2 358 l 2
 166.2 344 172.6 354.2 176 358 c 0
 237 426 296.9 439 346 439 c 0
 381 439 412.2 427 429 405 c 0
 452.3 374.5 456 326 456 271 c 2
 456 122 l 2
 456 40 467 36 523 31 c 1
 528 25 528 4 523 -2 c 1
 490 -1 457 0 417 0 c 0
 377 0 343 -1 315 -2 c 1
 310 4 310 25 315 31 c 1
 367 36 377 40 377 122 c 2
 377 274 l 2
 377 304 375 331.2 365 351 c 0
 353.4 373.9 332.4 387 312 387 c 0
 272.6 387 222 365.3 184 328 c 0
 176 319.3 167 307 167 285.9 c 2
EndSplineSet
Colour: ff00ff
EndChar

StartChar: Hbar
Encoding: 294 294 58
Width: 730
GlyphClass: 2
Flags: MW
LayerCount: 2
Fore
SplineSet
618 122 m 2
 618 39 635 34 705 31 c 1
 711 25 711 4 705 -2 c 1
 661 -1 613.3 0 576 0 c 0
 538.9 0 491 -1 446 -2 c 1
 440 4 440 25 446 31 c 1
 516 34 533 39 533 122 c 2
 533 321 l 1
 191 321 l 1
 191 122 l 2
 191 39 208 34 278 31 c 1
 284 25 284 4 278 -2 c 1
 234 -1 185.3 0 149 0 c 0
 111.3 0 63 -1 19 -2 c 1
 13 4 13 25 19 31 c 1
 89 34 106 39 106 122 c 2
 106 512 l 1
 41 512 l 1
 41 546 l 1
 105.4 546 l 1
 102 607 81.9 611.3 19 614 c 1
 13 620 13 641 19 647 c 1
 57 646 98 645 148 645 c 0
 199 645 240 646 278 647 c 1
 284 641 284 620 278 614 c 1
 215.1 611.3 195 607 191.6 546 c 1
 532.4 546 l 1
 529 607 508.9 611.3 446 614 c 1
 440 620 440 641 446 647 c 1
 490 646 537.7 645 575 645 c 0
 613 645 664 646 705 647 c 1
 711 641 711 620 705 614 c 1
 642.1 611.3 622 607 618.6 546 c 1
 676 546 l 1
 676 512 l 1
 618 512 l 1
 618 122 l 2
533 512 m 1
 191 512 l 1
 191 363 l 1
 533 363 l 1
 533 512 l 1
EndSplineSet
Colour: ff9ccc
EndChar

StartChar: hbar
Encoding: 295 295 59
Width: 538
GlyphClass: 2
Flags: MW
LayerCount: 2
Fore
SplineSet
167 285.9 m 2
 167 122 l 2
 167 39 176 35 226.8 31 c 1
 232.8 25 232.8 4 226.8 -2 c 1
 198.8 -1 166 0 128 0 c 0
 88 0 51.2 -1 18.2 -2 c 1
 12.2 4 12.2 25 18.2 31 c 1
 76.2 35 88 39 88 122 c 2
 88 530 l 1
 26 530 l 1
 26 569 l 1
 87.9 569 l 1
 86.9 642.6 73.8 638.1 24 641 c 1
 18 647 16 663 18 671 c 1
 58 674 133 688 158 698 c 1
 167 698 171 695 171 688 c 2
 171 688 167 648 167 583 c 2
 167 569 l 1
 341 569 l 1
 341 530 l 1
 166.8 530 l 1
 166.2 358 l 2
 166.2 344 172.6 354.2 176 358 c 0
 237 426 296.9 439 346 439 c 0
 381 439 412.2 427 429 405 c 0
 452.3 374.5 456 326 456 271 c 2
 456 122 l 2
 456 40 467 36 523 31 c 1
 528 25 528 4 523 -2 c 1
 490 -1 457 0 417 0 c 0
 377 0 343 -1 315 -2 c 1
 310 4 310 25 315 31 c 1
 367 36 377 40 377 122 c 2
 377 274 l 2
 377 304 375 331.2 365 351 c 0
 353.4 373.9 332.4 387 312 387 c 0
 272.6 387 222 365.3 184 328 c 0
 176 319.3 167 307 167 285.9 c 2
EndSplineSet
Colour: ff9ccc
EndChar

StartChar: Itilde
Encoding: 296 296 60
Width: 297
GlyphClass: 2
Flags: MW
LayerCount: 2
Fore
SplineSet
213 744 m 0
 235 744 246 754 260 796 c 1
 271 797 281 794 287 790 c 1
 275 730 246 691 200 691 c 0
 178 691 157 709 136 723 c 0
 118 734 99 742 82 742 c 0
 56 742 46 727 36 694 c 1
 25 692 15 693 9 699 c 1
 23 758 46 797 89 797 c 0
 119 797 141 777 161 763 c 0
 177 751 194 744 213 744 c 0
191 122 m 2
 191 39 208 34 278 31 c 1
 284 25 284 4 278 -2 c 1
 233 -1 184.6 0 149 0 c 0
 112.7 0 64 -1 19 -2 c 1
 13 4 13 25 19 31 c 1
 89 34 106 39 106 122 c 2
 106 523 l 2
 106 606 89 611 19 614 c 1
 13 620 13 641 19 647 c 1
 66 646 114.5 645 148 645 c 0
 186.5 645 234 646 278 647 c 1
 284 641 284 620 278 614 c 1
 208 611 191 606 191 523 c 2
 191 122 l 2
EndSplineSet
Colour: ff00ff
EndChar

StartChar: itilde
Encoding: 297 297 61
Width: 271
GlyphClass: 2
Flags: MW
AnchorPoint: "cedilla" 142 -2 basechar 0
AnchorPoint: "below" 136 -110 basechar 0
AnchorPoint: "above" 139 795 basechar 0
LayerCount: 2
Fore
SplineSet
184.1 573 m 0
 203.9 573 213.8 583 226.4 625 c 1
 236.3 626 245.3 623 250.7 619 c 1
 239.9 559 213.8 520 172.4 520 c 0
 152.6 520 133.7 538 114.8 552 c 0
 98.6 563 81.5 571 66.2 571 c 0
 42.8 571 33.8 556 24.8 523 c 1
 14.9 521 5.9 522 0.5 528 c 1
 13.1 587 33.8 626 72.5 626 c 0
 99.5 626 119.3 606 137.3 592 c 0
 151.7 580 167 573 184.1 573 c 0
181 122 m 2
 181 39 192 35 253 31 c 1
 259 25 259 4 253 -2 c 1
 220 -1 182 0 142 0 c 0
 102 0 63 -1 30 -2 c 1
 24 4 24 25 30 31 c 1
 91 36 102 39 102 122 c 2
 102 317 l 2
 102 374 91.5 379.9 37 385 c 1
 35 391 33 407 35 413 c 1
 104 422 143.5 431 172 442 c 1
 180 442 185 439 185 435 c 2
 185 435 181 371 181 321.3 c 2
 181 122 l 2
EndSplineSet
Colour: ff00ff
EndChar

StartChar: Imacron
Encoding: 298 298 62
Width: 297
GlyphClass: 2
Flags: MW
LayerCount: 2
Fore
SplineSet
255 745 m 2
 31 745 l 2
 22 745 18 756 18 763 c 0
 18 775 29 795 40 795 c 2
 265 795 l 2
 275 795 279 784 279 778 c 0
 279 766 268 745 255 745 c 2
191 122 m 2
 191 39 208 34 278 31 c 1
 284 25 284 4 278 -2 c 1
 233 -1 184.6 0 149 0 c 0
 112.7 0 64 -1 19 -2 c 1
 13 4 13 25 19 31 c 1
 89 34 106 39 106 122 c 2
 106 523 l 2
 106 606 89 611 19 614 c 1
 13 620 13 641 19 647 c 1
 66 646 114.5 645 148 645 c 0
 186.5 645 234 646 278 647 c 1
 284 641 284 620 278 614 c 1
 208 611 191 606 191 523 c 2
 191 122 l 2
EndSplineSet
Colour: ff00ff
EndChar

StartChar: imacron
Encoding: 299 299 63
Width: 271
GlyphClass: 2
Flags: MW
LayerCount: 2
Fore
SplineSet
219.9 518 m 2
 18.3 518 l 2
 10.2 518 6.6 529 6.6 536 c 0
 6.6 548 16.5 568 26.4 568 c 2
 228.9 568 l 2
 237.9 568 241.5 557 241.5 551 c 0
 241.5 539 231.6 518 219.9 518 c 2
181 122 m 2
 181 39 192 35 253 31 c 1
 259 25 259 4 253 -2 c 1
 220 -1 182 0 142 0 c 0
 102 0 63 -1 30 -2 c 1
 24 4 24 25 30 31 c 1
 91 36 102 39 102 122 c 2
 102 317 l 2
 102 374 91.5 379.9 37 385 c 1
 35 391 33 407 35 413 c 1
 104 422 143.5 431 172 442 c 1
 180 442 185 439 185 435 c 2
 185 435 181 371 181 321.3 c 2
 181 122 l 2
EndSplineSet
Colour: ff00ff
EndChar

StartChar: Ibreve
Encoding: 300 300 64
Width: 297
GlyphClass: 2
Flags: MW
LayerCount: 2
Fore
SplineSet
285 805 m 1
 279 734 215 692 149 692 c 0
 76 692 18 735 13 805 c 1
 41 805 l 1
 49 766 96 744 149 744 c 0
 198 744 250 766 257 805 c 1
 285 805 l 1
191 122 m 2
 191 39 208 34 278 31 c 1
 284 25 284 4 278 -2 c 1
 233 -1 184.6 0 149 0 c 0
 112.7 0 64 -1 19 -2 c 1
 13 4 13 25 19 31 c 1
 89 34 106 39 106 122 c 2
 106 523 l 2
 106 606 89 611 19 614 c 1
 13 620 13 641 19 647 c 1
 66 646 114.5 645 148 645 c 0
 186.5 645 234 646 278 647 c 1
 284 641 284 620 278 614 c 1
 208 611 191 606 191 523 c 2
 191 122 l 2
EndSplineSet
Colour: ff00ff
EndChar

StartChar: ibreve
Encoding: 301 301 65
Width: 271
GlyphClass: 2
Flags: MW
LayerCount: 2
Fore
SplineSet
28.2 650 m 1
 38.1 597 76.8 560 125.4 560 c 0
 172.2 560 213.6 592 222.6 650 c 1
 246.9 638 l 1
 236.1 552 178.5 503 125.4 503 c 0
 62.4 503 16.5 553 3.9 638 c 1
 28.2 650 l 1
181 122 m 2
 181 39 192 35 253 31 c 1
 259 25 259 4 253 -2 c 1
 220 -1 182 0 142 0 c 0
 102 0 63 -1 30 -2 c 1
 24 4 24 25 30 31 c 1
 91 36 102 39 102 122 c 2
 102 317 l 2
 102 374 91.5 379.9 37 385 c 1
 35 391 33 407 35 413 c 1
 104 422 143.5 431 172 442 c 1
 180 442 185 439 185 435 c 2
 185 435 181 371 181 321.3 c 2
 181 122 l 2
EndSplineSet
Colour: ff00ff
EndChar

StartChar: Iogonek
Encoding: 302 302 66
Width: 297
GlyphClass: 2
Flags: MW
AnchorPoint: "above" 146 850 basechar 0
LayerCount: 2
Fore
SplineSet
271 -135 m 1
 242 -180 202 -200 161 -200 c 0
 111 -200 73 -180 73 -126 c 0
 73 -84.5 108.8 -27 169.2 -0.1 c 1
 162.1 0 155.3 0 149 0 c 0
 112.7 0 64 -1 19 -2 c 1
 13 4 13 25 19 31 c 1
 89 34 106 39 106 122 c 2
 106 523 l 2
 106 606 89 611 19 614 c 1
 13 620 13 641 19 647 c 1
 66 646 114.5 645 148 645 c 0
 186.5 645 234 646 278 647 c 1
 284 641 284 620 278 614 c 1
 208 611 191 606 191 523 c 2
 191 122 l 2
 191 39 208 34 278 31 c 1
 284 25 284 4 278 -2 c 1
 270.3 -1.8 262.5 -1.7 254.6 -1.5 c 1
 255 -2 l 1
 184 -2 135 -69 135 -115 c 0
 135 -141 148 -162 185 -162 c 0
 214 -162 230 -146 252 -124 c 1
 261 -124 267 -128 271 -135 c 1
EndSplineSet
Colour: ff9ccc
EndChar

StartChar: iogonek
Encoding: 303 303 67
Width: 271
GlyphClass: 2
Flags: MW
AnchorPoint: "above" 132 825 basechar 0
LayerCount: 2
Fore
SplineSet
259 -135 m 1
 230 -180 190 -200 149 -200 c 0
 99 -200 61 -180 61 -126 c 0
 61 -84.5 96.8 -26.9 157.3 -0 c 1
 152.3 0 147.1 0 142 0 c 0
 102 0 63 -1 30 -2 c 1
 24 4 24 25 30 31 c 1
 91 36 102 39 102 122 c 2
 102 317 l 2
 102 374 91.5 379.9 37 385 c 1
 35 391 33 407 35 413 c 1
 104 422 143.5 431 172 442 c 1
 180 442 185 439 185 435 c 2
 185 435 181 371 181 321.3 c 2
 181 122 l 2
 181 39 192 35 253 31 c 1
 259 25 259 4 253 -2 c 1
 249.6 -1.9 246.2 -1.8 242.7 -1.7 c 1
 243 -2 l 1
 172 -2 123 -69 123 -115 c 0
 123 -141 136 -162 173 -162 c 0
 202 -162 218 -146 240 -124 c 1
 249 -124 255 -128 259 -135 c 1
90 599 m 0
 90 623 118 647 142 647 c 0
 169 647 190 619 190 595 c 0
 190 573.9 166 547 138 547 c 0
 114 547 90 573 90 599 c 0
EndSplineSet
Colour: ff9ccc
EndChar

StartChar: Idotaccent
Encoding: 304 304 68
Width: 297
GlyphClass: 2
Flags: MW
LayerCount: 2
Fore
SplineSet
97 753 m 0
 97 781 121 805 149 805 c 0
 177 805 201 781 201 753 c 0
 201 725 177 701 149 701 c 0
 121 701 97 725 97 753 c 0
191 122 m 2
 191 39 208 34 278 31 c 1
 284 25 284 4 278 -2 c 1
 233 -1 184.6 0 149 0 c 0
 112.7 0 64 -1 19 -2 c 1
 13 4 13 25 19 31 c 1
 89 34 106 39 106 122 c 2
 106 523 l 2
 106 606 89 611 19 614 c 1
 13 620 13 641 19 647 c 1
 66 646 114.5 645 148 645 c 0
 186.5 645 234 646 278 647 c 1
 284 641 284 620 278 614 c 1
 208 611 191 606 191 523 c 2
 191 122 l 2
EndSplineSet
Colour: ff00ff
EndChar

StartChar: uni0408
Encoding: 1032 1032 69
Width: 384
GlyphClass: 2
Flags: MW
LayerCount: 2
Fore
SplineSet
295 523 m 2
 295 225 l 2
 295 125 263.1 58.7 215 24 c 0
 182.6 0.700001 149.7 -7.3 122.6 -7.3 c 0
 96.9 -7.3 10 4.5 10 54 c 0
 10 76 34 90 48 90 c 0
 79 90 94.3 76.2 100 63 c 0
 104.9 51.6 114 33 128 33 c 0
 161 33 210 42 210 203 c 2
 210 523 l 2
 210 606 193 611 113 614 c 1
 107 620 107 641 113 647 c 1
 163 646 214 645 252 645 c 0
 290 645 334 646 372 647 c 1
 378 641 378 620 372 614 c 1
 312 611 295 606 295 523 c 2
EndSplineSet
EndChar

StartChar: uni040C
Encoding: 1036 1036 70
Width: 606
GlyphClass: 2
Flags: MW
LayerCount: 2
Fore
SplineSet
427 820 m 1
 455.6 806.7 476.3 789.3 489 768 c 1
 345 710 l 2
 324 701 312 698 303 698 c 0
 294 698 288 705 288 713 c 0
 288 720 290 725 303 734 c 2
 427 820 l 1
191 122 m 2
 191 39 208 34 278 31 c 1
 284 25 284 4 278 -2 c 1
 233 -1 184.6 0 149 0 c 0
 112.7 0 64 -1 19 -2 c 1
 13 4 13 25 19 31 c 1
 89 34 106 39 106 122 c 2
 106 523 l 2
 106 606 89 611 19 614 c 1
 13 620 13 641 19 647 c 1
 66 646 114.5 645 148 645 c 0
 186.5 645 234 646 278 647 c 1
 284 641 284 620 278 614 c 1
 208 611 191 606 191 523 c 2
 191 366 l 1
 227 366 270 367 294 381 c 0
 353 413 367 477 376 533 c 0
 386 595 416 651 495 651 c 0
 548 651 566 622 566 599 c 0
 566 570 543 559 522 559 c 0
 509 559 495 564 485 574 c 0
 474 585 466 590 453 590 c 0
 423 590 417.2 557.1 413 528 c 0
 404 466 381 380 305 352 c 1
 305 347 l 1
 374 347 412 304 439 234 c 0
 497.6 81.9 533.2 33.9 599 31 c 1
 604.8 21.2 604.5 8.2 599 -2 c 1
 520 -1 l 2
 442 0 405 81 362 191 c 0
 323 291 305 324 191 324 c 1
 191 122 l 2
EndSplineSet
Colour: ff00ff
EndChar

StartChar: uni040D
Encoding: 1037 1037 71
Width: 710
GlyphClass: 2
Flags: MW
LayerCount: 2
Fore
SplineSet
299 818 m 1
 420 734 l 2
 431 726 435 720 435 713 c 0
 435 705 428 698 420 698 c 0
 412 698 398 701 377 710 c 2
 223 773 l 1
 241.3 790.7 264.8 806.4 299 818 c 1
598 122 m 2
 598 39 615 34 685 31 c 1
 691 25 691 4 685 -2 c 1
 640 -1 591.6 0 556 0 c 0
 519.7 0 471 -1 426 -2 c 1
 420 4 420 25 426 31 c 1
 496 34 513 39 513 122 c 2
 513 478 l 1
 505.5 475.5 500.4 471 495.5 465 c 2
 222.4 125 l 2
 210.7 110.1 200.7 102 193.8 78.3 c 1
 200.9 37 223.2 33.3 278 31 c 1
 284 25 284 4 278 -2 c 1
 233 -1 184.6 0 149 0 c 0
 112.7 0 64 -1 19 -2 c 1
 13 4 13 25 19 31 c 1
 89 34 106 39 106 122 c 2
 106 523 l 2
 106 606 89 611 19 614 c 1
 13 620 13 641 19 647 c 1
 66 646 114.5 645 148 645 c 0
 186.5 645 234 646 278 647 c 1
 284 641 284 620 278 614 c 1
 208 611 191 606 191 523 c 2
 191 167 l 1
 195.6 167.3 201.4 170.7 208.7 178 c 1
 483.5 520 l 2
 494.8 534.2 504.1 552.3 509.9 568.5 c 1
 502.5 608.1 480 611.7 426 614 c 1
 420 620 420 641 426 647 c 1
 473 646 521.5 645 555 645 c 0
 593.5 645 641 646 685 647 c 1
 691 641 691 620 685 614 c 1
 615 611 598 606 598 523 c 2
 598 122 l 2
EndSplineSet
Colour: ff00ff
EndChar

StartChar: uni040E
Encoding: 1038 1038 72
Width: 590
GlyphClass: 2
Flags: MW
LayerCount: 2
Fore
SplineSet
312 728 m 0
 345 728 368 745 368 762 c 0
 368 767 367 773 367 775 c 0
 367 790 377 805 400 805 c 0
 427 805 437 791 437 772 c 0
 437 720 378 697 312 697 c 0
 246 697 187 720 187 772 c 0
 187 791 197 805 224 805 c 0
 247 805 257 790 257 775 c 0
 257 773 256 767 256 762 c 0
 256 745 279 728 312 728 c 0
104.5 523 m 2
 72 594 62 609 5 614 c 1
 -1 620 -2 641 4 647 c 1
 38 646 76 645 108 645 c 0
 143.2 645 192 646 229 647 c 1
 235 641 235 620 229 614 c 1
 161 607 162 591 188.4 534 c 2
 327 229 l 1
 329 229 l 1
 438 528 l 2
 458 584 461 609 387 614 c 1
 381 620 381 641 387 647 c 1
 424 646 473 645 496 645 c 0
 519 645 554 646 584 647 c 1
 590 641 590 620 584 614 c 1
 518 606 502 569 483.7 521 c 2
 342 161 l 2
 299 52 244 -22 154 -22 c 0
 112 -22 64 1 64 33 c 0
 64 61 83 81 113 81 c 0
 127 81 149 74 159 62 c 0
 166 53 181 40 195 40 c 0
 227 40 252 61 283 136 c 1
 104.5 523 l 2
EndSplineSet
Colour: ff00ff
EndChar

StartChar: uni0413
Encoding: 1043 1043 73
Width: 497
GlyphClass: 2
Flags: MW
LayerCount: 2
Fore
SplineSet
147 645 m 1
 352 645 l 1
 352 645 433 646 472 647 c 1
 477.5 613.2 482.9 574.3 487 490 c 1
 477.3 485.7 467.7 484.8 458 486 c 1
 437 555 421 605 346 605 c 2
 226 605 l 2
 202 605 190 595 190 571 c 2
 190 122 l 2
 190 39 207 34 277 31 c 1
 283 25 283 4 277 -2 c 1
 237 -1 185.8 0 148 0 c 0
 110.2 0 57 -1 18 -2 c 1
 12 4 12 25 18 31 c 1
 88 34 105 39 105 122 c 2
 105 523 l 2
 105 606 88 611 18 614 c 1
 12 620 12 641 18 647 c 1
 68 646 147 645 147 645 c 1
EndSplineSet
Colour: ff00ff
EndChar

StartChar: uni0414
Encoding: 1044 1044 74
Width: 659
GlyphClass: 2
Flags: MW
LayerCount: 2
Fore
SplineSet
112 47 m 0
 137.5 73.7 156 145 188 301 c 1
 210 415 222 508 222 571 c 0
 222 600 208.8 608.8 149 614 c 1
 144.5 622.7 143.5 638 149 647 c 1
 149 647 221 645 251 645 c 2
 512 645 l 2
 542 645 623 647 623 647 c 1
 628.7 637 629 625 623 614 c 1
 556.3 609 549 607.8 549 555 c 2
 549 78 l 2
 549 41 571.5 30 589 27 c 0
 610.7 23.3 617.8 19.9 619 8 c 0
 624 -40.6 625.5 -90.1 626 -140 c 1
 618.3 -145.3 607 -146.7 599 -142 c 1
 587 -86 551 0 471 0 c 2
 181 0 l 2
 98 0 72 -89 61 -141 c 1
 51.2 -143.5 41 -142.7 34 -139 c 1
 34.6 -88.7 37 -38.3 41 12 c 0
 42 24 52 30.5 62 31 c 0
 81.5 32 101.5 36 112 47 c 0
427 605 m 2
 304 605 l 2
 277 605 267 591 265 566 c 0
 257 465 241 361 229 293 c 0
 207 176 182 77 182 56 c 0
 182 44 195 39 209 39 c 2
 428 39 l 2
 452 39 464 42 464 79 c 2
 464 566 l 2
 464 597 458 605 427 605 c 2
EndSplineSet
EndChar

StartChar: uni0416
Encoding: 1046 1046 75
Width: 889
GlyphClass: 2
Flags: MW
LayerCount: 2
Fore
SplineSet
487 122 m 2
 487 39 504 34 574 31 c 1
 580 25 580 4 574 -2 c 1
 529 -1 480.6 0 445 0 c 0
 408.7 0 360 -1 315 -2 c 1
 309 4 309 25 315 31 c 1
 385 34 402 39 402 122 c 2
 402 323.8 l 1
 299.6 321.3 281.5 287.1 244 191 c 0
 201 81 164 0 86 -1 c 2
 7 -2 l 1
 1.5 8.2 1.2 21.2 7 31 c 1
 72.8 33.9 108.4 81.9 167 234 c 0
 194 304 232 347 301 347 c 1
 301 352 l 1
 225 380 202 466 193 528 c 0
 188.8 557.1 183 590 153 590 c 0
 140 590 132 585 121 574 c 0
 111 564 97 559 84 559 c 0
 63 559 40 570 40 599 c 0
 40 622 58 651 111 651 c 0
 190 651 220 595 230 533 c 0
 239 477 253 413 312 381 c 0
 333.2 368.7 369.1 366.5 402 366.1 c 1
 402 523 l 2
 402 606 385 611 315 614 c 1
 309 620 309 641 315 647 c 1
 362 646 410.5 645 444 645 c 0
 482.5 645 530 646 574 647 c 1
 580 641 580 620 574 614 c 1
 504 611 487 606 487 523 c 2
 487 366.1 l 1
 519.9 366.5 555.8 368.7 577 381 c 0
 636 413 650 477 659 533 c 0
 669 595 699 651 778 651 c 0
 831 651 849 622 849 599 c 0
 849 570 826 559 805 559 c 0
 792 559 778 564 768 574 c 0
 757 585 749 590 736 590 c 0
 706 590 700.2 557.1 696 528 c 0
 687 466 664 380 588 352 c 1
 588 347 l 1
 657 347 695 304 722 234 c 0
 780.6 81.9 816.2 33.9 882 31 c 1
 887.8 21.2 887.5 8.2 882 -2 c 1
 803 -1 l 2
 725 0 688 81 645 191 c 0
 607.5 287.1 589.4 321.3 487 323.8 c 1
 487 122 l 2
EndSplineSet
Colour: ff9ccc
EndChar

StartChar: uni0417
Encoding: 1047 1047 76
Width: 558
GlyphClass: 2
Flags: MW
LayerCount: 2
Fore
SplineSet
44 115 m 0
 44 139 57 155 77 155 c 0
 105 155 120 129 133 103 c 0
 158 56 199 26 277 26 c 0
 376 26 425 90 425 181 c 0
 425 254 380.5 328 267 328 c 0
 234 328 225 322 198 322 c 0
 186 322 169 327 169 347 c 0
 169 367 186 371 198 371 c 0
 225 371 241 365 268 365 c 0
 357.5 365 401 434 401 503 c 0
 401 573 372 624 286 624 c 0
 172 624 125 551 99 463 c 1
 87.3 460.7 77 461.7 68 466 c 1
 73.6 518.9 80.6 571.8 92 626 c 1
 164 636.5 219 658 294 658 c 0
 433 658 489 592 489 510 c 0
 489 426 428 377 358 357 c 1
 358 352 l 1
 456.5 344.2 518 270 518 185 c 0
 518 54 405 -10 278 -10 c 0
 178 -10 120 12 90 39 c 0
 63 63 44 82 44 115 c 0
EndSplineSet
EndChar

StartChar: uni0418
Encoding: 1048 1048 77
Width: 710
GlyphClass: 2
Flags: MW
LayerCount: 2
Fore
SplineSet
598 122 m 2
 598 39 615 34 685 31 c 1
 691 25 691 4 685 -2 c 1
 640 -1 591.6 0 556 0 c 0
 519.7 0 471 -1 426 -2 c 1
 420 4 420 25 426 31 c 1
 496 34 513 39 513 122 c 2
 513 478 l 1
 505.5 475.5 500.4 471 495.5 465 c 2
 222.4 125 l 2
 210.7 110.1 200.7 102 193.8 78.3 c 1
 200.9 37 223.2 33.3 278 31 c 1
 284 25 284 4 278 -2 c 1
 233 -1 184.6 0 149 0 c 0
 112.7 0 64 -1 19 -2 c 1
 13 4 13 25 19 31 c 1
 89 34 106 39 106 122 c 2
 106 523 l 2
 106 606 89 611 19 614 c 1
 13 620 13 641 19 647 c 1
 66 646 114.5 645 148 645 c 0
 186.5 645 234 646 278 647 c 1
 284 641 284 620 278 614 c 1
 208 611 191 606 191 523 c 2
 191 167 l 1
 195.6 167.3 201.4 170.7 208.7 178 c 1
 483.5 520 l 2
 494.8 534.2 504.1 552.3 509.9 568.5 c 1
 502.5 608.1 480 611.7 426 614 c 1
 420 620 420 641 426 647 c 1
 473 646 521.5 645 555 645 c 0
 593.5 645 641 646 685 647 c 1
 691 641 691 620 685 614 c 1
 615 611 598 606 598 523 c 2
 598 122 l 2
EndSplineSet
EndChar

StartChar: uni0419
Encoding: 1049 1049 78
Width: 710
GlyphClass: 2
Flags: MW
LayerCount: 2
Fore
SplineSet
351 728 m 0
 384 728 407 745 407 762 c 0
 407 767 406 773 406 775 c 0
 406 790 416 805 439 805 c 0
 466 805 476 791 476 772 c 0
 476 720 417 697 351 697 c 0
 285 697 226 720 226 772 c 0
 226 791 236 805 263 805 c 0
 286 805 296 790 296 775 c 0
 296 773 295 767 295 762 c 0
 295 745 318 728 351 728 c 0
598 122 m 2
 598 39 615 34 685 31 c 1
 691 25 691 4 685 -2 c 1
 640 -1 591.6 0 556 0 c 0
 519.7 0 471 -1 426 -2 c 1
 420 4 420 25 426 31 c 1
 496 34 513 39 513 122 c 2
 513 478 l 1
 505.5 475.5 500.4 471 495.5 465 c 2
 222.4 125 l 2
 210.7 110.1 200.7 102 193.8 78.3 c 1
 200.9 37 223.2 33.3 278 31 c 1
 284 25 284 4 278 -2 c 1
 233 -1 184.6 0 149 0 c 0
 112.7 0 64 -1 19 -2 c 1
 13 4 13 25 19 31 c 1
 89 34 106 39 106 122 c 2
 106 523 l 2
 106 606 89 611 19 614 c 1
 13 620 13 641 19 647 c 1
 66 646 114.5 645 148 645 c 0
 186.5 645 234 646 278 647 c 1
 284 641 284 620 278 614 c 1
 208 611 191 606 191 523 c 2
 191 167 l 1
 195.6 167.3 201.4 170.7 208.7 178 c 1
 483.5 520 l 2
 494.8 534.2 504.1 552.3 509.9 568.5 c 1
 502.5 608.1 480 611.7 426 614 c 1
 420 620 420 641 426 647 c 1
 473 646 521.5 645 555 645 c 0
 593.5 645 641 646 685 647 c 1
 691 641 691 620 685 614 c 1
 615 611 598 606 598 523 c 2
 598 122 l 2
EndSplineSet
Colour: ff00ff
EndChar

StartChar: uni041F
Encoding: 1055 1055 79
Width: 667
GlyphClass: 2
Flags: MW
LayerCount: 2
Fore
SplineSet
521 645 m 2
 548 645 600 646 650 647 c 1
 656 641 656 620 650 614 c 1
 580 611 563 606 563 523 c 2
 563 122 l 2
 563 39 580 34 650 31 c 1
 656 25 656 4 650 -2 c 1
 612 -1 558.7 0 520 0 c 0
 483.6 0 429 -1 391 -2 c 1
 385 4 385 25 391 31 c 1
 461 34 478 39 478 122 c 2
 478 531 l 2
 478 593 456 605 432 605 c 2
 235 605 l 2
 211 605 189 593 189 531 c 2
 189 122 l 2
 189 39 206 34 276 31 c 1
 282 25 282 4 276 -2 c 1
 236 -1 185 0 147 0 c 0
 107.3 0 56 -1 17 -2 c 1
 11 4 11 25 17 31 c 1
 87 34 104 39 104 122 c 2
 104 523 l 2
 104 606 87 611 17 614 c 1
 11 620 11 641 17 647 c 1
 67 646 123 645 146 645 c 2
 521 645 l 2
EndSplineSet
Colour: ff00ff
EndChar

StartChar: uni0420
Encoding: 1056 1056 80
Width: 541
GlyphClass: 2
Flags: MW
LayerCount: 2
Fore
SplineSet
189 554 m 2
 189 321 l 1
 200 318 240 316 265 316 c 0
 362 316 414 360 414 468 c 0
 414 595 345 618 276 618 c 0
 204 618 189 583 189 554 c 2
104 523 m 2
 104 606 87 611 17 614 c 1
 11 620 11 641 17 647 c 1
 57 646 109.3 645 146 645 c 0
 186 645 244.7 652 283 652 c 0
 468 652 507 545 507 486 c 0
 507 401 452 282 270 282 c 0
 235 282 211 285 189 292 c 1
 189 122 l 2
 189 39 213 35 291 31 c 1
 297 25 297 4 291 -2 c 1
 241 -1 182.4 0 147 0 c 0
 111.3 0 62 -1 17 -2 c 1
 11 4 11 25 17 31 c 1
 87 34 104 39 104 122 c 2
 104 523 l 2
EndSplineSet
Colour: ff00ff
EndChar

StartChar: uni0421
Encoding: 1057 1057 81
Width: 646
GlyphClass: 2
Flags: MW
LayerCount: 2
Fore
SplineSet
357 -10 m 0
 142 -10 37 136.2 37 310 c 0
 37 414.3 76.6 512.2 143 573 c 0
 202 627 273 658 358 658 c 0
 481 658 526 618 577 613 c 1
 587 558 594 510 599 458 c 1
 587.7 452 578 449 566 453 c 1
 540 539 485 621 347 621 c 0
 295 621 237 593 187.4 532 c 0
 150.9 487.1 128 415.3 128 329 c 0
 128 183 221.4 31 356 31 c 0
 449 31 517 62 588 140 c 1
 599 140 606 134 611 125 c 1
 543 36 454 -10 357 -10 c 0
EndSplineSet
Colour: ff00ff
EndChar

StartChar: uni0422
Encoding: 1058 1058 82
Width: 597
GlyphClass: 2
Flags: MW
LayerCount: 2
Fore
SplineSet
350 122 m 2
 350 39 367 34 447 31 c 1
 453 25 453 4 447 -2 c 1
 397 -1 346.4 0 308 0 c 0
 267.9 0 217 -1 168 -2 c 1
 162 4 162 25 168 31 c 1
 248 34 265 39 265 122 c 2
 265 507 l 2
 265 568 255 606 218 606 c 2
 169 606 l 2
 103 606 57 580 37 500 c 1
 25 500 13 501 3 505 c 1
 14 553 24 605 28 650 c 0
 28 651 30 653 32 653 c 0
 70 650 188 645 265 645 c 2
 351 645 l 2
 430 645 541 650 575 653 c 0
 576 653 578 651 578 650 c 0
 579 605 584 554 591 508 c 1
 582 504 568 503 557 503 c 1
 540 580 493 606 418 606 c 2
 396 606 l 2
 360 606 350 568 350 504 c 2
 350 122 l 2
EndSplineSet
Colour: ff00ff
EndChar

StartChar: uni0423
Encoding: 1059 1059 83
Width: 590
GlyphClass: 2
Flags: MW
LayerCount: 2
Fore
SplineSet
104.5 523 m 2
 72 594 62 609 5 614 c 1
 -1 620 -2 641 4 647 c 1
 38 646 76 645 108 645 c 0
 143.2 645 192 646 229 647 c 1
 235 641 235 620 229 614 c 1
 161 607 162 591 188.4 534 c 2
 327 229 l 1
 329 229 l 1
 438 528 l 2
 458 584 461 609 387 614 c 1
 381 620 381 641 387 647 c 1
 424 646 473 645 496 645 c 0
 519 645 554 646 584 647 c 1
 590 641 590 620 584 614 c 1
 518 606 502 569 483.7 521 c 2
 342 161 l 2
 299 52 244 -22 154 -22 c 0
 112 -22 64 1 64 33 c 0
 64 61 83 81 113 81 c 0
 127 81 149 74 159 62 c 0
 166 53 181 40 195 40 c 0
 227 40 252 61 283 136 c 1
 104.5 523 l 2
EndSplineSet
EndChar

StartChar: uni0425
Encoding: 1061 1061 84
Width: 660
GlyphClass: 2
Flags: MW
LayerCount: 2
Fore
SplineSet
538 102 m 2
 580.4 43.7 597 34 639 31 c 1
 645 25 646 4 640 -2 c 1
 610 -1 577 0 538 0 c 0
 498 0 461 -1 424 -2 c 1
 418 4 418 25 424 31 c 1
 480 34 475.8 44.9 447.5 85.2 c 2
 324 261 l 2
 318.4 269 314 272 310 272 c 0
 307 272 300.7 266 295 258 c 2
 163 73 l 2
 138.8 39 157.7 34 202 31 c 1
 208 25 208 4 202 -2 c 1
 162 -1 120 0 97 0 c 0
 74 0 37 -1 7 -2 c 1
 1 4 1 25 7 31 c 1
 51.7 35.3 83.7 47.1 118 93 c 2
 266 291 l 2
 271.9 298.9 276 308 276 314 c 0
 276 324 270.2 332.3 262 344 c 2
 119.7 547 l 2
 78.5 605.7 60 611 18 614 c 1
 12 620 11 641 17 647 c 1
 47 646 80 645 119 645 c 0
 159 645 196 646 233 647 c 1
 239 641 239 620 233 614 c 1
 177 611 181.3 599.8 209.5 559.8 c 1
 320 396 l 2
 324.8 389 329 385 332 385 c 0
 336 385 342 388.5 348 397 c 2
 471 572 l 2
 494.5 605.4 476.3 611 432 614 c 1
 426 620 426 641 432 647 c 1
 472 646 514 645 537 645 c 0
 560 645 597 646 627 647 c 1
 633 641 633 620 627 614 c 1
 582.3 609.7 550.7 596.9 516 552 c 2
 379 375 l 2
 369.9 363.2 369 354 369 345 c 0
 369 335 375.2 325.4 385 312 c 2
 538 102 l 2
EndSplineSet
Colour: ff00ff
EndChar

StartChar: uni0426
Encoding: 1062 1062 85
Width: 674
GlyphClass: 2
Flags: MW
LayerCount: 2
Fore
SplineSet
558 523 m 2
 558 122 l 2
 558 39 582 34 606 31 c 0
 630.8 27.9 635 20 636 11 c 0
 640 -37 642 -90 642 -141 c 1
 633 -148.1 618 -149 609 -142 c 1
 595 -71 547 0 470 0 c 2
 144 0 l 2
 124 0 63 -1 14 -2 c 1
 8 4 8 25 14 31 c 1
 84 34 101 39 101 122 c 2
 101 523 l 2
 101 606 84 611 14 614 c 1
 8 620 8 641 14 647 c 1
 54 646 108.5 645 143 645 c 0
 179 645 234 646 273 647 c 1
 279 641 279 620 273 614 c 1
 203 611 186 606 186 523 c 2
 186 89 l 2
 186 58 204 39 233 39 c 2
 436 39 l 2
 468 38.7 473 44 473 122 c 2
 473 523 l 2
 473 606 456 611 386 614 c 1
 380 620 380 641 386 647 c 1
 426 646 479 645 515 645 c 0
 554 645 606 646 645 647 c 1
 651 641 651 620 645 614 c 1
 575 611 558 606 558 523 c 2
EndSplineSet
EndChar

StartChar: uni0427
Encoding: 1063 1063 86
Width: 650
GlyphClass: 2
Flags: MW
LayerCount: 2
Fore
SplineSet
102 523 m 2
 102 606 85 611 15 614 c 1
 9 620 9 641 15 647 c 1
 55 646 108 645 144 645 c 0
 180.3 645 235 646 274 647 c 1
 280 641 280 620 274 614 c 1
 204 611 187 606 187 523 c 2
 187 417 l 2
 187 335 227 308 299 308 c 0
 327.5 308 390 311.9 453 353 c 1
 453 523 l 2
 453 606 436 611 366 614 c 1
 360 620 360 641 366 647 c 1
 404 646 459.3 645 495 645 c 0
 531.7 645 587 646 625 647 c 1
 631 641 631 620 625 614 c 1
 555 611 538 606 538 523 c 2
 538 122 l 2
 538 39 555 34 625 31 c 1
 631 25 631 4 625 -2 c 1
 586 -1 532.1 0 496 0 c 0
 460.3 0 405 -1 366 -2 c 1
 360 4 360 25 366 31 c 1
 436 34 453 39 453 122 c 2
 453 314.9 l 1
 381.1 265.5 314.2 250 257 250 c 0
 143 250 102 329 102 428 c 2
 102 523 l 2
EndSplineSet
EndChar

StartChar: uni0428
Encoding: 1064 1064 87
Width: 969
GlyphClass: 2
Flags: MW
LayerCount: 2
Fore
SplineSet
820 0 m 2
 149 0 l 2
 115 0 58 -1 19 -2 c 1
 13 4 13 25 19 31 c 1
 89 34 106 39 106 122 c 2
 106 523 l 2
 106 606 89 611 19 614 c 1
 13 620 13 641 19 647 c 1
 59 646 112.7 645 148 645 c 0
 185.7 645 239 646 278 647 c 1
 284 641 284 620 278 614 c 1
 208 611 191 606 191 523 c 2
 191 122 l 2
 191 40 208 37 250 37 c 2
 389 37 l 2
 426 37 440 40 440 122 c 2
 440 523 l 2
 440 606 423 611 353 614 c 1
 347 620 347 641 353 647 c 1
 393 646 446.3 645 482 645 c 0
 519 645 573 646 612 647 c 1
 618 641 618 620 612 614 c 1
 542 611 525 606 525 523 c 2
 525 122 l 2
 525 40 542 37 580 37 c 2
 709 37 l 2
 765 37 778 40 778 122 c 2
 778 523 l 2
 778 606 761 611 691 614 c 1
 685 620 685 641 691 647 c 1
 730 646 784.7 645 821 645 c 0
 857 645 910 646 950 647 c 1
 956 641 956 620 950 614 c 1
 880 611 863 606 863 523 c 2
 863 122 l 2
 863 39 880 34 950 31 c 1
 956 25 956 4 950 -2 c 1
 911 -1 857.5 0 820 0 c 2
EndSplineSet
EndChar

StartChar: uni0429
Encoding: 1065 1065 88
Width: 974
GlyphClass: 2
Flags: MW
LayerCount: 2
Fore
SplineSet
863 523 m 2
 863 122 l 2
 863 39 887 34 911 31 c 0
 935.8 27.9 940 20 941 11 c 0
 945 -37 947 -90 947 -141 c 1
 938 -148.1 923 -149 914 -142 c 1
 900 -71 852 0 775 0 c 2
 149 0 l 2
 115.5 0 58 -1 19 -2 c 1
 13 4 13 25 19 31 c 1
 89 34 106 39 106 122 c 2
 106 523 l 2
 106.2 606 89 611 19 614 c 1
 13 620 13 641 19 647 c 1
 59 646 112.7 645 148 645 c 0
 185.7 645 239 646 278 647 c 1
 284 641 284 620 278 614 c 1
 208 611 191.2 606 191 523 c 2
 191 122 l 2
 191 40 208 37 250 37 c 2
 389 37 l 2
 426 37 440 40 440 122 c 2
 440 523 l 2
 440.2 606 423 611 353 614 c 1
 347 620 347 641 353 647 c 1
 393 646 446.3 645 482 645 c 0
 519 645 573 646 612 647 c 1
 618 641 618 620 612 614 c 1
 542 611 525.2 606 525 523 c 2
 525 122 l 2
 525 40 542 37 580 37 c 2
 709 37 l 2
 765 37 778 40 778 122 c 2
 778 523 l 2
 778.2 606 761 611 691 614 c 1
 685 620 685 641 691 647 c 1
 730 646 784.7 645 821 645 c 0
 857 645 910 646 950 647 c 1
 956 641 956 620 950 614 c 1
 880 611 863.2 606 863 523 c 2
EndSplineSet
EndChar

StartChar: uni042A
Encoding: 1066 1066 89
Width: 723
GlyphClass: 2
Flags: MW
LayerCount: 2
Fore
SplineSet
427 31 m 0
 559 31 590 110 590 193 c 0
 590 297.7 538.3 345.9 409.7 345.9 c 0
 391.4 345.9 371.5 344.9 350 343 c 1
 350 98 l 2
 350 65 359 31 427 31 c 0
265 523 m 2
 265 598 253 605 206 605 c 2
 164 605 l 2
 98 605 64 512 56 469 c 1
 42 466 33.7 468.5 26 474 c 1
 30 530 35 584 42 647 c 1
 77 646 114.7 645 163.7 645 c 2
 307 645 l 2
 357 645 398 646 437 647 c 1
 443 641 443 620 437 614 c 1
 367 611 350 606 350 523 c 2
 350 383 l 1
 379.7 385.5 407.1 386.8 432.3 386.8 c 0
 615.6 386.8 683 320.1 683 193 c 0
 683 67.5 596.5 -2 425 -2 c 0
 389 -2 337 0 308 0 c 0
 270.3 0 217 -1 178 -2 c 1
 172 4 172 25 178 31 c 1
 248 34 265 39 265 122 c 2
 265 523 l 2
EndSplineSet
EndChar

StartChar: uni042B
Encoding: 1067 1067 90
Width: 798
GlyphClass: 2
Flags: MW
LayerCount: 2
Fore
SplineSet
693 123 m 2
 693 40 710 35 780 32 c 1
 786 26 786 5 780 -1 c 1
 735 0 686.6 1 651 1 c 0
 614.7 1 566 0 521 -1 c 1
 515 5 515 26 521 32 c 1
 591 35 608 40 608 123 c 2
 608 524 l 2
 608 607 591 612 521 615 c 1
 515 621 515 642 521 648 c 1
 568 647 616.5 646 650 646 c 0
 688.5 646 736 647 780 648 c 1
 786 642 786 621 780 615 c 1
 710 612 693 607 693 524 c 2
 693 123 l 2
267 31 m 0
 399 31 430 110 430 193 c 0
 430 297.7 378.3 345.9 249.7 345.9 c 0
 231.4 345.9 211.5 344.9 190 343 c 1
 190 98 l 2
 190 65 199 31 267 31 c 0
105 122 m 2
 105 523 l 2
 105 606 88 611 18 614 c 1
 12 620 12 641 18 647 c 1
 58 646 111.7 645 147 645 c 0
 185.3 645 238 646 277 647 c 1
 283 641 283 620 277 614 c 1
 207 611 190 606 190 523 c 2
 190 383 l 1
 219.7 385.5 247.1 386.8 272.3 386.8 c 0
 455.6 386.8 523 320.1 523 193 c 0
 523 67.5 436.5 -2 265 -2 c 0
 229 -2 177 0 148 0 c 0
 110.3 0 57 -1 18 -2 c 1
 12 4 12 25 18 31 c 1
 88 34 105 39 105 122 c 2
EndSplineSet
Colour: ff00ff
EndChar

StartChar: uni042C
Encoding: 1068 1068 91
Width: 559
GlyphClass: 2
Flags: MW
AnchorPoint: "above" 201 850 basechar 0
AnchorPoint: "below" 250 -110 basechar 0
AnchorPoint: "cedilla" 250 2 basechar 0
AnchorPoint: "right" 509 418 basechar 0
AnchorPoint: "middle" 286 186 basechar 0
LayerCount: 2
Fore
SplineSet
267 31 m 0
 399 31 430 110 430 193 c 0
 430 297.7 378.3 345.9 249.7 345.9 c 0
 231.4 345.9 211.5 344.9 190 343 c 1
 190 98 l 2
 190 65 199 31 267 31 c 0
105 122 m 2
 105 523 l 2
 105 606 88 611 18 614 c 1
 12 620 12 641 18 647 c 1
 58 646 111.7 645 147 645 c 0
 185.3 645 238 646 277 647 c 1
 283 641 283 620 277 614 c 1
 207 611 190 606 190 523 c 2
 190 383 l 1
 219.7 385.5 247.1 386.8 272.3 386.8 c 0
 455.6 386.8 523 320.1 523 193 c 0
 523 67.5 436.5 -2 265 -2 c 0
 229 -2 177 0 148 0 c 0
 110.3 0 57 -1 18 -2 c 1
 12 4 12 25 18 31 c 1
 88 34 105 39 105 122 c 2
EndSplineSet
EndChar

StartChar: uni042D
Encoding: 1069 1069 92
Width: 622
GlyphClass: 2
Flags: MW
LayerCount: 2
Fore
SplineSet
271 -10 m 0
 174 -10 46 50 46 124 c 0
 46 144 55 163 80 163 c 0
 109 163 124 136 137 99 c 0
 151 59 191 25 267 25 c 0
 415 25 487 143 497 301 c 1
 464 316 435 323 397 323 c 0
 339 323 310 291 243 291 c 0
 184 291 121 320 121 345 c 0
 121 353 126 357 130 357 c 0
 138 357 154 341 192 341 c 0
 251 341 294 379 357 379 c 0
 370 379 436 367 497 333 c 1
 498 334 l 1
 498 547 383 621 304 621 c 0
 166 621 109 540 83 454 c 1
 53 458 l 1
 63 510 71 559 75 613 c 1
 132 616 172 658 299 658 c 0
 465 658 585 534 585 325 c 0
 585 140 486 -10 271 -10 c 0
EndSplineSet
EndChar

StartChar: uni042E
Encoding: 1070 1070 93
Width: 905
GlyphClass: 2
Flags: MW
LayerCount: 2
Fore
SplineSet
562 619 m 0
 478 619 378 537 378 327 c 0
 378 135 484 28 592 28 c 0
 695 28 773 131 773 310 c 0
 773 518 687 619 562 619 c 0
191 122 m 2
 191 39 208 34 278 31 c 1
 284 25 284 4 278 -2 c 1
 233 -1 184.6 0 149 0 c 0
 112.7 0 64 -1 19 -2 c 1
 13 4 13 25 19 31 c 1
 89 34 106 39 106 122 c 2
 106 523 l 2
 106 606 89 611 19 614 c 1
 13 620 13 641 19 647 c 1
 66 646 114.5 645 148 645 c 0
 186.5 645 234 646 278 647 c 1
 284 641 284 620 278 614 c 1
 208 611 191 606 191 523 c 2
 191 344 l 1
 286 344 l 1
 299 523 417 658 573 658 c 0
 741 658 866 527 866 329 c 0
 866 129 752 -10 574 -10 c 0
 416 -10 287 111 285 305 c 1
 191 305 l 1
 191 122 l 2
EndSplineSet
EndChar

StartChar: uni042F
Encoding: 1071 1071 94
Width: 580
GlyphClass: 2
Flags: MW
LayerCount: 2
Fore
SplineSet
169 502 m 0
 169 396 231 362 314 362 c 2
 392 362 l 1
 392 575 l 2
 392 608 388 611 301 611 c 0
 245 611 169 595 169 502 c 0
393 323 m 1
 286 324 266 295 224 189 c 0
 181 80.5 144 0 73 -1 c 2
 7 -2 l 1
 6 0 l 1
 6 19 l 2
 6 24 9 27 13 27 c 2
 22 28 l 2
 54 32 97.6 86.4 149 220 c 0
 174 285 207 310 234 326 c 1
 234 329 l 1
 166 339 77 389 77 491 c 0
 77 560 122 646 308 646 c 0
 343 646 402 645 436 645 c 0
 486.3 645 515 646 565 647 c 1
 571 641 571 620 565 614 c 1
 495 611 478 606 478 523 c 2
 478 122 l 2
 478 39 495 34 565 31 c 1
 571 25 571 4 565 -2 c 1
 516 -1 485.7 0 435 0 c 0
 378.8 0 341 -1 291 -2 c 1
 285 4 285 25 291 31 c 1
 369 35 393 39 393 122 c 2
 393 323 l 1
EndSplineSet
EndChar

StartChar: uni0447
Encoding: 1095 1095 95
Width: 539
GlyphClass: 2
Flags: MW
LayerCount: 2
Fore
SplineSet
162 307 m 2
 162 290 l 2
 162 212 165 178 230 178 c 0
 282 178 318 205 352 235 c 1
 352 307 l 2
 352 390 341 394 290 398 c 1
 284 404 284 425 290 431 c 1
 313 430 353 429 392 429 c 0
 436 429 470 430 504 431 c 1
 510 425 510 404 504 398 c 1
 443 393 432 390 432 307 c 2
 432 122 l 2
 432 39 443 35 504 31 c 1
 510 25 510 4 504 -2 c 1
 472 -1 435 0 392 0 c 0
 348 0 313 -1 280 -2 c 1
 274 4 274 25 280 31 c 1
 341 36 352 39 352 122 c 2
 352 199 l 1
 311 169 261 133 198 133 c 0
 105 133 84 170 84 264 c 2
 84 307 l 2
 84 390 73 394 12 398 c 1
 6 404 6 425 12 431 c 1
 45 430 79 429 122 429 c 0
 162 429 200 430 224 431 c 1
 230 425 230 404 224 398 c 1
 173 393 162 390 162 307 c 2
EndSplineSet
EndChar

StartChar: uni0448
Encoding: 1096 1096 96
Width: 849
GlyphClass: 2
Flags: MW
LayerCount: 2
Fore
SplineSet
746 122 m 2
 746 40 759 35 814 31 c 1
 820 25 820 4 814 -2 c 1
 784 -1 746 0 706 0 c 2
 147 0 l 2
 107 0 69 -1 39 -2 c 1
 33 4 33 25 39 31 c 1
 94 35 107 40 107 122 c 2
 107 307 l 2
 107 389 98 394 43 398 c 1
 38 404 38 425 43 431 c 1
 71 430 106 429 146 429 c 0
 186 429 223 430 248 431 c 1
 253 425 253 404 248 398 c 1
 196 394 186 389 186 307 c 2
 186 90 l 2
 186 50 192 39 229 39 c 2
 343 39 l 2
 380 39 385 52 385 89 c 2
 385 307 l 1
 386 389 376 394 326 398 c 1
 321 404 321 425 326 431 c 1
 351 430 384 429 424 429 c 0
 464 429 501 430 526 431 c 1
 531 425 531 404 526 398 c 1
 472 394 465 389 464 307 c 1
 464 90 l 2
 464 48 477 39 507 39 c 2
 625 39 l 2
 664 39 667 59 667 90 c 2
 667 307 l 2
 667 389 657 393 606 398 c 1
 600 404 600 425 606 431 c 1
 636 430 666 429 706 429 c 0
 746 429 784 430 814 431 c 1
 820 425 820 404 814 398 c 1
 759 394 746 389 746 307 c 2
 746 122 l 2
EndSplineSet
EndChar

StartChar: uni0449
Encoding: 1097 1097 97
Width: 849
GlyphClass: 2
Flags: MW
LayerCount: 2
Fore
SplineSet
669 0 m 2
 147 0 l 2
 107 0 69 -1 39 -2 c 1
 33 4 33 25 39 31 c 1
 94 35 107 40 107 122 c 2
 107 307 l 2
 107 389 98 394 43 398 c 1
 38 404 38 425 43 431 c 1
 71 430 106 429 146 429 c 0
 186 429 223 430 248 431 c 1
 253 425 253 404 248 398 c 1
 196 394 186 389 186 307 c 2
 186 90 l 2
 186 50 192 39 229 39 c 2
 343 39 l 2
 380 39 385 52 385 89 c 2
 385 307 l 1
 386 389 376 394 326 398 c 1
 321 404 321 425 326 431 c 1
 351 430 384 429 424 429 c 0
 464 429 501 430 526 431 c 1
 531 425 531 404 526 398 c 1
 472 394 465 389 464 307 c 1
 464 90 l 2
 464 48 477 39 507 39 c 2
 625 39 l 2
 664 39 667 59 667 90 c 2
 667 307 l 2
 667 389 657 393 606 398 c 1
 600 404 600 425 606 431 c 1
 636 430 666 429 706 429 c 0
 746 429 784 430 814 431 c 1
 820 425 820 404 814 398 c 1
 759 394 746 389 746 307 c 2
 746 122 l 2
 746 42 762.3 36 785 31 c 0
 798.8 28 814 23 815 5 c 2
 821 -128 l 1
 812.7 -130.6 804.1 -131.3 795 -129 c 1
 782 -80 753 0 669 0 c 2
EndSplineSet
EndChar

StartChar: uni044A
Encoding: 1098 1098 98
Width: 565
GlyphClass: 2
Flags: MW
LayerCount: 2
Fore
SplineSet
455 126 m 0
 455 179 432 224 357 224 c 2
 286 224 l 1
 286 76 l 2
 286 41 303 31 352 31 c 0
 405 31 455 44 455 126 c 0
207 307 m 2
 207 380 188 392 165 392 c 0
 88 392 74 357 56 275 c 1
 44.8 274.4 34.7 276.5 27 280 c 1
 34 326 39 373 40 431 c 1
 40 431 165.7 429 246 429 c 0
 289.7 429 324 430 358 431 c 1
 364 425 364 404 358 398 c 1
 297 393 286 390 286 306 c 2
 286 257 l 1
 358 257 l 2
 459 257 541 230 541 136 c 0
 541 29 474 -2 351 -2 c 0
 310.4 -2 287.6 0 247 0 c 0
 203.3 0 168 -1 135 -2 c 1
 129 4 129 25 135 31 c 1
 196 36 207 39 207 122 c 2
 207 307 l 2
EndSplineSet
EndChar

StartChar: uni044B
Encoding: 1099 1099 99
Width: 724
GlyphClass: 2
Flags: MW
LayerCount: 2
Fore
SplineSet
617 307 m 2
 617 122 l 2
 617 39 628 35 689 31 c 1
 695 25 695 4 689 -2 c 1
 657 -1 621 0 578 0 c 0
 534 0 499 -1 466 -2 c 1
 460 4 460 25 466 31 c 1
 527 36 538 39 538 122 c 2
 538 307 l 2
 538 390 527 394 466 398 c 1
 460 404 460 425 466 431 c 1
 499 430 534 429 577 429 c 0
 621 429 655 430 689 431 c 1
 695 425 695 404 689 398 c 1
 628 393 617 390 617 307 c 2
355 126 m 0
 355 179 332 224 257 224 c 2
 186 224 l 1
 186 76 l 2
 186 41 203 31 252 31 c 0
 305 31 355 44 355 126 c 0
186 306 m 2
 186 257 l 1
 258 257 l 2
 359 257 441 230 441 136 c 0
 441 29 374 -2 251 -2 c 0
 210.4 -2 187.6 0 147 0 c 0
 103.3 0 68 -1 35 -2 c 1
 29 4 29 25 35 31 c 1
 96 36 107 39 107 122 c 2
 107 307 l 2
 107 390 96 394 35 398 c 1
 29 404 29 425 35 431 c 1
 68 430 102.7 429 146 429 c 0
 189.7 429 224 430 258 431 c 1
 264 425 264 404 258 398 c 1
 197 393 186 390 186 306 c 2
EndSplineSet
Colour: ff00ff
EndChar

StartChar: uni044C
Encoding: 1100 1100 100
Width: 465
GlyphClass: 2
Flags: MW
LayerCount: 2
Fore
SplineSet
355 126 m 0
 355 179 332 224 257 224 c 2
 186 224 l 1
 186 76 l 2
 186 41 203 31 252 31 c 0
 305 31 355 44 355 126 c 0
186 306 m 2
 186 257 l 1
 258 257 l 2
 359 257 441 230 441 136 c 0
 441 29 374 -2 251 -2 c 0
 210.4 -2 187.6 0 147 0 c 0
 103.3 0 68 -1 35 -2 c 1
 29 4 29 25 35 31 c 1
 96 36 107 39 107 122 c 2
 107 307 l 2
 107 390 96 394 35 398 c 1
 29 404 29 425 35 431 c 1
 68 430 102.7 429 146 429 c 0
 189.7 429 224 430 258 431 c 1
 264 425 264 404 258 398 c 1
 197 393 186 390 186 306 c 2
EndSplineSet
EndChar

StartChar: uni044D
Encoding: 1101 1101 101
Width: 454
GlyphClass: 2
Flags: MW
LayerCount: 2
Fore
SplineSet
47 82 m 0
 47 98 61 111 80 111 c 0
 98 111 112 106 127 74 c 0
 140 47 164 25 206 25 c 0
 295 25 332 82 332 201 c 1
 319 206 306 210 292 210 c 0
 272.8 210 258.4 206 243.5 199.7 c 0
 227.7 193.1 210.4 188 186 188 c 0
 141 188 92 206 92 220 c 0
 92 224 94 234 100 234 c 0
 107 234 120 228 134 228 c 0
 151.7 228 167.9 233.6 184.2 241.1 c 0
 202.4 249.4 221.5 256 245 256 c 0
 276 256 304 244 331 228 c 1
 334 230 l 1
 334 322 292.5 404 209 404 c 0
 131 404 98 360 80 296 c 1
 69.8 294.4 62.3 295.3 54 300 c 1
 55.7 340.7 57.7 381.7 63 420 c 1
 115 424 167 439 217 439 c 0
 362.5 439 418 342 418 221 c 0
 418 60 322 -10 218 -10 c 0
 122 -10 47 29 47 82 c 0
EndSplineSet
EndChar

StartChar: uni044E
Encoding: 1102 1102 102
Width: 731
GlyphClass: 2
Flags: MW
LayerCount: 2
Fore
SplineSet
186 237 m 1
 290 237 l 1
 301 356 369 439 490 439 c 0
 642 439 691 321 691 217 c 0
 691 117 636 -10 489 -10 c 0
 354 -10 291 97 289 198 c 1
 186 198 l 1
 186 122 l 2
 186 39 197 35 258 31 c 1
 264 25 264 4 258 -2 c 1
 226 -1 190 0 147 0 c 0
 103 0 68 -1 35 -2 c 1
 29 4 29 25 35 31 c 1
 96 36 107 39 107 122 c 2
 107 307 l 2
 107 390 96 394 35 398 c 1
 29 404 29 425 35 431 c 1
 68 430 103 429 146 429 c 0
 190 429 224 430 258 431 c 1
 264 425 264 404 258 398 c 1
 197 393 186 390 186 307 c 2
 186 237 l 1
480 404 m 0
 402 404 375 313 375 226 c 0
 375 149 408 25 507 25 c 0
 550 25 605 53 605 185 c 0
 605 331 562 404 480 404 c 0
EndSplineSet
EndChar

StartChar: uni044F
Encoding: 1103 1103 103
Width: 481
GlyphClass: 2
Flags: MW
LayerCount: 2
Fore
SplineSet
142 321 m 0
 142 271 165 225 225 225 c 2
 295 225 l 1
 295 342 l 2
 295 380.3 279 398 238 398 c 0
 157 398 142 368 142 321 c 0
114 0 m 2
 114 0 36 -1 16 -2 c 1
 10 4 10 25 16 31 c 1
 55 33 72.3 39 85 73 c 0
 89.8 85.8 99 107.7 110 131 c 0
 127.2 167.5 143.7 189 181.7 199.8 c 0
 183.3 200.5 183.2 204.2 180.3 204.4 c 0
 105.6 206.6 56 240.3 56 305 c 0
 56 359 71 431 246 431 c 0
 270.7 431 299.7 429 334 429 c 0
 377.7 429 412 430 446 431 c 1
 452 425 452 404 446 398 c 1
 385 393 374 390 374 307 c 2
 374 122 l 2
 374 39 385 35 446 31 c 1
 452 25 452 4 446 -2 c 1
 414 -1 378.3 0 335 0 c 0
 291.3 0 256 -1 223 -2 c 1
 217 4 217 25 223 31 c 1
 284 36 295 39 295 122 c 2
 295 191 l 1
 269 191 l 2
 218.6 191 189.5 141.5 163.5 63 c 0
 151.5 26.6 141.7 0.8 114 0 c 2
EndSplineSet
EndChar

StartChar: uni04AE
Encoding: 1198 1198 104
Width: 575
GlyphClass: 2
Flags: MW
LayerCount: 2
Fore
SplineSet
337 122 m 2
 337 39 354 34 434 31 c 1
 440 25 440 4 434 -2 c 1
 384 -1 333.7 0 295 0 c 0
 256.4 0 204 -1 155 -2 c 1
 149 4 149 25 155 31 c 1
 235 34 252 39 252 122 c 2
 252 249 l 2
 252 286 248.5 296.5 231 326 c 2
 99.7 547 l 2
 65.2 605.1 48 611 6 614 c 1
 0 620 -1 641 5 647 c 1
 35 646 68 645 107 645 c 0
 147 645 185 646 221 647 c 1
 227 641 227 620 221 614 c 1
 165 611 161 601.4 185.2 558.8 c 2
 301.2 354 l 2
 310.2 338.1 315 336.8 323 352 c 2
 433.8 561 l 2
 455.2 601.4 439.3 611 395 614 c 1
 389 620 389 641 395 647 c 1
 427 646 463 645 486 645 c 0
 509 645 541 646 569 647 c 1
 575 641 575 620 569 614 c 1
 524.3 609.7 502 600.7 474 550 c 2
 354.5 334 l 2
 338.1 304.4 337 287.5 337 257.7 c 2
 337 122 l 2
EndSplineSet
Colour: ff00ff
EndChar

StartChar: uni04C0
Encoding: 1216 1216 105
Width: 297
GlyphClass: 2
Flags: MW
LayerCount: 2
Fore
SplineSet
191 122 m 2
 191 39 208 34 278 31 c 1
 284 25 284 4 278 -2 c 1
 233 -1 184.6 0 149 0 c 0
 112.7 0 64 -1 19 -2 c 1
 13 4 13 25 19 31 c 1
 89 34 106 39 106 122 c 2
 106 523 l 2
 106 606 89 611 19 614 c 1
 13 620 13 641 19 647 c 1
 66 646 114.5 645 148 645 c 0
 186.5 645 234 646 278 647 c 1
 284 641 284 620 278 614 c 1
 208 611 191 606 191 523 c 2
 191 122 l 2
EndSplineSet
Colour: ff00ff
EndChar

StartChar: uni04D0
Encoding: 1232 1232 106
Width: 695
GlyphClass: 2
Flags: MW
LayerCount: 2
Fore
SplineSet
359 729 m 0
 392 729 415 746 415 763 c 0
 415 768 414 774 414 776 c 0
 414 791 424 806 447 806 c 0
 474 806 484 792 484 773 c 0
 484 721 425 698 359 698 c 0
 293 698 234 721 234 773 c 0
 234 792 244 806 271 806 c 0
 294 806 304 791 304 776 c 0
 304 774 303 768 303 763 c 0
 303 746 326 729 359 729 c 0
263 283 m 2
 440 283 l 1
 346 555 l 1
 340 555 l 1
 237.8 296.3 l 2
 234 286 241 283 263 283 c 2
155 79 m 2
 139.4 37.9 186.4 33.6 224 31 c 1
 230 25 230 4 224 -2 c 1
 187 -1 137 0 96 0 c 0
 65.7 0 33 -1 7 -2 c 1
 1 4 1 25 7 31 c 1
 50.5 34 81 40 107 102 c 2
 334 638 l 1
 347 638 374 649 389 658 c 1
 595 86 l 2
 612.4 37.8 646.2 34.5 685 31 c 1
 691 25 691 4 685 -2 c 1
 650 -1 612 0 571 0 c 0
 532 0 477 -1 440 -2 c 1
 434 4 434 25 440 31 c 1
 487.6 34.4 525.8 37.5 514 72 c 2
 456 241 l 1
 245 241 l 2
 221 241 215 237 210 224 c 2
 155 79 l 2
EndSplineSet
Colour: ff00ff
EndChar

StartChar: uni04D1
Encoding: 1233 1233 107
Width: 457
GlyphClass: 2
Flags: MW
LayerCount: 2
Fore
SplineSet
330 590 m 0
 330 535 272 503 208 503 c 0
 143 503 88 536 88 590 c 0
 88 608 104 623 127 623 c 0
 149 623 161 609 161 593 c 0
 161 590 161 588 160 585 c 0
 159 582 159 579 159 577 c 0
 159 555 179 534 209 534 c 0
 238 534 259 554 259 576 c 0
 259 579 259 582 258 585 c 0
 257 587 257 589 257 592 c 0
 257 609 274 623 292 623 c 0
 316 623 330 609 330 590 c 0
293 233 m 1
 214 212 l 2
 140 193 119 147 119 102 c 0
 119 71 141 31 191 31 c 0
 219 31 253 54 279 75 c 0
 287 81 293 88 293 101 c 2
 293 233 l 1
293 48 m 1
 291 48 l 1
 271 32 l 2
 227 -2 196.8 -10 162 -10 c 0
 92 -10 36 16 36 98 c 0
 36 166 105 219 201 243 c 2
 287 264 l 2
 290 265 293 269 293 276 c 0
 293 389 246 406 212 406 c 0
 174 406 132 395 132 364 c 0
 132 353 133 347 134 344 c 0
 136 340 137 333 137 326 c 0
 137 313 119 292 90 292 c 0
 67 292 55 304 55 328 c 0
 55 385 138 439 220 439 c 0
 293 439 371 412 371 270 c 2
 371 123 l 2
 371 77 372 38 401 38 c 0
 413.7 38 430.5 47.8 438 54 c 1
 449.3 47.7 453.3 39.3 455 27 c 1
 434.3 7 398.3 -10 360 -10 c 0
 309.6 -10 299 17 293 48 c 1
EndSplineSet
Colour: ff00ff
EndChar

StartChar: uni04D2
Encoding: 1234 1234 108
Width: 695
GlyphClass: 2
Flags: MW
LayerCount: 2
Fore
SplineSet
227 758 m 0
 227 784 248 806 274 806 c 0
 300 806 321 784 321 758 c 0
 321 732 300 711 274 711 c 0
 248 711 227 732 227 758 c 0
396 758 m 0
 396 784 417 806 443 806 c 0
 469 806 490 784 490 758 c 0
 490 732 469 711 443 711 c 0
 417 711 396 732 396 758 c 0
263 283 m 2
 440 283 l 1
 346 555 l 1
 340 555 l 1
 237.8 296.3 l 2
 234 286 241 283 263 283 c 2
155 79 m 2
 139.4 37.9 186.4 33.6 224 31 c 1
 230 25 230 4 224 -2 c 1
 187 -1 137 0 96 0 c 0
 65.7 0 33 -1 7 -2 c 1
 1 4 1 25 7 31 c 1
 50.5 34 81 40 107 102 c 2
 334 638 l 1
 347 638 374 649 389 658 c 1
 595 86 l 2
 612.4 37.8 646.2 34.5 685 31 c 1
 691 25 691 4 685 -2 c 1
 650 -1 612 0 571 0 c 0
 532 0 477 -1 440 -2 c 1
 434 4 434 25 440 31 c 1
 487.6 34.4 525.8 37.5 514 72 c 2
 456 241 l 1
 245 241 l 2
 221 241 215 237 210 224 c 2
 155 79 l 2
EndSplineSet
Colour: ff00ff
EndChar

StartChar: uni04D3
Encoding: 1235 1235 109
Width: 457
GlyphClass: 2
Flags: MW
LayerCount: 2
Fore
SplineSet
83 575 m 0
 83 601 104 623 130 623 c 0
 156 623 177 601 177 575 c 0
 177 549 156 528 130 528 c 0
 104 528 83 549 83 575 c 0
252 575 m 0
 252 601 273 623 299 623 c 0
 325 623 346 601 346 575 c 0
 346 549 325 528 299 528 c 0
 273 528 252 549 252 575 c 0
293 233 m 1
 214 212 l 2
 140 193 119 147 119 102 c 0
 119 71 141 31 191 31 c 0
 219 31 253 54 279 75 c 0
 287 81 293 88 293 101 c 2
 293 233 l 1
293 48 m 1
 291 48 l 1
 271 32 l 2
 227 -2 196.8 -10 162 -10 c 0
 92 -10 36 16 36 98 c 0
 36 166 105 219 201 243 c 2
 287 264 l 2
 290 265 293 269 293 276 c 0
 293 389 246 406 212 406 c 0
 174 406 132 395 132 364 c 0
 132 353 133 347 134 344 c 0
 136 340 137 333 137 326 c 0
 137 313 119 292 90 292 c 0
 67 292 55 304 55 328 c 0
 55 385 138 439 220 439 c 0
 293 439 371 412 371 270 c 2
 371 123 l 2
 371 77 372 38 401 38 c 0
 413.7 38 430.5 47.8 438 54 c 1
 449.3 47.7 453.3 39.3 455 27 c 1
 434.3 7 398.3 -10 360 -10 c 0
 309.6 -10 299 17 293 48 c 1
EndSplineSet
Colour: ff00ff
EndChar

StartChar: uni04D4
Encoding: 1236 1236 110
Width: 865
GlyphClass: 2
Flags: MW
LayerCount: 2
Fore
SplineSet
271 305 m 1
 429 305 l 1
 429 575 l 2
 429 587 428 596 424 598 c 1
 271 305 l 1
429 122 m 2
 429 266 l 1
 251 266 l 1
 154 79 l 2
 133.7 39.9 186.4 33.6 224 31 c 1
 230 25 230 4 224 -2 c 1
 187 -1 137 0 96 0 c 0
 57 0 44 -1 7 -2 c 1
 1 4 1 25 7 31 c 1
 50.5 34 79.3 42.7 111 102 c 2
 354 557 l 2
 370.2 587.7 364 611 294 614 c 1
 288 620 288 641 294 647 c 1
 344 646 409 645 409 645 c 1
 549 645 l 1
 725 645 l 2
 749 645 757 646 774 649 c 0
 777 649 778 648 778 646 c 0
 780 638 795 542 800 501 c 1
 790.2 496.3 779.4 494.2 767 496 c 1
 745 565 729 605 654 605 c 2
 549 605 l 2
 525 605 513 585 513 561 c 2
 513 361 l 1
 604 361 l 2
 689 361 692 374 695 429 c 1
 701 435 722 435 728 429 c 1
 727 399 726 376.5 726 343 c 0
 726 308.7 727 290 728 255 c 1
 722 249 701 249 695 255 c 1
 692 300 689 323 604 323 c 2
 513 323 l 1
 513 82 l 2
 513 55 527 39 549 39 c 2
 685 39 l 2
 761 39 796 98 816 170 c 1
 829.1 173.2 840.6 171 851 165 c 1
 843 114 828 48 814 -2 c 1
 814 -2 734 0 686 0 c 2
 472 0 l 1
 472 0 391 -1 342 -2 c 1
 336 4 336 25 342 31 c 1
 412 34 429 39 429 122 c 2
EndSplineSet
Colour: ff00ff
EndChar

StartChar: uni04D5
Encoding: 1237 1237 111
Width: 687
GlyphClass: 2
Flags: MW
AnchorPoint: "above" 341 645 basechar 0
LayerCount: 2
Fore
SplineSet
265 384 m 0
 250.3 399.3 221 406 200 406 c 0
 161 406 123 392 123 363 c 0
 123 353 124 346 126 343 c 0
 128 339 129 332 129 325 c 0
 129 309 115 292 90 292 c 0
 59 292 50 317 50 337 c 0
 50 395 128 439 210 439 c 0
 234 439 311 436 348 369 c 1
 381 414 433 439 490 439 c 0
 604 439 648 373 648 339 c 0
 648 258 602 221 371 218 c 1
 371 128 430 39 505 39 c 0
 559 39 594 64 624 99 c 1
 632.7 98.2 640.7 88.3 644 83 c 1
 615 29 557 -10 491 -10 c 0
 400 -10 361.3 35.1 340 59 c 0
 332 68 327.9 64.1 316 52 c 0
 270 5 219.1 -10 182 -10 c 0
 146 -10 109.9 -4.5 88 8 c 0
 53.5 27.6 39 60.4 39 102 c 0
 39 142 66 184 102 205.2 c 0
 145.1 230.6 211.2 243.9 298 250 c 1
 297 329 288 360 265 384 c 0
298 215 m 1
 228.7 209.5 178.7 192.6 148 169.9 c 0
 123.3 151.7 111 129.7 111 107 c 0
 111 64 138 32 194 32 c 0
 226 32 278 73 293 113 c 1
 297 132 298 165 298 215 c 1
372 253 m 1
 525 255 572 275 572 336 c 0
 572 368 537 406 489 406 c 0
 421 406 380 338 372 253 c 1
EndSplineSet
Colour: ff00ff
EndChar

StartChar: uni04D6
Encoding: 1238 1238 112
Width: 557
GlyphClass: 2
Flags: MW
LayerCount: 2
Fore
SplineSet
274 729 m 0
 307 729 330 746 330 763 c 0
 330 768 329 774 329 776 c 0
 329 791 339 806 362 806 c 0
 389 806 399 792 399 773 c 0
 399 721 340 698 274 698 c 0
 208 698 149 721 149 773 c 0
 149 792 159 806 186 806 c 0
 209 806 219 791 219 776 c 0
 219 774 218 768 218 763 c 0
 218 746 241 729 274 729 c 0
281 361 m 2
 366 361 369 374 372 429 c 1
 378 435 399 435 405 429 c 1
 404 405 403 371 403 343 c 0
 403 308.7 404 281 405 255 c 1
 399 249 378 249 372 255 c 1
 369 300 366 323 281 323 c 2
 190 323 l 1
 190 102 l 2
 190 55 204 39 246 39 c 2
 362 39 l 2
 438 39 473 98 493 170 c 1
 506.1 173.2 517.6 171 528 165 c 1
 520 114 505 48 491 -2 c 1
 491 -2 411 0 363 0 c 2
 148 0 l 2
 115 0 55 -1 18 -2 c 1
 12 4 12 25 18 31 c 1
 88 34 105 39 105 122 c 2
 105 523 l 2
 105 606 88 611 18 614 c 1
 12 620 12 641 18 647 c 1
 58 646 116.5 645 147 645 c 2
 402 645 l 2
 426 645 434 646 451 649 c 0
 454 649 455 648 455 646 c 0
 457 638 472 542 477 501 c 1
 467.2 496.3 456.4 494.2 444 496 c 1
 422 565 406 605 331 605 c 2
 256 605 l 2
 202 605 190 585 190 541 c 2
 190 361 l 1
 281 361 l 2
EndSplineSet
Colour: ff00ff
EndChar

StartChar: uni04D7
Encoding: 1239 1239 113
Width: 447
GlyphClass: 2
Flags: MW
LayerCount: 2
Fore
SplineSet
345 590 m 0
 345 535 287 503 223 503 c 0
 158 503 103 536 103 590 c 0
 103 608 119 623 142 623 c 0
 164 623 176 609 176 593 c 0
 176 590 176 588 175 585 c 0
 174 582 174 579 174 577 c 0
 174 555 194 534 224 534 c 0
 253 534 274 554 274 576 c 0
 274 579 274 582 273 585 c 0
 272 587 272 589 272 592 c 0
 272 609 289 623 307 623 c 0
 331 623 345 609 345 590 c 0
124 282 m 1
 305 285 l 2
 316 285.2 320 290 320 299 c 0
 320 383 275 404 237 404 c 0
 213 404 143 395 124 282 c 1
386 93 m 1
 398 92 404 87 407 77 c 1
 367 25 313 -10 237 -10 c 0
 165 -10 118 14 84 54 c 0
 51 92 37 146 37 202 c 0
 37 354 150 437 237 437 c 0
 376 437 406 347 406 263 c 0
 406 252 399 246 387 246 c 2
 121 248 l 1
 121 190 133 144 153 111 c 0
 184 60 226 39 262 39 c 0
 320 39 349 55 386 93 c 1
EndSplineSet
Colour: ff00ff
EndChar

StartChar: uni04D8
Encoding: 1240 1240 114
Width: 644
GlyphClass: 2
Flags: MW
LayerCount: 2
Fore
SplineSet
97 523 m 1
 74 547 l 1
 153 621 200 658 310 658 c 0
 525 658 611 485 611 326 c 0
 611 131 509 -12 316 -12 c 0
 124 -12 53 118 42 260 c 1
 520 260 l 1
 521 271 521 283 521 297 c 0
 521 483 429 624 294 624 c 0
 201 624 150 575 97 523 c 1
122 216 m 1
 153 86 225 22 323 22 c 0
 429 22 493 116 511 216 c 1
 122 216 l 1
EndSplineSet
Colour: ff00ff
EndChar

StartChar: uni04D9
Encoding: 1241 1241 115
Width: 447
GlyphClass: 2
Flags: MW
AnchorPoint: "above" 211 645 basechar 0
LayerCount: 2
Fore
SplineSet
304 146 m 1
 123 143 l 2
 112 142.8 108 138 108 129 c 0
 108 45 153 24 191 24 c 0
 215 24 285 33 304 146 c 1
42 335 m 1
 30 336 24 341 21 351 c 1
 61 403 115 438 191 438 c 0
 263 438 310 414 344 374 c 0
 377 336 391 282 391 226 c 0
 391 74 278 -9 191 -9 c 0
 52 -9 22 81 22 165 c 0
 22 176 29 182 41 182 c 2
 307 180 l 1
 307 238 295 284 275 317 c 0
 244 368 202 389 166 389 c 0
 108 389 79 373 42 335 c 1
EndSplineSet
Colour: ff00ff
EndChar

StartChar: uni04DA
Encoding: 1242 1242 116
Width: 644
GlyphClass: 2
Flags: MW
LayerCount: 2
Fore
SplineSet
372 759 m 0
 372 785 394 807 420 807 c 0
 446 807 468 785 468 759 c 0
 468 733 446 711 420 711 c 0
 394 711 372 733 372 759 c 0
183 759 m 0
 183 785 205 807 231 807 c 0
 257 807 279 785 279 759 c 0
 279 733 257 711 231 711 c 0
 205 711 183 733 183 759 c 0
97 523 m 1
 74 547 l 1
 153 621 200 658 310 658 c 0
 525 658 611 485 611 326 c 0
 611 131 509 -12 316 -12 c 0
 124 -12 53 118 42 260 c 1
 520 260 l 1
 521 271 521 283 521 297 c 0
 521 483 429 624 294 624 c 0
 201 624 150 575 97 523 c 1
122 216 m 1
 153 86 225 22 323 22 c 0
 429 22 493 116 511 216 c 1
 122 216 l 1
EndSplineSet
Colour: ff00ff
EndChar

StartChar: uni04DB
Encoding: 1243 1243 117
Width: 447
GlyphClass: 2
Flags: MW
LayerCount: 2
Fore
SplineSet
83 573 m 0
 83 599 104 621 130 621 c 0
 156 621 177 599 177 573 c 0
 177 547 156 526 130 526 c 0
 104 526 83 547 83 573 c 0
252 573 m 0
 252 599 273 621 299 621 c 0
 325 621 346 599 346 573 c 0
 346 547 325 526 299 526 c 0
 273 526 252 547 252 573 c 0
304 146 m 1
 123 143 l 2
 112 142.8 108 138 108 129 c 0
 108 45 153 24 191 24 c 0
 215 24 285 33 304 146 c 1
42 335 m 1
 30 336 24 341 21 351 c 1
 61 403 115 438 191 438 c 0
 263 438 310 414 344 374 c 0
 377 336 391 282 391 226 c 0
 391 74 278 -9 191 -9 c 0
 52 -9 22 81 22 165 c 0
 22 176 29 182 41 182 c 2
 307 180 l 1
 307 238 295 284 275 317 c 0
 244 368 202 389 166 389 c 0
 108 389 79 373 42 335 c 1
EndSplineSet
Colour: ff00ff
EndChar

StartChar: uni04E0
Encoding: 1248 1248 118
Width: 608
GlyphClass: 2
Flags: MW
LayerCount: 2
Fore
SplineSet
167 645 m 2
 522 645 l 2
 543 645 550 639 550 631 c 0
 550 621 544 605 535 590 c 2
 367 288 l 1
 501 261 564 162 564 51 c 0
 564 -88 432 -211 272 -211 c 0
 192 -211 42 -176 42 -110 c 0
 42 -87 52 -60 86 -60 c 0
 113 -60 141 -74 154 -95 c 0
 186 -144 236 -174 291 -174 c 0
 378 -174 475 -53 475 42 c 0
 475 201 360 255 291 255 c 0
 275 255 264 255 250 252 c 1
 446 605 l 1
 197 605 l 1
 123 604 94 521 90 477 c 1
 64 479 l 1
 85 667 l 1
 108 662 143 645 167 645 c 2
EndSplineSet
Colour: ff00ff
EndChar

StartChar: uni04E1
Encoding: 1249 1249 119
Width: 416
GlyphClass: 2
Flags: MW
LayerCount: 2
Fore
SplineSet
127 107 m 1
 295 395 l 1
 150 395 l 2
 120 395 86 374 66 301 c 1
 40 304 l 1
 48 353 54 397 55 442 c 1
 80 442 l 1
 82 436 91 429 106 429 c 2
 309 429 l 2
 338 429 374 435 376 435 c 0
 383 435 389 433 389 429 c 0
 389 425 383 414 367 387 c 2
 216 137 l 1
 312 137 393 84 393 -22 c 0
 393 -141 308 -235 185 -235 c 0
 100 -235 42 -174 42 -142 c 0
 42 -124 52 -106 74 -106 c 0
 97 -106 110 -116 118 -140 c 0
 126 -162 153 -200 193 -200 c 0
 243 -200 312 -146 312 -38 c 0
 312 63 281 103 203 103 c 0
 192 103 162 96 144 92 c 1
 127 107 l 1
EndSplineSet
Colour: ff00ff
EndChar

StartChar: uni04E6
Encoding: 1254 1254 120
Width: 702
GlyphClass: 2
Flags: MW
LayerCount: 2
Fore
SplineSet
393 759 m 0
 393 785 415 807 441 807 c 0
 467 807 489 785 489 759 c 0
 489 733 467 711 441 711 c 0
 415 711 393 733 393 759 c 0
204 759 m 0
 204 785 226 807 252 807 c 0
 278 807 300 785 300 759 c 0
 300 733 278 711 252 711 c 0
 226 711 204 733 204 759 c 0
331 622 m 0
 232 622 133 537 133 327 c 0
 133 135 248 26 370 26 c 0
 484 26 570 131 570 310 c 0
 570 512 463 622 331 622 c 0
666 329 m 0
 666 245 644 172.7 604.2 116 c 0
 549.3 37.7 460.8 -10 350 -10 c 0
 180 -10 37 113 37 310 c 0
 37 503.9 150.3 658 344 658 c 0
 523 658 666 536 666 329 c 0
EndSplineSet
Colour: ff00ff
EndChar

StartChar: uni04E7
Encoding: 1255 1255 121
Width: 504
GlyphClass: 2
Flags: MW
LayerCount: 2
Fore
SplineSet
121 575 m 0
 121 601 142 623 168 623 c 0
 194 623 215 601 215 575 c 0
 215 549 194 528 168 528 c 0
 142 528 121 549 121 575 c 0
290 575 m 0
 290 601 311 623 337 623 c 0
 363 623 384 601 384 575 c 0
 384 549 363 528 337 528 c 0
 311 528 290 549 290 575 c 0
41 205 m 0
 41 268.2 60 326.4 96.3 369 c 0
 132.9 412 187.2 439 253 439 c 0
 406 439 463 318 463 214 c 0
 463 152.7 442.7 89.8 397.9 46 c 0
 363.8 12.7 315.4 -10 251 -10 c 0
 109 -10 41 103 41 205 c 0
238 404 m 0
 148 404 127 315 127 228 c 0
 127 151 161 25 265 25 c 0
 312 25 377 56 377 182 c 0
 377 326 324 404 238 404 c 0
EndSplineSet
Colour: ff00ff
EndChar

StartChar: uni04E8
Encoding: 1256 1256 122
Width: 702
GlyphClass: 2
Flags: MW
LayerCount: 2
Fore
SplineSet
331 622 m 0
 232 622 133 537 133 327 c 2
 133 326.8 l 1
 172.3 356.4 231.7 370 268 370 c 0
 366 370 396 323 459 323 c 0
 490.2 323 535.5 335.1 567.9 357.7 c 1
 552.3 529.3 452.2 622 331 622 c 0
666 329 m 0
 666 245 644 172.7 604.2 116 c 0
 549.3 37.7 460.8 -10 350 -10 c 0
 180 -10 37 113 37 310 c 0
 37 503.9 150.3 658 344 658 c 0
 523 658 666 536 666 329 c 0
570 315.3 m 1
 528.2 277.3 478.6 266 441 266 c 0
 349 266 325 312 250 312 c 0
 221.3 312 169.7 307.2 134.9 285.4 c 1
 150.2 119.4 257.1 26 370 26 c 0
 484 26 570 131 570 310 c 0
 570 311.8 570 313.5 570 315.3 c 1
EndSplineSet
Colour: ff00ff
EndChar

StartChar: uni04E9
Encoding: 1257 1257 123
Width: 504
GlyphClass: 2
Flags: MW
AnchorPoint: "below" 246 -107 basechar 0
AnchorPoint: "above" 236 645 basechar 0
LayerCount: 2
Fore
SplineSet
41 205 m 0
 41 268.2 60 326.4 96.3 369 c 0
 132.9 412 187.2 439 253 439 c 0
 406 439 463 318 463 214 c 0
 463 152.7 442.7 89.8 397.9 46 c 0
 363.8 12.7 315.4 -10 251 -10 c 0
 109 -10 41 103 41 205 c 0
238 404 m 0
 148 404 127 315 127 228 c 0
 127 227.4 127 226.7 127 226.1 c 1
 148.4 237.9 191.8 249 223 249 c 0
 268 249 290 229 328 229 c 0
 344.3 229 360.5 233.4 373.9 238.5 c 1
 361.5 346.3 312 404 238 404 c 0
376.3 210.2 m 1
 353.5 196.6 317.1 179 284 179 c 0
 241 179 207 207 172 207 c 0
 162.3 207 140.1 202.4 128.3 200.7 c 1
 135.4 124.5 172.6 25 265 25 c 0
 312 25 377 56 377 182 c 0
 377 191.7 376.8 201.1 376.3 210.2 c 1
EndSplineSet
Colour: ff9ccc
EndChar

StartChar: uni04EA
Encoding: 1258 1258 124
Width: 702
GlyphClass: 2
Flags: MW
LayerCount: 2
Fore
SplineSet
390 761 m 0
 390 787 412 809 438 809 c 0
 464 809 486 787 486 761 c 0
 486 735 464 713 438 713 c 0
 412 713 390 735 390 761 c 0
201 761 m 0
 201 787 223 809 249 809 c 0
 275 809 297 787 297 761 c 0
 297 735 275 713 249 713 c 0
 223 713 201 735 201 761 c 0
331 622 m 0
 232 622 133 537 133 327 c 2
 133 326.8 l 1
 172.3 356.4 231.7 370 268 370 c 0
 366 370 396 323 459 323 c 0
 490.2 323 535.5 335.1 567.9 357.7 c 1
 552.3 529.3 452.2 622 331 622 c 0
666 329 m 0
 666 245 644 172.7 604.2 116 c 0
 549.3 37.7 460.8 -10 350 -10 c 0
 180 -10 37 113 37 310 c 0
 37 503.9 150.3 658 344 658 c 0
 523 658 666 536 666 329 c 0
570 315.3 m 1
 528.2 277.3 478.6 266 441 266 c 0
 349 266 325 312 250 312 c 0
 221.3 312 169.7 307.2 134.9 285.4 c 1
 150.2 119.4 257.1 26 370 26 c 0
 484 26 570 131 570 310 c 0
 570 311.8 570 313.5 570 315.3 c 1
EndSplineSet
Colour: ff00ff
EndChar

StartChar: uni04EB
Encoding: 1259 1259 125
Width: 504
GlyphClass: 2
Flags: MW
LayerCount: 2
Fore
SplineSet
41 205 m 0
 41 268.2 60 326.4 96.3 369 c 0
 132.9 412 187.2 439 253 439 c 0
 406 439 463 318 463 214 c 0
 463 152.7 442.7 89.8 397.9 46 c 0
 363.8 12.7 315.4 -10 251 -10 c 0
 109 -10 41 103 41 205 c 0
238 404 m 0
 148 404 127 315 127 228 c 0
 127 227.4 127 226.7 127 226.1 c 1
 148.4 237.9 191.8 249 223 249 c 0
 268 249 290 229 328 229 c 0
 344.3 229 360.5 233.4 373.9 238.5 c 1
 361.5 346.3 312 404 238 404 c 0
116 573 m 0
 116 599 137 621 163 621 c 0
 189 621 210 599 210 573 c 0
 210 547 189 526 163 526 c 0
 137 526 116 547 116 573 c 0
285 573 m 0
 285 599 306 621 332 621 c 0
 358 621 379 599 379 573 c 0
 379 547 358 526 332 526 c 0
 306 526 285 547 285 573 c 0
376.3 210.2 m 1
 353.5 196.6 317.1 179 284 179 c 0
 241 179 207 207 172 207 c 0
 162.3 207 140.1 202.4 128.3 200.7 c 1
 135.4 124.5 172.6 25 265 25 c 0
 312 25 377 56 377 182 c 0
 377 191.7 376.8 201.1 376.3 210.2 c 1
EndSplineSet
Colour: ff00ff
EndChar

StartChar: uni04EF
Encoding: 1263 1263 126
Width: 515
GlyphClass: 2
Flags: MW
LayerCount: 2
Fore
SplineSet
204 -160 m 0
 168 -224 128 -232 107 -232 c 0
 80 -232 60 -216 60 -195 c 0
 60 -182 75 -152 104 -152 c 0
 115 -152 119 -155 133 -155 c 0
 158 -155 172 -146 183 -126 c 1
 198 -95 210.1 -67.4 222 -34 c 0
 232 -6 216.7 39.9 208 60 c 2
 94.9 323 l 2
 68.7 384 55.7 393 16 398 c 1
 10 404 10 425 16 431 c 1
 36 430 63 429 97 429 c 0
 133 429 173 430 210 431 c 1
 216 425 216 404 210 398 c 1
 154 393.7 159.2 375.2 177.2 333 c 2
 265.9 125 l 2
 274.4 105.2 282.8 107.9 289.8 124 c 2
 389 353 l 2
 405 389 372.6 395 341 398 c 1
 335 404 335 425 341 431 c 1
 371 430 402 429 432 429 c 0
 460 429 483 430 503 431 c 1
 509 425 509 404 503 398 c 1
 456 392.3 441.7 376.3 422 334 c 0
 369.8 221.6 325 119 245 -74 c 0
 232.7 -103.6 219.6 -132.2 204 -160 c 0
375 518 m 2
 151 518 l 2
 142 518 138 529 138 536 c 0
 138 548 149 568 160 568 c 2
 385 568 l 2
 395 568 399 557 399 551 c 0
 399 539 388 518 375 518 c 2
EndSplineSet
Colour: ff00ff
EndChar

StartChar: uni04F1
Encoding: 1265 1265 127
Width: 515
GlyphClass: 2
Flags: MW
LayerCount: 2
Fore
SplineSet
204 -160 m 0
 168 -224 128 -232 107 -232 c 0
 80 -232 60 -216 60 -195 c 0
 60 -182 75 -152 104 -152 c 0
 115 -152 119 -155 133 -155 c 0
 158 -155 172 -146 183 -126 c 1
 198 -95 210.1 -67.4 222 -34 c 0
 232 -6 216.7 39.9 208 60 c 2
 94.9 323 l 2
 68.7 384 55.7 393 16 398 c 1
 10 404 10 425 16 431 c 1
 36 430 63 429 97 429 c 0
 133 429 173 430 210 431 c 1
 216 425 216 404 210 398 c 1
 154 393.7 159.2 375.2 177.2 333 c 2
 265.9 125 l 2
 274.4 105.2 282.8 107.9 289.8 124 c 2
 389 353 l 2
 405 389 372.6 395 341 398 c 1
 335 404 335 425 341 431 c 1
 371 430 402 429 432 429 c 0
 460 429 483 430 503 431 c 1
 509 425 509 404 503 398 c 1
 456 392.3 441.7 376.3 422 334 c 0
 369.8 221.6 325 119 245 -74 c 0
 232.7 -103.6 219.6 -132.2 204 -160 c 0
149 573 m 0
 149 599 170 621 196 621 c 0
 222 621 243 599 243 573 c 0
 243 547 222 526 196 526 c 0
 170 526 149 547 149 573 c 0
318 573 m 0
 318 599 339 621 365 621 c 0
 391 621 412 599 412 573 c 0
 412 547 391 526 365 526 c 0
 339 526 318 547 318 573 c 0
EndSplineSet
Colour: ff00ff
EndChar

StartChar: uni04F3
Encoding: 1267 1267 128
Width: 515
GlyphClass: 2
Flags: MW
LayerCount: 2
Fore
SplineSet
204 -160 m 0
 168 -224 128 -232 107 -232 c 0
 80 -232 60 -216 60 -195 c 0
 60 -182 75 -152 104 -152 c 0
 115 -152 119 -155 133 -155 c 0
 158 -155 172 -146 183 -126 c 1
 198 -95 210.1 -67.4 222 -34 c 0
 232 -6 216.7 39.9 208 60 c 2
 94.9 323 l 2
 68.7 384 55.7 393 16 398 c 1
 10 404 10 425 16 431 c 1
 36 430 63 429 97 429 c 0
 133 429 173 430 210 431 c 1
 216 425 216 404 210 398 c 1
 154 393.7 159.2 375.2 177.2 333 c 2
 265.9 125 l 2
 274.4 105.2 282.8 107.9 289.8 124 c 2
 389 353 l 2
 405 389 372.6 395 341 398 c 1
 335 404 335 425 341 431 c 1
 371 430 402 429 432 429 c 0
 460 429 483 430 503 431 c 1
 509 425 509 404 503 398 c 1
 456 392.3 441.7 376.3 422 334 c 0
 369.8 221.6 325 119 245 -74 c 0
 232.7 -103.6 219.6 -132.2 204 -160 c 0
462 615 m 0
 462 609 461 602 455 596 c 2
 341 486 l 2
 339 484 337 484 335 484 c 0
 330 484 321 489 321 497 c 0
 321 498 321 500 322 501 c 2
 400 640 l 2
 405 649 412 652 424 652 c 0
 445 652 462 633.6 462 615 c 0
330 621 m 0
 330 616 329 610 325 605 c 2
 223 484 l 2
 221 482 218 481 215 481 c 0
 209 481 201 486 201 494 c 0
 201 495 201 496 202 497 c 2
 266 643 l 2
 272 656 288 657 292 657 c 0
 312.9 657 330 641.5 330 621 c 0
EndSplineSet
Colour: ff00ff
EndChar

StartChar: uni1E00
Encoding: 7680 7680 129
Width: 695
GlyphClass: 2
Flags: MW
LayerCount: 2
Fore
SplineSet
336 -79 m 0
 305 -79 288 -102 288 -132 c 0
 288 -160 305 -185 336 -185 c 0
 367 -185 384 -160 384 -132 c 0
 384 -101 366 -79 336 -79 c 0
248 -132 m 0
 248 -86 290 -47 336 -47 c 0
 382 -47 424 -85 424 -132 c 0
 424 -177 384 -217 336 -217 c 0
 290 -217 248 -178 248 -132 c 0
263 283 m 2
 440 283 l 1
 346 555 l 1
 340 555 l 1
 237.8 296.3 l 2
 234 286 241 283 263 283 c 2
155 79 m 2
 139.4 37.9 186.4 33.6 224 31 c 1
 230 25 230 4 224 -2 c 1
 187 -1 137 0 96 0 c 0
 65.7 0 33 -1 7 -2 c 1
 1 4 1 25 7 31 c 1
 50.5 34 81 40 107 102 c 2
 334 638 l 1
 347 638 374 649 389 658 c 1
 595 86 l 2
 612.4 37.8 646.2 34.5 685 31 c 1
 691 25 691 4 685 -2 c 1
 650 -1 612 0 571 0 c 0
 532 0 477 -1 440 -2 c 1
 434 4 434 25 440 31 c 1
 487.6 34.4 525.8 37.5 514 72 c 2
 456 241 l 1
 245 241 l 2
 221 241 215 237 210 224 c 2
 155 79 l 2
EndSplineSet
Colour: ff00ff
EndChar

StartChar: uni1E01
Encoding: 7681 7681 130
Width: 457
GlyphClass: 2
Flags: MW
LayerCount: 2
Fore
SplineSet
224 -80 m 0
 193 -80 176 -103 176 -133 c 0
 176 -161 193 -186 224 -186 c 0
 255 -186 272 -161 272 -133 c 0
 272 -102 254 -80 224 -80 c 0
136 -133 m 0
 136 -87 178 -48 224 -48 c 0
 270 -48 312 -86 312 -133 c 0
 312 -178 272 -218 224 -218 c 0
 178 -218 136 -179 136 -133 c 0
293 233 m 1
 214 212 l 2
 140 193 119 147 119 102 c 0
 119 71 141 31 191 31 c 0
 219 31 253 54 279 75 c 0
 287 81 293 88 293 101 c 2
 293 233 l 1
293 48 m 1
 291 48 l 1
 271 32 l 2
 227 -2 196.8 -10 162 -10 c 0
 92 -10 36 16 36 98 c 0
 36 166 105 219 201 243 c 2
 287 264 l 2
 290 265 293 269 293 276 c 0
 293 389 246 406 212 406 c 0
 174 406 132 395 132 364 c 0
 132 353 133 347 134 344 c 0
 136 340 137 333 137 326 c 0
 137 313 119 292 90 292 c 0
 67 292 55 304 55 328 c 0
 55 385 138 439 220 439 c 0
 293 439 371 412 371 270 c 2
 371 123 l 2
 371 77 372 38 401 38 c 0
 413.7 38 430.5 47.8 438 54 c 1
 449.3 47.7 453.3 39.3 455 27 c 1
 434.3 7 398.3 -10 360 -10 c 0
 309.6 -10 299 17 293 48 c 1
EndSplineSet
Colour: ff00ff
EndChar

StartChar: uni1E02
Encoding: 7682 7682 131
Width: 588
GlyphClass: 2
Flags: MW
LayerCount: 2
Fore
SplineSet
224 754 m 0
 224 782 248 806 276 806 c 0
 304 806 328 782 328 754 c 0
 328 726 304 702 276 702 c 0
 248 702 224 726 224 754 c 0
191 550 m 2
 191 366 l 1
 265 366 l 2
 348 366 407 396 407 481 c 0
 407 583 334 613 278 613 c 0
 191 613 191 603 191 550 c 2
191 332 m 1
 191 118 l 2
 191 57 204 31 274 31 c 0
 426 31 454 92 454 165 c 0
 454 255 397 332 260 332 c 2
 191 332 l 1
148 645 m 0
 184 645 238 647 273 647 c 0
 459 647 488 560 488 493 c 0
 488 438.7 443.1 387.4 393 362 c 1
 393 360 l 1
 480 335 547 280 547 184 c 0
 547 98 494 -2 295 -2 c 0
 211 -2 184.7 0 149 0 c 0
 111.9 0 58 -1 19 -2 c 1
 13 4 13 25 19 31 c 1
 89 34 106 39 106 122 c 2
 106 523 l 2
 106 606 89 611 19 614 c 1
 13 620 13 641 19 647 c 1
 58 646 112.3 645 148 645 c 0
EndSplineSet
Colour: ff00ff
EndChar

StartChar: uni1E03
Encoding: 7683 7683 132
Width: 493
GlyphClass: 2
Flags: MW
LayerCount: 2
Fore
SplineSet
218 599 m 0
 218 623 246 647 270 647 c 0
 297 647 318 619 318 595 c 0
 318 573.9 294 547 266 547 c 0
 242 547 218 573 218 599 c 0
174 363 m 0
 161.1 351.6 157 342 157 321 c 2
 157 71 l 1
 177 46 198 24 229 24 c 0
 324 24 370 110 370 224 c 0
 370 321 320 395 259 395 c 0
 230 395 200 386 174 363 c 0
167 394 m 0
 198 422 236.1 439 279 439 c 0
 366 439 456 364 456 242 c 0
 456 83 337 -10 235 -10 c 0
 199.7 -10 169.9 -4.5 147 14.8 c 0
 136 24 130 24 119.7 12 c 0
 112 3.1 102.1 -6.2 96 -12 c 1
 84 -12 79 -8 74 0 c 1
 77 14 78 32 78 71 c 2
 78 559 l 2
 78 643 66 638 14 641 c 1
 8 647 6 663 8 671 c 1
 48 674 123 688 148 698 c 1
 157 698 161 695 161 688 c 2
 161 688 157 648 157 583 c 2
 157 399 l 2
 157 390 160.7 388.3 167 394 c 0
EndSplineSet
Colour: ff00ff
EndChar

StartChar: uni1E04
Encoding: 7684 7684 133
Width: 588
GlyphClass: 2
Flags: MW
LayerCount: 2
Fore
SplineSet
220 -156 m 0
 220 -132 248 -108 272 -108 c 0
 299 -108 320 -136 320 -160 c 0
 320 -181.1 296 -208 268 -208 c 0
 244 -208 220 -182 220 -156 c 0
191 550 m 2
 191 366 l 1
 265 366 l 2
 348 366 407 396 407 481 c 0
 407 583 334 613 278 613 c 0
 191 613 191 603 191 550 c 2
191 332 m 1
 191 118 l 2
 191 57 204 31 274 31 c 0
 426 31 454 92 454 165 c 0
 454 255 397 332 260 332 c 2
 191 332 l 1
148 645 m 0
 184 645 238 647 273 647 c 0
 459 647 488 560 488 493 c 0
 488 438.7 443.1 387.4 393 362 c 1
 393 360 l 1
 480 335 547 280 547 184 c 0
 547 98 494 -2 295 -2 c 0
 211 -2 184.7 0 149 0 c 0
 111.9 0 58 -1 19 -2 c 1
 13 4 13 25 19 31 c 1
 89 34 106 39 106 122 c 2
 106 523 l 2
 106 606 89 611 19 614 c 1
 13 620 13 641 19 647 c 1
 58 646 112.3 645 148 645 c 0
EndSplineSet
Colour: ff00ff
EndChar

StartChar: uni1E05
Encoding: 7685 7685 134
Width: 493
GlyphClass: 2
Flags: MW
LayerCount: 2
Fore
SplineSet
175 -156 m 0
 175 -132 203 -108 227 -108 c 0
 254 -108 275 -136 275 -160 c 0
 275 -181.1 251 -208 223 -208 c 0
 199 -208 175 -182 175 -156 c 0
174 363 m 0
 161.1 351.6 157 342 157 321 c 2
 157 71 l 1
 177 46 198 24 229 24 c 0
 324 24 370 110 370 224 c 0
 370 321 320 395 259 395 c 0
 230 395 200 386 174 363 c 0
167 394 m 0
 198 422 236.1 439 279 439 c 0
 366 439 456 364 456 242 c 0
 456 83 337 -10 235 -10 c 0
 199.7 -10 169.9 -4.5 147 14.8 c 0
 136 24 130 24 119.7 12 c 0
 112 3.1 102.1 -6.2 96 -12 c 1
 84 -12 79 -8 74 0 c 1
 77 14 78 32 78 71 c 2
 78 559 l 2
 78 643 66 638 14 641 c 1
 8 647 6 663 8 671 c 1
 48 674 123 688 148 698 c 1
 157 698 161 695 161 688 c 2
 161 688 157 648 157 583 c 2
 157 399 l 2
 157 390 160.7 388.3 167 394 c 0
EndSplineSet
Colour: ff00ff
EndChar

StartChar: uni1E06
Encoding: 7686 7686 135
Width: 588
GlyphClass: 2
Flags: MW
LayerCount: 2
Fore
SplineSet
373 -131 m 2
 168 -131 l 2
 160 -131 156 -123 156 -116 c 0
 156 -104 166 -87 178 -87 c 2
 383 -87 l 2
 392 -87 396 -94 396 -101 c 0
 396 -113 386 -131 373 -131 c 2
191 550 m 2
 191 366 l 1
 265 366 l 2
 348 366 407 396 407 481 c 0
 407 583 334 613 278 613 c 0
 191 613 191 603 191 550 c 2
191 332 m 1
 191 118 l 2
 191 57 204 31 274 31 c 0
 426 31 454 92 454 165 c 0
 454 255 397 332 260 332 c 2
 191 332 l 1
148 645 m 0
 184 645 238 647 273 647 c 0
 459 647 488 560 488 493 c 0
 488 438.7 443.1 387.4 393 362 c 1
 393 360 l 1
 480 335 547 280 547 184 c 0
 547 98 494 -2 295 -2 c 0
 211 -2 184.7 0 149 0 c 0
 111.9 0 58 -1 19 -2 c 1
 13 4 13 25 19 31 c 1
 89 34 106 39 106 122 c 2
 106 523 l 2
 106 606 89 611 19 614 c 1
 13 620 13 641 19 647 c 1
 58 646 112.3 645 148 645 c 0
EndSplineSet
Colour: ff00ff
EndChar

StartChar: uni1E07
Encoding: 7687 7687 136
Width: 493
GlyphClass: 2
Flags: MW
LayerCount: 2
Fore
SplineSet
343 -131 m 2
 138 -131 l 2
 130 -131 126 -123 126 -116 c 0
 126 -104 136 -87 148 -87 c 2
 353 -87 l 2
 362 -87 366 -94 366 -101 c 0
 366 -113 356 -131 343 -131 c 2
174 363 m 0
 161.1 351.6 157 342 157 321 c 2
 157 71 l 1
 177 46 198 24 229 24 c 0
 324 24 370 110 370 224 c 0
 370 321 320 395 259 395 c 0
 230 395 200 386 174 363 c 0
167 394 m 0
 198 422 236.1 439 279 439 c 0
 366 439 456 364 456 242 c 0
 456 83 337 -10 235 -10 c 0
 199.7 -10 169.9 -4.5 147 14.8 c 0
 136 24 130 24 119.7 12 c 0
 112 3.1 102.1 -6.2 96 -12 c 1
 84 -12 79 -8 74 0 c 1
 77 14 78 32 78 71 c 2
 78 559 l 2
 78 643 66 638 14 641 c 1
 8 647 6 663 8 671 c 1
 48 674 123 688 148 698 c 1
 157 698 161 695 161 688 c 2
 161 688 157 648 157 583 c 2
 157 399 l 2
 157 390 160.7 388.3 167 394 c 0
EndSplineSet
Colour: ff00ff
EndChar

StartChar: uni1E08
Encoding: 7688 7688 137
Width: 646
GlyphClass: 2
Flags: MW
LayerCount: 2
Fore
SplineSet
408 819 m 1
 436.6 805.7 457.3 788.3 470 767 c 1
 326 709 l 2
 305 700 293 697 284 697 c 0
 275 697 269 704 269 712 c 0
 269 719 271 724 284 733 c 2
 408 819 l 1
367 -96 m 0
 348 -96 338 -97 322 -102 c 1
 316 -96 l 1
 351.8 -10 l 1
 140.3 -7.7 37 137.6 37 310 c 0
 37 414.3 76.6 512.2 143 573 c 0
 202 627 273 658 358 658 c 0
 481 658 526 618 577 613 c 1
 587 558 594 510 599 458 c 1
 587.7 452 578 449 566 453 c 1
 540 539 485 621 347 621 c 0
 295 621 237 593 187.4 532 c 0
 150.9 487.1 128 415.3 128 329 c 0
 128 183 221.4 31 356 31 c 0
 449 31 517 62 588 140 c 1
 599 140 606 134 611 125 c 1
 550 45.2 472.2 0 386.8 -8.5 c 1
 365 -67 l 1
 373 -65 382 -64 391 -64 c 0
 431 -64 462 -88 462 -126 c 0
 462 -169 416 -200 355 -200 c 0
 323 -200 306 -194 281 -183 c 1
 281 -171 284 -164 291 -157 c 1
 318 -167 329 -171 349 -171 c 0
 379 -171 400 -157 400 -131 c 0
 400 -110 390 -96 367 -96 c 0
EndSplineSet
Colour: ff00ff
EndChar

StartChar: uni1E09
Encoding: 7689 7689 138
Width: 428
GlyphClass: 2
Flags: MW
LayerCount: 2
Fore
SplineSet
286 671 m 1
 289 672 295 673 300 673 c 0
 306.4 673 332 672 355 650 c 1
 358 639 l 1
 243 530 l 2
 228 515 220 511 213 511 c 0
 206 511 199 517 199 524 c 0
 199 535.2 202.3 539.2 210.4 552 c 2
 286 671 l 1
228 -96 m 0
 209 -96 199 -97 183 -102 c 1
 177 -96 l 1
 213.2 -9.1 l 1
 100.7 0.599999 37 86.6 37 208 c 0
 37 350 143 439 242 439 c 0
 338 439 395 399 395 344 c 0
 395 313 367 300 346 300 c 0
 325 300 311 309 308 336 c 0
 304 371 296 406 237 406 c 0
 171 406 123 340 123 230 c 0
 123 113 184 39 257 39 c 0
 300 39 343 61 377 105 c 1
 386 104 394 100 398 91 c 1
 351.5 14.7 302.4 -7.1 247.4 -9.7 c 1
 226 -67 l 1
 234 -65 243 -64 252 -64 c 0
 292 -64 323 -88 323 -126 c 0
 323 -169 277 -200 216 -200 c 0
 184 -200 167 -194 142 -183 c 1
 142 -171 145 -164 152 -157 c 1
 179 -167 190 -171 210 -171 c 0
 240 -171 261 -157 261 -131 c 0
 261 -110 251 -96 228 -96 c 0
EndSplineSet
Colour: ff00ff
EndChar

StartChar: uni1E0A
Encoding: 7690 7690 139
Width: 701
GlyphClass: 2
Flags: MW
LayerCount: 2
Fore
SplineSet
244 754 m 0
 244 782 268 806 296 806 c 0
 324 806 348 782 348 754 c 0
 348 726 324 702 296 702 c 0
 268 702 244 726 244 754 c 0
191 84 m 2
 191 52 202 32 300 32 c 0
 441 32 562 82 562 284 c 0
 562 438 491 613 275 613 c 0
 226 613 191 599 191 564 c 2
 191 84 l 2
148 645 m 0
 187 645 242 647 313 647 c 0
 505 647 658 494 658 308 c 0
 658 62 472 -2 331 -2 c 0
 228 -2 186 0 149 0 c 0
 111.3 0 58 -1 19 -2 c 1
 13 4 13 25 19 31 c 1
 89 34 106 39 106 122 c 2
 106 523 l 2
 106 606 89 611 19 614 c 1
 13 620 13 641 19 647 c 1
 59 646 112.3 645 148 645 c 0
EndSplineSet
Colour: ff00ff
EndChar

StartChar: uni1E0B
Encoding: 7691 7691 140
Width: 506
GlyphClass: 2
Flags: MW
LayerCount: 2
Fore
SplineSet
128 599 m 0
 128 623 156 647 180 647 c 0
 207 647 228 619 228 595 c 0
 228 573.9 204 547 176 547 c 0
 152 547 128 573 128 599 c 0
345 124 m 2
 345 314 l 2
 345 345 342 352 328 368 c 0
 308 391 283 404 247 404 c 0
 227 404 185 401 154 354 c 0
 139 333 125 293 125 221 c 0
 125 96 181 37 235 37 c 0
 260 37 292 53 329 85 c 0
 343.1 97.2 345 105 345 124 c 2
334 50.3 m 0
 285 10 248 -10 209 -10 c 0
 101 -10 39 80 39 203 c 0
 39 277 65 336 108 379 c 1
 148 417 192 439 258 439 c 0
 291 439 332 422 336 422 c 0
 343 422 345 424 345 431 c 2
 345 559 l 2
 345 643 333 638 281 641 c 1
 275 647 273 663 275 671 c 1
 315 674 390 688 415 698 c 1
 424 698 428 695 428 688 c 2
 428 688 424 648 424 583 c 2
 424 130 l 2
 424 81 433 62 497 57 c 1
 503 51 503 36 497 30 c 1
 436 23 401 8 379 -10 c 1
 373 -12.5 368 -13 360 -10 c 1
 360 -10 351.5 24.5 349 49 c 0
 348.3 56 338.8 54.2 334 50.3 c 0
EndSplineSet
Colour: ff00ff
EndChar

StartChar: uni1E0C
Encoding: 7692 7692 141
Width: 701
GlyphClass: 2
Flags: MW
LayerCount: 2
Fore
SplineSet
240 -156 m 0
 240 -132 268 -108 292 -108 c 0
 319 -108 340 -136 340 -160 c 0
 340 -181.1 316 -208 288 -208 c 0
 264 -208 240 -182 240 -156 c 0
191 84 m 2
 191 52 202 32 300 32 c 0
 441 32 562 82 562 284 c 0
 562 438 491 613 275 613 c 0
 226 613 191 599 191 564 c 2
 191 84 l 2
148 645 m 0
 187 645 242 647 313 647 c 0
 505 647 658 494 658 308 c 0
 658 62 472 -2 331 -2 c 0
 228 -2 186 0 149 0 c 0
 111.3 0 58 -1 19 -2 c 1
 13 4 13 25 19 31 c 1
 89 34 106 39 106 122 c 2
 106 523 l 2
 106 606 89 611 19 614 c 1
 13 620 13 641 19 647 c 1
 59 646 112.3 645 148 645 c 0
EndSplineSet
Colour: ff00ff
EndChar

StartChar: uni1E0D
Encoding: 7693 7693 142
Width: 506
GlyphClass: 2
Flags: MW
LayerCount: 2
Fore
SplineSet
185 -156 m 0
 185 -132 213 -108 237 -108 c 0
 264 -108 285 -136 285 -160 c 0
 285 -181.1 261 -208 233 -208 c 0
 209 -208 185 -182 185 -156 c 0
345 124 m 2
 345 314 l 2
 345 345 342 352 328 368 c 0
 308 391 283 404 247 404 c 0
 227 404 185 401 154 354 c 0
 139 333 125 293 125 221 c 0
 125 96 181 37 235 37 c 0
 260 37 292 53 329 85 c 0
 343.1 97.2 345 105 345 124 c 2
334 50.3 m 0
 285 10 248 -10 209 -10 c 0
 101 -10 39 80 39 203 c 0
 39 277 65 336 108 379 c 1
 148 417 192 439 258 439 c 0
 291 439 332 422 336 422 c 0
 343 422 345 424 345 431 c 2
 345 559 l 2
 345 643 333 638 281 641 c 1
 275 647 273 663 275 671 c 1
 315 674 390 688 415 698 c 1
 424 698 428 695 428 688 c 2
 428 688 424 648 424 583 c 2
 424 130 l 2
 424 81 433 62 497 57 c 1
 503 51 503 36 497 30 c 1
 436 23 401 8 379 -10 c 1
 373 -12.5 368 -13 360 -10 c 1
 360 -10 351.5 24.5 349 49 c 0
 348.3 56 338.8 54.2 334 50.3 c 0
EndSplineSet
Colour: ff00ff
EndChar

StartChar: uni1E0E
Encoding: 7694 7694 143
Width: 701
GlyphClass: 2
Flags: MW
LayerCount: 2
Fore
SplineSet
380 -131 m 2
 175 -131 l 2
 167 -131 163 -123 163 -116 c 0
 163 -104 173 -87 185 -87 c 2
 390 -87 l 2
 399 -87 403 -94 403 -101 c 0
 403 -113 393 -131 380 -131 c 2
191 84 m 2
 191 52 202 32 300 32 c 0
 441 32 562 82 562 284 c 0
 562 438 491 613 275 613 c 0
 226 613 191 599 191 564 c 2
 191 84 l 2
148 645 m 0
 187 645 242 647 313 647 c 0
 505 647 658 494 658 308 c 0
 658 62 472 -2 331 -2 c 0
 228 -2 186 0 149 0 c 0
 111.3 0 58 -1 19 -2 c 1
 13 4 13 25 19 31 c 1
 89 34 106 39 106 122 c 2
 106 523 l 2
 106 606 89 611 19 614 c 1
 13 620 13 641 19 647 c 1
 59 646 112.3 645 148 645 c 0
EndSplineSet
Colour: ff00ff
EndChar

StartChar: uni1E0F
Encoding: 7695 7695 144
Width: 506
GlyphClass: 2
Flags: MW
LayerCount: 2
Fore
SplineSet
331 -131 m 2
 126 -131 l 2
 118 -131 114 -123 114 -116 c 0
 114 -104 124 -87 136 -87 c 2
 341 -87 l 2
 350 -87 354 -94 354 -101 c 0
 354 -113 344 -131 331 -131 c 2
345 124 m 2
 345 314 l 2
 345 345 342 352 328 368 c 0
 308 391 283 404 247 404 c 0
 227 404 185 401 154 354 c 0
 139 333 125 293 125 221 c 0
 125 96 181 37 235 37 c 0
 260 37 292 53 329 85 c 0
 343.1 97.2 345 105 345 124 c 2
334 50.3 m 0
 285 10 248 -10 209 -10 c 0
 101 -10 39 80 39 203 c 0
 39 277 65 336 108 379 c 1
 148 417 192 439 258 439 c 0
 291 439 332 422 336 422 c 0
 343 422 345 424 345 431 c 2
 345 559 l 2
 345 643 333 638 281 641 c 1
 275 647 273 663 275 671 c 1
 315 674 390 688 415 698 c 1
 424 698 428 695 428 688 c 2
 428 688 424 648 424 583 c 2
 424 130 l 2
 424 81 433 62 497 57 c 1
 503 51 503 36 497 30 c 1
 436 23 401 8 379 -10 c 1
 373 -12.5 368 -13 360 -10 c 1
 360 -10 351.5 24.5 349 49 c 0
 348.3 56 338.8 54.2 334 50.3 c 0
EndSplineSet
Colour: ff00ff
EndChar

StartChar: uni1E10
Encoding: 7696 7696 145
Width: 701
GlyphClass: 2
Flags: MW
LayerCount: 2
Fore
SplineSet
320 -41 m 0
 358 -41 382 -75 382 -127 c 0
 382 -187 333 -217 276 -226 c 1
 270 -220 268 -211 268 -202 c 1
 317 -191 343 -167 343 -149 c 0
 343 -129 330 -125 312 -123 c 1
 295 -120 270 -111 270 -84 c 0
 270 -60 291 -41 320 -41 c 0
191 84 m 2
 191 52 202 32 300 32 c 0
 441 32 562 82 562 284 c 0
 562 438 491 613 275 613 c 0
 226 613 191 599 191 564 c 2
 191 84 l 2
148 645 m 0
 187 645 242 647 313 647 c 0
 505 647 658 494 658 308 c 0
 658 62 472 -2 331 -2 c 0
 228 -2 186 0 149 0 c 0
 111.3 0 58 -1 19 -2 c 1
 13 4 13 25 19 31 c 1
 89 34 106 39 106 122 c 2
 106 523 l 2
 106 606 89 611 19 614 c 1
 13 620 13 641 19 647 c 1
 59 646 112.3 645 148 645 c 0
EndSplineSet
Colour: ff00ff
EndChar

StartChar: uni1E11
Encoding: 7697 7697 146
Width: 506
GlyphClass: 2
Flags: MW
LayerCount: 2
Fore
SplineSet
230 -41 m 0
 268 -41 292 -75 292 -127 c 0
 292 -187 243 -217 186 -226 c 1
 180 -220 178 -211 178 -202 c 1
 227 -191 253 -167 253 -149 c 0
 253 -129 240 -125 222 -123 c 1
 205 -120 180 -111 180 -84 c 0
 180 -60 201 -41 230 -41 c 0
345 124 m 2
 345 314 l 2
 345 345 342 352 328 368 c 0
 308 391 283 404 247 404 c 0
 227 404 185 401 154 354 c 0
 139 333 125 293 125 221 c 0
 125 96 181 37 235 37 c 0
 260 37 292 53 329 85 c 0
 343.1 97.2 345 105 345 124 c 2
334 50.3 m 0
 285 10 248 -10 209 -10 c 0
 101 -10 39 80 39 203 c 0
 39 277 65 336 108 379 c 1
 148 417 192 439 258 439 c 0
 291 439 332 422 336 422 c 0
 343 422 345 424 345 431 c 2
 345 559 l 2
 345 643 333 638 281 641 c 1
 275 647 273 663 275 671 c 1
 315 674 390 688 415 698 c 1
 424 698 428 695 428 688 c 2
 428 688 424 648 424 583 c 2
 424 130 l 2
 424 81 433 62 497 57 c 1
 503 51 503 36 497 30 c 1
 436 23 401 8 379 -10 c 1
 373 -12.5 368 -13 360 -10 c 1
 360 -10 351.5 24.5 349 49 c 0
 348.3 56 338.8 54.2 334 50.3 c 0
EndSplineSet
Colour: ff00ff
EndChar

StartChar: uni1E12
Encoding: 7698 7698 147
Width: 701
GlyphClass: 2
Flags: MW
LayerCount: 2
Fore
SplineSet
283 -43 m 1
 312 -90 356 -143 392 -183 c 1
 387 -190 378.4 -198.1 369 -200 c 1
 331 -176 296 -148 266 -117 c 1
 234 -149 201 -178 162 -200 c 1
 153 -198 146 -192 140 -183 c 1
 176 -143 222 -89 251 -43 c 1
 261.7 -40.7 272.3 -40 283 -43 c 1
191 84 m 2
 191 52 202 32 300 32 c 0
 441 32 562 82 562 284 c 0
 562 438 491 613 275 613 c 0
 226 613 191 599 191 564 c 2
 191 84 l 2
148 645 m 0
 187 645 242 647 313 647 c 0
 505 647 658 494 658 308 c 0
 658 62 472 -2 331 -2 c 0
 228 -2 186 0 149 0 c 0
 111.3 0 58 -1 19 -2 c 1
 13 4 13 25 19 31 c 1
 89 34 106 39 106 122 c 2
 106 523 l 2
 106 606 89 611 19 614 c 1
 13 620 13 641 19 647 c 1
 59 646 112.3 645 148 645 c 0
EndSplineSet
Colour: ff00ff
EndChar

StartChar: uni1E13
Encoding: 7699 7699 148
Width: 506
GlyphClass: 2
Flags: MW
LayerCount: 2
Fore
SplineSet
232 -43 m 1
 261 -90 305 -143 341 -183 c 1
 336 -190 327.4 -198.1 318 -200 c 1
 280 -176 245 -148 215 -117 c 1
 183 -149 150 -178 111 -200 c 1
 102 -198 95 -192 89 -183 c 1
 125 -143 171 -89 200 -43 c 1
 210.7 -40.7 221.3 -40 232 -43 c 1
345 124 m 2
 345 314 l 2
 345 345 342 352 328 368 c 0
 308 391 283 404 247 404 c 0
 227 404 185 401 154 354 c 0
 139 333 125 293 125 221 c 0
 125 96 181 37 235 37 c 0
 260 37 292 53 329 85 c 0
 343.1 97.2 345 105 345 124 c 2
334 50.3 m 0
 285 10 248 -10 209 -10 c 0
 101 -10 39 80 39 203 c 0
 39 277 65 336 108 379 c 1
 148 417 192 439 258 439 c 0
 291 439 332 422 336 422 c 0
 343 422 345 424 345 431 c 2
 345 559 l 2
 345 643 333 638 281 641 c 1
 275 647 273 663 275 671 c 1
 315 674 390 688 415 698 c 1
 424 698 428 695 428 688 c 2
 428 688 424 648 424 583 c 2
 424 130 l 2
 424 81 433 62 497 57 c 1
 503 51 503 36 497 30 c 1
 436 23 401 8 379 -10 c 1
 373 -12.5 368 -13 360 -10 c 1
 360 -10 351.5 24.5 349 49 c 0
 348.3 56 338.8 54.2 334 50.3 c 0
EndSplineSet
Colour: ff00ff
EndChar

StartChar: uni1E14
Encoding: 7700 7700 149
Width: 557
GlyphClass: 2
Flags: MW
LayerCount: 2
Fore
SplineSet
410 713 m 2
 186 713 l 2
 177 713 173 724 173 731 c 0
 173 743 184 763 195 763 c 2
 420 763 l 2
 430 763 434 752 434 746 c 0
 434 734 423 713 410 713 c 2
281 361 m 2
 366 361 369 374 372 429 c 1
 378 435 399 435 405 429 c 1
 404 405 403 371 403 343 c 0
 403 308.7 404 281 405 255 c 1
 399 249 378 249 372 255 c 1
 369 300 366 323 281 323 c 2
 190 323 l 1
 190 102 l 2
 190 55 204 39 246 39 c 2
 362 39 l 2
 438 39 473 98 493 170 c 1
 506.1 173.2 517.6 171 528 165 c 1
 520 114 505 48 491 -2 c 1
 491 -2 411 0 363 0 c 2
 148 0 l 2
 115 0 55 -1 18 -2 c 1
 12 4 12 25 18 31 c 1
 88 34 105 39 105 122 c 2
 105 523 l 2
 105 606 88 611 18 614 c 1
 12 620 12 641 18 647 c 1
 58 646 116.5 645 147 645 c 2
 402 645 l 2
 426 645 434 646 451 649 c 0
 454 649 455 648 455 646 c 0
 457 638 472 542 477 501 c 1
 467.2 496.3 456.4 494.2 444 496 c 1
 422 565 406 605 331 605 c 2
 256 605 l 2
 202 605 190 585 190 541 c 2
 190 361 l 1
 281 361 l 2
20.9 831.1 m 1
 114.1 757.2 l 2
 122.6 750.2 125.6 744.9 125.6 738.7 c 0
 125.6 731.7 120.3 725.5 114.1 725.5 c 0
 107.9 725.5 97.2 728.1 81 736 c 2
 -37.6 791.5 l 1
 -23.5 807.1 -5.4 820.9 20.9 831.1 c 1
EndSplineSet
Colour: ff00ff
EndChar

StartChar: uni1E15
Encoding: 7701 7701 150
Width: 447
GlyphClass: 2
Flags: MW
LayerCount: 2
Fore
SplineSet
212.2 765.2 m 1
 268.2 651.8 l 2
 272.2 642.8 273 636.5 273 630.2 c 0
 273 625.7 267.4 620.3 261 620.3 c 0
 256.2 620.3 250.6 624.8 237.8 638.3 c 2
 146.6 736.4 l 1
 148.2 746.3 l 1
 154.6 751.7 173 767 200.2 767 c 0
 204.2 767 209 766.1 212.2 765.2 c 1
337 518 m 2
 113 518 l 2
 104 518 100 529 100 536 c 0
 100 548 111 568 122 568 c 2
 347 568 l 2
 357 568 361 557 361 551 c 0
 361 539 350 518 337 518 c 2
124 282 m 1
 305 285 l 2
 316 285.2 320 290 320 299 c 0
 320 383 275 404 237 404 c 0
 213 404 143 395 124 282 c 1
386 93 m 1
 398 92 404 87 407 77 c 1
 367 25 313 -10 237 -10 c 0
 165 -10 118 14 84 54 c 0
 51 92 37 146 37 202 c 0
 37 354 150 437 237 437 c 0
 376 437 406 347 406 263 c 0
 406 252 399 246 387 246 c 2
 121 248 l 1
 121 190 133 144 153 111 c 0
 184 60 226 39 262 39 c 0
 320 39 349 55 386 93 c 1
EndSplineSet
Colour: ff00ff
EndChar

StartChar: uni1E16
Encoding: 7702 7702 151
Width: 557
GlyphClass: 2
Flags: MW
LayerCount: 2
Fore
SplineSet
353 713 m 2
 129 713 l 2
 120 713 116 724 116 731 c 0
 116 743 127 763 138 763 c 2
 363 763 l 2
 373 763 377 752 377 746 c 0
 377 734 366 713 353 713 c 2
281 361 m 2
 366 361 369 374 372 429 c 1
 378 435 399 435 405 429 c 1
 404 405 403 371 403 343 c 0
 403 308.7 404 281 405 255 c 1
 399 249 378 249 372 255 c 1
 369 300 366 323 281 323 c 2
 190 323 l 1
 190 102 l 2
 190 55 204 39 246 39 c 2
 362 39 l 2
 438 39 473 98 493 170 c 1
 506.1 173.2 517.6 171 528 165 c 1
 520 114 505 48 491 -2 c 1
 491 -2 411 0 363 0 c 2
 148 0 l 2
 115 0 55 -1 18 -2 c 1
 12 4 12 25 18 31 c 1
 88 34 105 39 105 122 c 2
 105 523 l 2
 105 606 88 611 18 614 c 1
 12 620 12 641 18 647 c 1
 58 646 116.5 645 147 645 c 2
 402 645 l 2
 426 645 434 646 451 649 c 0
 454 649 455 648 455 646 c 0
 457 638 472 542 477 501 c 1
 467.2 496.3 456.4 494.2 444 496 c 1
 422 565 406 605 331 605 c 2
 256 605 l 2
 202 605 190 585 190 541 c 2
 190 361 l 1
 281 361 l 2
535.1 831.9 m 1
 557.2 820.2 573.1 804.9 582.9 786.1 c 1
 472 735 l 2
 455.8 727.1 446.5 724.5 439.6 724.5 c 0
 432.7 724.5 428.1 730.7 428.1 737.7 c 0
 428.1 743.9 429.6 748.3 439.6 756.2 c 2
 535.1 831.9 l 1
EndSplineSet
Colour: ff00ff
EndChar

StartChar: uni1E17
Encoding: 7703 7703 152
Width: 447
GlyphClass: 2
Flags: MW
LayerCount: 2
Fore
SplineSet
264.4 759.2 m 1
 266.8 760.1 271.6 761 275.6 761 c 0
 280.7 761 301.2 760.1 319.6 740.3 c 1
 322 730.4 l 1
 230 632.3 l 2
 218 618.8 211.6 615.2 206 615.2 c 0
 200.4 615.2 194.8 620.6 194.8 626.9 c 0
 194.8 637 197.5 640.6 204 652.1 c 2
 264.4 759.2 l 1
337 518 m 2
 113 518 l 2
 104 518 100 529 100 536 c 0
 100 548 111 568 122 568 c 2
 347 568 l 2
 357 568 361 557 361 551 c 0
 361 539 350 518 337 518 c 2
124 282 m 1
 305 285 l 2
 316 285.2 320 290 320 299 c 0
 320 383 275 404 237 404 c 0
 213 404 143 395 124 282 c 1
386 93 m 1
 398 92 404 87 407 77 c 1
 367 25 313 -10 237 -10 c 0
 165 -10 118 14 84 54 c 0
 51 92 37 146 37 202 c 0
 37 354 150 437 237 437 c 0
 376 437 406 347 406 263 c 0
 406 252 399 246 387 246 c 2
 121 248 l 1
 121 190 133 144 153 111 c 0
 184 60 226 39 262 39 c 0
 320 39 349 55 386 93 c 1
EndSplineSet
Colour: ff00ff
EndChar

StartChar: uni1E18
Encoding: 7704 7704 153
Width: 557
GlyphClass: 2
Flags: MW
LayerCount: 2
Fore
SplineSet
291 -43 m 1
 320 -90 364 -143 400 -183 c 1
 395 -190 386.4 -198.1 377 -200 c 1
 339 -176 304 -148 274 -117 c 1
 242 -149 209 -178 170 -200 c 1
 161 -198 154 -192 148 -183 c 1
 184 -143 230 -89 259 -43 c 1
 269.7 -40.7 280.3 -40 291 -43 c 1
281 361 m 2
 366 361 369 374 372 429 c 1
 378 435 399 435 405 429 c 1
 404 405 403 371 403 343 c 0
 403 308.7 404 281 405 255 c 1
 399 249 378 249 372 255 c 1
 369 300 366 323 281 323 c 2
 190 323 l 1
 190 102 l 2
 190 55 204 39 246 39 c 2
 362 39 l 2
 438 39 473 98 493 170 c 1
 506.1 173.2 517.6 171 528 165 c 1
 520 114 505 48 491 -2 c 1
 491 -2 411 0 363 0 c 2
 148 0 l 2
 115 0 55 -1 18 -2 c 1
 12 4 12 25 18 31 c 1
 88 34 105 39 105 122 c 2
 105 523 l 2
 105 606 88 611 18 614 c 1
 12 620 12 641 18 647 c 1
 58 646 116.5 645 147 645 c 2
 402 645 l 2
 426 645 434 646 451 649 c 0
 454 649 455 648 455 646 c 0
 457 638 472 542 477 501 c 1
 467.2 496.3 456.4 494.2 444 496 c 1
 422 565 406 605 331 605 c 2
 256 605 l 2
 202 605 190 585 190 541 c 2
 190 361 l 1
 281 361 l 2
EndSplineSet
Colour: ff00ff
EndChar

StartChar: uni1E19
Encoding: 7705 7705 154
Width: 447
GlyphClass: 2
Flags: MW
AnchorPoint: "above" 231 645 basechar 0
LayerCount: 2
Fore
SplineSet
238 -43 m 1
 267 -90 311 -143 347 -183 c 1
 342 -190 333.4 -198.1 324 -200 c 1
 286 -176 251 -148 221 -117 c 1
 189 -149 156 -178 117 -200 c 1
 108 -198 101 -192 95 -183 c 1
 131 -143 177 -89 206 -43 c 1
 216.7 -40.7 227.3 -40 238 -43 c 1
124 282 m 1
 305 285 l 2
 316 285.2 320 290 320 299 c 0
 320 383 275 404 237 404 c 0
 213 404 143 395 124 282 c 1
386 93 m 1
 398 92 404 87 407 77 c 1
 367 25 313 -10 237 -10 c 0
 165 -10 118 14 84 54 c 0
 51 92 37 146 37 202 c 0
 37 354 150 437 237 437 c 0
 376 437 406 347 406 263 c 0
 406 252 399 246 387 246 c 2
 121 248 l 1
 121 190 133 144 153 111 c 0
 184 60 226 39 262 39 c 0
 320 39 349 55 386 93 c 1
EndSplineSet
Colour: ff00ff
EndChar

StartChar: uni1E1A
Encoding: 7706 7706 155
Width: 557
GlyphClass: 2
Flags: MW
LayerCount: 2
Fore
SplineSet
336 -117 m 0
 358 -117 369 -107 383 -65 c 1
 394 -64 404 -67 410 -71 c 1
 398 -131 369 -170 323 -170 c 0
 301 -170 280 -152 259 -138 c 0
 241 -127 222 -119 205 -119 c 0
 179 -119 169 -134 159 -167 c 1
 148 -169 138 -168 132 -162 c 1
 146 -103 169 -64 212 -64 c 0
 242 -64 264 -84 284 -98 c 0
 300 -110 317 -117 336 -117 c 0
281 361 m 2
 366 361 369 374 372 429 c 1
 378 435 399 435 405 429 c 1
 404 405 403 371 403 343 c 0
 403 308.7 404 281 405 255 c 1
 399 249 378 249 372 255 c 1
 369 300 366 323 281 323 c 2
 190 323 l 1
 190 102 l 2
 190 55 204 39 246 39 c 2
 362 39 l 2
 438 39 473 98 493 170 c 1
 506.1 173.2 517.6 171 528 165 c 1
 520 114 505 48 491 -2 c 1
 491 -2 411 0 363 0 c 2
 148 0 l 2
 115 0 55 -1 18 -2 c 1
 12 4 12 25 18 31 c 1
 88 34 105 39 105 122 c 2
 105 523 l 2
 105 606 88 611 18 614 c 1
 12 620 12 641 18 647 c 1
 58 646 116.5 645 147 645 c 2
 402 645 l 2
 426 645 434 646 451 649 c 0
 454 649 455 648 455 646 c 0
 457 638 472 542 477 501 c 1
 467.2 496.3 456.4 494.2 444 496 c 1
 422 565 406 605 331 605 c 2
 256 605 l 2
 202 605 190 585 190 541 c 2
 190 361 l 1
 281 361 l 2
EndSplineSet
Colour: ff00ff
EndChar

StartChar: uni1E1B
Encoding: 7707 7707 156
Width: 447
GlyphClass: 2
Flags: MW
AnchorPoint: "above" 231 645 basechar 0
LayerCount: 2
Fore
SplineSet
288 -115 m 0
 310 -115 321 -105 335 -63 c 1
 346 -62 356 -65 362 -69 c 1
 350 -129 321 -168 275 -168 c 0
 253 -168 232 -150 211 -136 c 0
 193 -125 174 -117 157 -117 c 0
 131 -117 121 -132 111 -165 c 1
 100 -167 90 -166 84 -160 c 1
 98 -101 121 -62 164 -62 c 0
 194 -62 216 -82 236 -96 c 0
 252 -108 269 -115 288 -115 c 0
124 282 m 1
 305 285 l 2
 316 285.2 320 290 320 299 c 0
 320 383 275 404 237 404 c 0
 213 404 143 395 124 282 c 1
386 93 m 1
 398 92 404 87 407 77 c 1
 367 25 313 -10 237 -10 c 0
 165 -10 118 14 84 54 c 0
 51 92 37 146 37 202 c 0
 37 354 150 437 237 437 c 0
 376 437 406 347 406 263 c 0
 406 252 399 246 387 246 c 2
 121 248 l 1
 121 190 133 144 153 111 c 0
 184 60 226 39 262 39 c 0
 320 39 349 55 386 93 c 1
EndSplineSet
Colour: ff00ff
EndChar

StartChar: uni1E1C
Encoding: 7708 7708 157
Width: 557
GlyphClass: 2
Flags: MW
LayerCount: 2
Fore
SplineSet
436 805 m 1
 430 734 366 692 300 692 c 0
 227 692 169 735 164 805 c 1
 192 805 l 1
 200 766 247 744 300 744 c 0
 349 744 401 766 408 805 c 1
 436 805 l 1
256 -96 m 0
 237 -96 227 -97 211 -102 c 1
 205 -96 l 1
 245 0 l 1
 148 0 l 2
 115 0 55 -1 18 -2 c 1
 12 4 12 25 18 31 c 1
 88 34 105 39 105 122 c 2
 105 523 l 2
 105 606 88 611 18 614 c 1
 12 620 12 641 18 647 c 1
 58 646 116.5 645 147 645 c 2
 402 645 l 2
 426 645 434 646 451 649 c 0
 454 649 455 648 455 646 c 0
 457 638 472 542 477 501 c 1
 467.2 496.3 456.4 494.2 444 496 c 1
 422 565 406 605 331 605 c 2
 256 605 l 2
 202 605 190 585 190 541 c 2
 190 361 l 1
 281 361 l 2
 366 361 369 374 372 429 c 1
 378 435 399 435 405 429 c 1
 404 405 403 371 403 343 c 0
 403 308.7 404 281 405 255 c 1
 399 249 378 249 372 255 c 1
 369 300 366 323 281 323 c 2
 190 323 l 1
 190 102 l 2
 190 55 204 39 246 39 c 2
 362 39 l 2
 438 39 473 98 493 170 c 1
 506.1 173.2 517.6 171 528 165 c 1
 520 114 505 48 491 -2 c 1
 491 -2 411 0 363 0 c 2
 279 0 l 1
 254 -67 l 1
 262 -65 271 -64 280 -64 c 0
 320 -64 351 -88 351 -126 c 0
 351 -169 305 -200 244 -200 c 0
 212 -200 195 -194 170 -183 c 1
 170 -171 173 -164 180 -157 c 1
 207 -167 218 -171 238 -171 c 0
 268 -171 289 -157 289 -131 c 0
 289 -110 279 -96 256 -96 c 0
EndSplineSet
Colour: ff00ff
EndChar

StartChar: uni1E1D
Encoding: 7709 7709 158
Width: 447
GlyphClass: 2
Flags: MW
LayerCount: 2
Fore
SplineSet
112 648 m 1
 123 595 166 558 220 558 c 0
 272 558 318 590 328 648 c 1
 355 636 l 1
 343 550 279 501 220 501 c 0
 150 501 99 551 85 636 c 1
 112 648 l 1
229 -96 m 0
 210 -96 200 -97 184 -102 c 1
 178 -96 l 1
 214.2 -9.1 l 1
 154.9 -4.5 114.3 18.4 84 54 c 0
 51 92 37 146 37 202 c 0
 37 354 150 437 237 437 c 0
 376 437 406 347 406 263 c 0
 406 252 399 246 387 246 c 2
 121 248 l 1
 121 190 133 144 153 111 c 0
 184 60 226 39 262 39 c 0
 320 39 349 55 386 93 c 1
 398 92 404 87 407 77 c 1
 369 27.6 318.5 -6.4 248.4 -9.7 c 1
 227 -67 l 1
 235 -65 244 -64 253 -64 c 0
 293 -64 324 -88 324 -126 c 0
 324 -169 278 -200 217 -200 c 0
 185 -200 168 -194 143 -183 c 1
 143 -171 146 -164 153 -157 c 1
 180 -167 191 -171 211 -171 c 0
 241 -171 262 -157 262 -131 c 0
 262 -110 252 -96 229 -96 c 0
124 282 m 1
 305 285 l 2
 316 285.2 320 290 320 299 c 0
 320 383 275 404 237 404 c 0
 213 404 143 395 124 282 c 1
EndSplineSet
Colour: ff00ff
EndChar

StartChar: uni1E1E
Encoding: 7710 7710 159
Width: 485
GlyphClass: 2
Flags: MW
LayerCount: 2
Fore
SplineSet
202 754 m 0
 202 782 226 806 254 806 c 0
 282 806 306 782 306 754 c 0
 306 726 282 702 254 702 c 0
 226 702 202 726 202 754 c 0
283 323 m 2
 190 323 l 1
 190 122 l 2
 190 39 207 34 277 31 c 1
 283 25 283 4 277 -2 c 1
 242 -1 193 0 148 0 c 0
 103 0 53 -1 18 -2 c 1
 12 4 12 25 18 31 c 1
 88 34 105 39 105 122 c 2
 105 523 l 2
 105 606 88 611 18 614 c 1
 12 620 12 641 18 647 c 1
 58 646 115 645 147 645 c 2
 402.3 645 l 2
 427 645 431.8 645.6 449.3 649 c 0
 451.7 649 452.9 648.3 453.3 646 c 0
 454.7 638.4 469.8 542 475 501 c 1
 467 498 456 496 444 496 c 1
 422 565 397 605 291 605 c 2
 246 605 l 2
 202 605 190 595 190 541 c 2
 190 361 l 1
 283 361 l 2
 368 361 371 374 374 429 c 1
 380 435 401 435 407 429 c 1
 406 403 405 376.5 405 343 c 0
 405 308.7 406 280 407 255 c 1
 401 249 380 249 374 255 c 1
 371 300 368 323 283 323 c 2
EndSplineSet
Colour: ff00ff
EndChar

StartChar: uni1E1F
Encoding: 7711 7711 160
Width: 310
GlyphClass: 2
Flags: MW
LayerCount: 2
Fore
SplineSet
204 807 m 0
 204 831 232 855 256 855 c 0
 283 855 304 827 304 803 c 0
 304 781.9 280 755 252 755 c 0
 228 755 204 781 204 807 c 0
175 122 m 2
 175 39 181 35 259 31 c 1
 265 25 265 4 259 -2 c 1
 224 -1 176 0 136 0 c 0
 96 0 61 -1 26 -2 c 1
 20 4 20 25 26 31 c 1
 80 35 96 39 96 122 c 2
 96 390 l 1
 27 390 l 2
 23 390 22 391 22 396 c 2
 22 409 l 2
 22 417 27 429 45 429 c 2
 96 429 l 1
 96 469 l 2
 96 625 189 698 273 698 c 0
 311 698 337 695 363 677 c 1
 384 661 395 643 395 626 c 0
 395 606 371 585 354 585 c 0
 333 585 322 599 314 617 c 0
 300 652 284 664 254 664 c 0
 221 664 175 640 175 486 c 2
 175 429 l 1
 283 429 l 2
 288 429 291 427 291 423 c 2
 291 403 l 2
 291 394 277 390 268 390 c 2
 175 390 l 1
 175 122 l 2
EndSplineSet
Colour: ff00ff
EndChar

StartChar: uni1E20
Encoding: 7712 7712 161
Width: 685
GlyphClass: 2
Flags: MW
LayerCount: 2
Fore
SplineSet
473 745 m 2
 249 745 l 2
 240 745 236 756 236 763 c 0
 236 775 247 795 258 795 c 2
 483 795 l 2
 493 795 497 784 497 778 c 0
 497 766 486 745 473 745 c 2
377 658 m 0
 488 658 525 623 585 613 c 1
 601 541 605.5 501 608 459 c 1
 596.7 454.3 586.3 452.3 575 453 c 1
 549 539 508 622 363 622 c 0
 246.5 622 133 502 133 327 c 0
 133 195 217 26 375 26 c 0
 429 26 496 32 530 64 c 1
 530 217 l 2
 530 257.1 502.9 260.8 448 265 c 1
 442 271 442 295 448 301 c 1
 492 300 538.5 299 572 299 c 0
 612 299 637 300 661 301 c 1
 667 295 667 271 661 265 c 1
 632 262 615 252.2 615 217 c 2
 615 101 l 2
 615 90 620 82 631 73 c 1
 563 15 470 -10 352 -10 c 0
 161 -10 37 127.2 37 307 c 0
 37 527 210 658 377 658 c 0
EndSplineSet
Colour: ff00ff
EndChar

StartChar: uni1E21
Encoding: 7713 7713 162
Width: 500
GlyphClass: 2
Flags: MW
LayerCount: 2
Fore
SplineSet
348 518 m 2
 124 518 l 2
 115 518 111 529 111 536 c 0
 111 548 122 568 133 568 c 2
 358 568 l 2
 368 568 372 557 372 551 c 0
 372 539 361 518 348 518 c 2
319 279 m 0
 319 362 285 408 222 408 c 0
 167 408 142 372 142 302 c 0
 142 238 151 167 235 167 c 0
 272 167 319 186 319 279 c 0
132 -10 m 1
 103 -45 101 -70 101 -104 c 0
 101 -172 185 -201 221 -201 c 0
 311 -201 417 -163 417 -91 c 0
 417 -65 405 -51 366 -29 c 0
 337 -13 295 -12 245 -12 c 0
 231 -12 203 -15 172 -15 c 0
 159 -15 143 -13 132 -10 c 1
444 387 m 0
 433 387 420 397 416 405 c 1
 410 414 403 417 396 417 c 0
 383 417 363 403 356 393 c 1
 385 363 399 336 399 289 c 0
 399 191 318 136 230 136 c 0
 191 136 163 143 139 157 c 1
 127 140 121 119 121 99 c 0
 121 56 156 42 185 42 c 0
 190 42 200 43 215 44 c 0
 239 47 264 49 282 49 c 0
 319 49 389 48 428 16 c 0
 457 -8 472 -33 472 -65 c 0
 472 -173 326 -238 191 -238 c 0
 114 -238 32 -211 32 -124 c 0
 32 -81 60 -35 114 -3 c 1
 88 10 68 38 68 74 c 0
 68 108 84 151 112 175 c 1
 84 202 60 233 60 287 c 0
 60 379 142 439 231 439 c 0
 290 439 323 419 335 411 c 1
 361 445 409 462 435 462 c 0
 462 462 481 446 481 425 c 0
 481 405 463 387 444 387 c 0
EndSplineSet
Colour: ff00ff
EndChar

StartChar: uni1E22
Encoding: 7714 7714 163
Width: 730
GlyphClass: 2
Flags: MW
LayerCount: 2
Fore
SplineSet
324 753 m 0
 324 781 348 805 376 805 c 0
 404 805 428 781 428 753 c 0
 428 725 404 701 376 701 c 0
 348 701 324 725 324 753 c 0
618 122 m 2
 618 39 635 34 705 31 c 1
 711 25 711 4 705 -2 c 1
 661 -1 613.3 0 576 0 c 0
 538.9 0 491 -1 446 -2 c 1
 440 4 440 25 446 31 c 1
 516 34 533 39 533 122 c 2
 533 321 l 1
 191 321 l 1
 191 122 l 2
 191 39 208 34 278 31 c 1
 284 25 284 4 278 -2 c 1
 234 -1 185.3 0 149 0 c 0
 111.3 0 63 -1 19 -2 c 1
 13 4 13 25 19 31 c 1
 89 34 106 39 106 122 c 2
 106 523 l 2
 106 606 89 611 19 614 c 1
 13 620 13 641 19 647 c 1
 57 646 98 645 148 645 c 0
 199 645 240 646 278 647 c 1
 284 641 284 620 278 614 c 1
 208 611 191 606 191 523 c 2
 191 363 l 1
 533 363 l 1
 533 523 l 2
 533 606 516 611 446 614 c 1
 440 620 440 641 446 647 c 1
 490 646 537.7 645 575 645 c 0
 613 645 664 646 705 647 c 1
 711 641 711 620 705 614 c 1
 635 611 618 606 618 523 c 2
 618 122 l 2
EndSplineSet
Colour: ff00ff
EndChar

StartChar: uni1E23
Encoding: 7715 7715 164
Width: 538
GlyphClass: 2
Flags: MW
LayerCount: 2
Fore
SplineSet
238 599 m 0
 238 623 266 647 290 647 c 0
 317 647 338 619 338 595 c 0
 338 573.9 314 547 286 547 c 0
 262 547 238 573 238 599 c 0
167 285.9 m 2
 167 122 l 2
 167 39 176 35 226.8 31 c 1
 232.8 25 232.8 4 226.8 -2 c 1
 198.8 -1 166 0 128 0 c 0
 88 0 51.2 -1 18.2 -2 c 1
 12.2 4 12.2 25 18.2 31 c 1
 76.2 35 88 39 88 122 c 2
 88 559 l 2
 88 643 76 638 24 641 c 1
 18 647 16 663 18 671 c 1
 58 674 133 688 158 698 c 1
 167 698 171 695 171 688 c 2
 171 688 167 648 167 583 c 2
 166.2 358 l 2
 166.2 344 172.6 354.2 176 358 c 0
 237 426 296.9 439 346 439 c 0
 381 439 412.2 427 429 405 c 0
 452.3 374.5 456 326 456 271 c 2
 456 122 l 2
 456 40 467 36 523 31 c 1
 528 25 528 4 523 -2 c 1
 490 -1 457 0 417 0 c 0
 377 0 343 -1 315 -2 c 1
 310 4 310 25 315 31 c 1
 367 36 377 40 377 122 c 2
 377 274 l 2
 377 304 375 331.2 365 351 c 0
 353.4 373.9 332.4 387 312 387 c 0
 272.6 387 222 365.3 184 328 c 0
 176 319.3 167 307 167 285.9 c 2
EndSplineSet
Colour: ff00ff
EndChar

StartChar: uni1E24
Encoding: 7716 7716 165
Width: 730
GlyphClass: 2
Flags: MW
LayerCount: 2
Fore
SplineSet
618 122 m 2
 618 39 635 34 705 31 c 1
 711 25 711 4 705 -2 c 1
 661 -1 613.3 0 576 0 c 0
 538.9 0 491 -1 446 -2 c 1
 440 4 440 25 446 31 c 1
 516 34 533 39 533 122 c 2
 533 321 l 1
 191 321 l 1
 191 122 l 2
 191 39 208 34 278 31 c 1
 284 25 284 4 278 -2 c 1
 234 -1 185.3 0 149 0 c 0
 111.3 0 63 -1 19 -2 c 1
 13 4 13 25 19 31 c 1
 89 34 106 39 106 122 c 2
 106 523 l 2
 106 606 89 611 19 614 c 1
 13 620 13 641 19 647 c 1
 57 646 98 645 148 645 c 0
 199 645 240 646 278 647 c 1
 284 641 284 620 278 614 c 1
 208 611 191 606 191 523 c 2
 191 363 l 1
 533 363 l 1
 533 523 l 2
 533 606 516 611 446 614 c 1
 440 620 440 641 446 647 c 1
 490 646 537.7 645 575 645 c 0
 613 645 664 646 705 647 c 1
 711 641 711 620 705 614 c 1
 635 611 618 606 618 523 c 2
 618 122 l 2
324 -156 m 0
 324 -132 352 -108 376 -108 c 0
 403 -108 424 -136 424 -160 c 0
 424 -181.1 400 -208 372 -208 c 0
 348 -208 324 -182 324 -156 c 0
EndSplineSet
Colour: ff00ff
EndChar

StartChar: uni1E25
Encoding: 7717 7717 166
Width: 538
GlyphClass: 2
Flags: MW
LayerCount: 2
Fore
SplineSet
210 -157 m 0
 210 -133 238 -109 262 -109 c 0
 289 -109 310 -137 310 -161 c 0
 310 -182.1 286 -209 258 -209 c 0
 234 -209 210 -183 210 -157 c 0
167 285.9 m 2
 167 122 l 2
 167 39 176 35 226.8 31 c 1
 232.8 25 232.8 4 226.8 -2 c 1
 198.8 -1 166 0 128 0 c 0
 88 0 51.2 -1 18.2 -2 c 1
 12.2 4 12.2 25 18.2 31 c 1
 76.2 35 88 39 88 122 c 2
 88 559 l 2
 88 643 76 638 24 641 c 1
 18 647 16 663 18 671 c 1
 58 674 133 688 158 698 c 1
 167 698 171 695 171 688 c 2
 171 688 167 648 167 583 c 2
 166.2 358 l 2
 166.2 344 172.6 354.2 176 358 c 0
 237 426 296.9 439 346 439 c 0
 381 439 412.2 427 429 405 c 0
 452.3 374.5 456 326 456 271 c 2
 456 122 l 2
 456 40 467 36 523 31 c 1
 528 25 528 4 523 -2 c 1
 490 -1 457 0 417 0 c 0
 377 0 343 -1 315 -2 c 1
 310 4 310 25 315 31 c 1
 367 36 377 40 377 122 c 2
 377 274 l 2
 377 304 375 331.2 365 351 c 0
 353.4 373.9 332.4 387 312 387 c 0
 272.6 387 222 365.3 184 328 c 0
 176 319.3 167 307 167 285.9 c 2
EndSplineSet
Colour: ff00ff
EndChar

StartChar: uni1E26
Encoding: 7718 7718 167
Width: 730
GlyphClass: 2
Flags: MW
LayerCount: 2
Fore
SplineSet
618 122 m 2
 618 39 635 34 705 31 c 1
 711 25 711 4 705 -2 c 1
 661 -1 613.3 0 576 0 c 0
 538.9 0 491 -1 446 -2 c 1
 440 4 440 25 446 31 c 1
 516 34 533 39 533 122 c 2
 533 321 l 1
 191 321 l 1
 191 122 l 2
 191 39 208 34 278 31 c 1
 284 25 284 4 278 -2 c 1
 234 -1 185.3 0 149 0 c 0
 111.3 0 63 -1 19 -2 c 1
 13 4 13 25 19 31 c 1
 89 34 106 39 106 122 c 2
 106 523 l 2
 106 606 89 611 19 614 c 1
 13 620 13 641 19 647 c 1
 57 646 98 645 148 645 c 0
 199 645 240 646 278 647 c 1
 284 641 284 620 278 614 c 1
 208 611 191 606 191 523 c 2
 191 363 l 1
 533 363 l 1
 533 523 l 2
 533 606 516 611 446 614 c 1
 440 620 440 641 446 647 c 1
 490 646 537.7 645 575 645 c 0
 613 645 664 646 705 647 c 1
 711 641 711 620 705 614 c 1
 635 611 618 606 618 523 c 2
 618 122 l 2
409 757 m 0
 409 783 431 805 457 805 c 0
 483 805 505 783 505 757 c 0
 505 731 483 709 457 709 c 0
 431 709 409 731 409 757 c 0
220 757 m 0
 220 783 242 805 268 805 c 0
 294 805 316 783 316 757 c 0
 316 731 294 709 268 709 c 0
 242 709 220 731 220 757 c 0
EndSplineSet
Colour: ff00ff
EndChar

StartChar: uni1E27
Encoding: 7719 7719 168
Width: 538
GlyphClass: 2
Flags: MW
LayerCount: 2
Fore
SplineSet
345 572 m 0
 345 597 365 618 390 618 c 0
 415 618 436 597 436 572 c 0
 436 547 415 527 390 527 c 0
 365 527 345 547 345 572 c 0
208 572 m 0
 208 597 228 618 253 618 c 0
 278 618 298 597 298 572 c 0
 298 547 278 527 253 527 c 0
 228 527 208 547 208 572 c 0
167 285.9 m 2
 167 122 l 2
 167 39 176 35 226.8 31 c 1
 232.8 25 232.8 4 226.8 -2 c 1
 198.8 -1 166 0 128 0 c 0
 88 0 51.2 -1 18.2 -2 c 1
 12.2 4 12.2 25 18.2 31 c 1
 76.2 35 88 39 88 122 c 2
 88 559 l 2
 88 643 76 638 24 641 c 1
 18 647 16 663 18 671 c 1
 58 674 133 688 158 698 c 1
 167 698 171 695 171 688 c 2
 171 688 167 648 167 583 c 2
 166.2 358 l 2
 166.2 344 172.6 354.2 176 358 c 0
 237 426 296.9 439 346 439 c 0
 381 439 412.2 427 429 405 c 0
 452.3 374.5 456 326 456 271 c 2
 456 122 l 2
 456 40 467 36 523 31 c 1
 528 25 528 4 523 -2 c 1
 490 -1 457 0 417 0 c 0
 377 0 343 -1 315 -2 c 1
 310 4 310 25 315 31 c 1
 367 36 377 40 377 122 c 2
 377 274 l 2
 377 304 375 331.2 365 351 c 0
 353.4 373.9 332.4 387 312 387 c 0
 272.6 387 222 365.3 184 328 c 0
 176 319.3 167 307 167 285.9 c 2
EndSplineSet
Colour: ff9ccc
EndChar

StartChar: uni1E28
Encoding: 7720 7720 169
Width: 730
GlyphClass: 2
Flags: MW
LayerCount: 2
Fore
SplineSet
618 122 m 2
 618 39 635 34 705 31 c 1
 711 25 711 4 705 -2 c 1
 661 -1 613.3 0 576 0 c 0
 538.9 0 491 -1 446 -2 c 1
 440 4 440 25 446 31 c 1
 516 34 533 39 533 122 c 2
 533 321 l 1
 191 321 l 1
 191 122 l 2
 191 39 208 34 278 31 c 1
 284 25 284 4 278 -2 c 1
 240.8 -1.2 200.2 -0.3 166.6 -0.1 c 1
 142 -66 l 1
 150 -64 159 -63 168 -63 c 0
 208 -63 239 -87 239 -125 c 0
 239 -168 193 -199 132 -199 c 0
 100 -199 83 -193 58 -182 c 1
 58 -170 61 -163 68 -156 c 1
 95 -166 106 -170 126 -170 c 0
 156 -170 177 -156 177 -130 c 0
 177 -109 167 -95 144 -95 c 0
 125 -95 115 -96 99 -101 c 1
 93 -95 l 1
 132.6 -0.1 l 1
 97.9 -0.3 56.8 -1.1 19 -2 c 1
 13 4 13 25 19 31 c 1
 89 34 106 39 106 122 c 2
 106 523 l 2
 106 606 89 611 19 614 c 1
 13 620 13 641 19 647 c 1
 57 646 98 645 148 645 c 0
 199 645 240 646 278 647 c 1
 284 641 284 620 278 614 c 1
 208 611 191 606 191 523 c 2
 191 363 l 1
 533 363 l 1
 533 523 l 2
 533 606 516 611 446 614 c 1
 440 620 440 641 446 647 c 1
 490 646 537.7 645 575 645 c 0
 613 645 664 646 705 647 c 1
 711 641 711 620 705 614 c 1
 635 611 618 606 618 523 c 2
 618 122 l 2
EndSplineSet
Colour: ff00ff
EndChar

StartChar: uni1E29
Encoding: 7721 7721 170
Width: 538
GlyphClass: 2
Flags: MW
LayerCount: 2
Fore
SplineSet
117 -96 m 0
 98 -96 88 -97 72 -102 c 1
 66 -96 l 1
 106 -0.1 l 1
 74.5 -0.4 45 -1.2 18.2 -2 c 1
 12.2 4 12.2 25 18.2 31 c 1
 76.2 35 88 39 88 122 c 2
 88 559 l 2
 88 643 76 638 24 641 c 1
 18 647 16 663 18 671 c 1
 58 674 133 688 158 698 c 1
 167 698 171 695 171 688 c 2
 171 688 167 648 167 583 c 2
 166.2 358 l 2
 166.2 344 172.6 354.2 176 358 c 0
 237 426 296.9 439 346 439 c 0
 381 439 412.2 427 429 405 c 0
 452.3 374.5 456 326 456 271 c 2
 456 122 l 2
 456 40 467 36 523 31 c 1
 528 25 528 4 523 -2 c 1
 490 -1 457 0 417 0 c 0
 377 0 343 -1 315 -2 c 1
 310 4 310 25 315 31 c 1
 367 36 377 40 377 122 c 2
 377 274 l 2
 377 304 375 331.2 365 351 c 0
 353.4 373.9 332.4 387 312 387 c 0
 272.6 387 222 365.3 184 328 c 0
 176 319.3 167 307 167 285.9 c 2
 167 122 l 2
 167 39 176 35 226.8 31 c 1
 232.8 25 232.8 4 226.8 -2 c 1
 201.8 -1.1 172.9 -0.2 140 -0 c 1
 115 -67 l 1
 123 -65 132 -64 141 -64 c 0
 181 -64 212 -88 212 -126 c 0
 212 -169 166 -200 105 -200 c 0
 73 -200 56 -194 31 -183 c 1
 31 -171 34 -164 41 -157 c 1
 68 -167 79 -171 99 -171 c 0
 129 -171 150 -157 150 -131 c 0
 150 -110 140 -96 117 -96 c 0
EndSplineSet
Colour: ff00ff
EndChar

StartChar: uni1E2A
Encoding: 7722 7722 171
Width: 730
GlyphClass: 2
Flags: MW
LayerCount: 2
Fore
SplineSet
618 122 m 2
 618 39 635 34 705 31 c 1
 711 25 711 4 705 -2 c 1
 661 -1 613.3 0 576 0 c 0
 538.9 0 491 -1 446 -2 c 1
 440 4 440 25 446 31 c 1
 516 34 533 39 533 122 c 2
 533 321 l 1
 191 321 l 1
 191 122 l 2
 191 39 208 34 278 31 c 1
 284 25 284 4 278 -2 c 1
 234 -1 185.3 0 149 0 c 0
 111.3 0 63 -1 19 -2 c 1
 13 4 13 25 19 31 c 1
 89 34 106 39 106 122 c 2
 106 523 l 2
 106 606 89 611 19 614 c 1
 13 620 13 641 19 647 c 1
 57 646 98 645 148 645 c 0
 199 645 240 646 278 647 c 1
 284 641 284 620 278 614 c 1
 208 611 191 606 191 523 c 2
 191 363 l 1
 533 363 l 1
 533 523 l 2
 533 606 516 611 446 614 c 1
 440 620 440 641 446 647 c 1
 490 646 537.7 645 575 645 c 0
 613 645 664 646 705 647 c 1
 711 641 711 620 705 614 c 1
 635 611 618 606 618 523 c 2
 618 122 l 2
256 -52 m 1
 267 -105 310 -142 364 -142 c 0
 416 -142 462 -110 472 -52 c 1
 499 -64 l 1
 487 -150 423 -199 364 -199 c 0
 294 -199 243 -149 229 -64 c 1
 256 -52 l 1
EndSplineSet
Colour: ff00ff
EndChar

StartChar: uni1E2B
Encoding: 7723 7723 172
Width: 538
GlyphClass: 2
Flags: MW
LayerCount: 2
Fore
SplineSet
171 -62 m 1
 182 -115 225 -152 279 -152 c 0
 331 -152 377 -120 387 -62 c 1
 414 -74 l 1
 402 -160 338 -209 279 -209 c 0
 209 -209 158 -159 144 -74 c 1
 171 -62 l 1
167 285.9 m 2
 167 122 l 2
 167 39 176 35 226.8 31 c 1
 232.8 25 232.8 4 226.8 -2 c 1
 198.8 -1 166 0 128 0 c 0
 88 0 51.2 -1 18.2 -2 c 1
 12.2 4 12.2 25 18.2 31 c 1
 76.2 35 88 39 88 122 c 2
 88 559 l 2
 88 643 76 638 24 641 c 1
 18 647 16 663 18 671 c 1
 58 674 133 688 158 698 c 1
 167 698 171 695 171 688 c 2
 171 688 167 648 167 583 c 2
 166.2 358 l 2
 166.2 344 172.6 354.2 176 358 c 0
 237 426 296.9 439 346 439 c 0
 381 439 412.2 427 429 405 c 0
 452.3 374.5 456 326 456 271 c 2
 456 122 l 2
 456 40 467 36 523 31 c 1
 528 25 528 4 523 -2 c 1
 490 -1 457 0 417 0 c 0
 377 0 343 -1 315 -2 c 1
 310 4 310 25 315 31 c 1
 367 36 377 40 377 122 c 2
 377 274 l 2
 377 304 375 331.2 365 351 c 0
 353.4 373.9 332.4 387 312 387 c 0
 272.6 387 222 365.3 184 328 c 0
 176 319.3 167 307 167 285.9 c 2
EndSplineSet
Colour: ff00ff
EndChar

StartChar: uni1E2C
Encoding: 7724 7724 173
Width: 297
GlyphClass: 2
Flags: MW
AnchorPoint: "above" 146 850 basechar 0
LayerCount: 2
Fore
SplineSet
216 -117 m 0
 238 -117 249 -107 263 -65 c 1
 274 -64 284 -67 290 -71 c 1
 278 -131 249 -170 203 -170 c 0
 181 -170 160 -152 139 -138 c 0
 121 -127 102 -119 85 -119 c 0
 59 -119 49 -134 39 -167 c 1
 28 -169 18 -168 12 -162 c 1
 26 -103 49 -64 92 -64 c 0
 122 -64 144 -84 164 -98 c 0
 180 -110 197 -117 216 -117 c 0
191 122 m 2
 191 39 208 34 278 31 c 1
 284 25 284 4 278 -2 c 1
 233 -1 184.6 0 149 0 c 0
 112.7 0 64 -1 19 -2 c 1
 13 4 13 25 19 31 c 1
 89 34 106 39 106 122 c 2
 106 523 l 2
 106 606 89 611 19 614 c 1
 13 620 13 641 19 647 c 1
 66 646 114.5 645 148 645 c 0
 186.5 645 234 646 278 647 c 1
 284 641 284 620 278 614 c 1
 208 611 191 606 191 523 c 2
 191 122 l 2
EndSplineSet
Colour: ff00ff
EndChar

StartChar: uni1E2D
Encoding: 7725 7725 174
Width: 271
GlyphClass: 2
Flags: MW
LayerCount: 2
Fore
SplineSet
202 -117 m 0
 224 -117 235 -107 249 -65 c 1
 260 -64 270 -67 276 -71 c 1
 264 -131 235 -170 189 -170 c 0
 167 -170 146 -152 125 -138 c 0
 107 -127 88 -119 71 -119 c 0
 45 -119 35 -134 25 -167 c 1
 14 -169 4 -168 -2 -162 c 1
 12 -103 35 -64 78 -64 c 0
 108 -64 130 -84 150 -98 c 0
 166 -110 183 -117 202 -117 c 0
90 599 m 0
 90 623 118 647 142 647 c 0
 169 647 190 619 190 595 c 0
 190 573.9 166 547 138 547 c 0
 114 547 90 573 90 599 c 0
181 122 m 2
 181 39 192 35 253 31 c 1
 259 25 259 4 253 -2 c 1
 220 -1 182 0 142 0 c 0
 102 0 63 -1 30 -2 c 1
 24 4 24 25 30 31 c 1
 91 36 102 39 102 122 c 2
 102 317 l 2
 102 374 91.5 379.9 37 385 c 1
 35 391 33 407 35 413 c 1
 104 422 143.5 431 172 442 c 1
 180 442 185 439 185 435 c 2
 185 435 181 371 181 321.3 c 2
 181 122 l 2
EndSplineSet
Colour: ff00ff
EndChar

StartChar: uni1E2E
Encoding: 7726 7726 175
Width: 297
GlyphClass: 2
Flags: MW
LayerCount: 2
Fore
SplineSet
225.1 889.9 m 1
 247.2 878.2 263.1 862.9 272.9 844.1 c 1
 162 793 l 2
 145.8 785.1 136.5 782.5 129.6 782.5 c 0
 122.7 782.5 118.1 788.7 118.1 795.7 c 0
 118.1 801.9 119.6 806.3 129.6 814.2 c 2
 225.1 889.9 l 1
195 757 m 0
 195 783 217 805 243 805 c 0
 269 805 291 783 291 757 c 0
 291 731 269 709 243 709 c 0
 217 709 195 731 195 757 c 0
6 757 m 0
 6 783 28 805 54 805 c 0
 80 805 102 783 102 757 c 0
 102 731 80 709 54 709 c 0
 28 709 6 731 6 757 c 0
191 122 m 2
 191 39 208 34 278 31 c 1
 284 25 284 4 278 -2 c 1
 233 -1 184.6 0 149 0 c 0
 112.7 0 64 -1 19 -2 c 1
 13 4 13 25 19 31 c 1
 89 34 106 39 106 122 c 2
 106 523 l 2
 106 606 89 611 19 614 c 1
 13 620 13 641 19 647 c 1
 66 646 114.5 645 148 645 c 0
 186.5 645 234 646 278 647 c 1
 284 641 284 620 278 614 c 1
 208 611 191 606 191 523 c 2
 191 122 l 2
EndSplineSet
Colour: ff00ff
EndChar

StartChar: uni1E2F
Encoding: 7727 7727 176
Width: 271
GlyphClass: 2
Flags: MW
LayerCount: 2
Fore
SplineSet
177 740 m 1
 179.3 740.9 183.8 741.8 187.7 741.8 c 0
 192.6 741.8 212.4 741 230.1 721.6 c 1
 232.4 711.9 l 1
 143.8 616 l 2
 132.3 602.8 126.2 599.2 120.8 599.2 c 0
 115.4 599.2 110 604.5 110 610.7 c 0
 110 620.6 112.5 624 118.8 635.3 c 2
 177 740 l 1
-4 575 m 0
 -4 601 17 623 43 623 c 0
 69 623 90 601 90 575 c 0
 90 549 69 528 43 528 c 0
 17 528 -4 549 -4 575 c 0
165 575 m 0
 165 601 186 623 212 623 c 0
 238 623 259 601 259 575 c 0
 259 549 238 528 212 528 c 0
 186 528 165 549 165 575 c 0
181 122 m 2
 181 39 192 35 253 31 c 1
 259 25 259 4 253 -2 c 1
 220 -1 182 0 142 0 c 0
 102 0 63 -1 30 -2 c 1
 24 4 24 25 30 31 c 1
 91 36 102 39 102 122 c 2
 102 317 l 2
 102 374 91.5 379.9 37 385 c 1
 35 391 33 407 35 413 c 1
 104 422 143.5 431 172 442 c 1
 180 442 185 439 185 435 c 2
 185 435 181 371 181 321.3 c 2
 181 122 l 2
EndSplineSet
Colour: ff00ff
EndChar

StartChar: uni1E30
Encoding: 7728 7728 177
Width: 637
GlyphClass: 2
Flags: MW
LayerCount: 2
Fore
SplineSet
409 819 m 1
 437.6 805.7 458.3 788.3 471 767 c 1
 327 709 l 2
 306 700 294 697 285 697 c 0
 276 697 270 704 270 712 c 0
 270 719 272 724 285 733 c 2
 409 819 l 1
191 122 m 2
 191 39 208 34 278 31 c 1
 284 25 284 4 278 -2 c 1
 233 -1 187 0 149 0 c 0
 110 0 64 -1 19 -2 c 1
 13 4 13 25 19 31 c 1
 89 34 106 39 106 122 c 2
 106 523 l 2
 106 606 89 611 19 614 c 1
 13 620 13 641 19 647 c 1
 64 646 109.5 645 148 645 c 0
 184.5 645 232 646 278 647 c 1
 284 641 284 620 278 614 c 1
 208 611 191 606 191 523 c 2
 191 347.3 l 1
 226.1 350.2 248.7 363.3 270 386 c 2
 435 562 l 2
 477.1 606.9 443.1 610.6 407 614 c 1
 401 620 401 641 407 647 c 1
 444 646 483 645 520 645 c 0
 552.2 645 584 646 615 647 c 1
 621 641 621 620 615 614 c 1
 575 611 535 607 489 558 c 1
 342 407 l 2
 308 372 307 365 307 358 c 0
 307 350 312.3 342.1 320 333 c 2
 539 73 l 2
 569.6 36.7 598.1 33.6 627 31 c 1
 633 25 633 4 627 -2 c 1
 594 -1 560 0 526 0 c 0
 504.9 0 492 -1 472 -2 c 0
 468 -2 467.4 1 467 4 c 0
 465 20 451.3 47.4 431 73 c 2
 274 271 l 2
 253.7 296.6 224.8 307.9 191 308.9 c 1
 191 122 l 2
EndSplineSet
Colour: ff00ff
EndChar

StartChar: uni1E31
Encoding: 7729 7729 178
Width: 512
GlyphClass: 2
Flags: MW
LayerCount: 2
Fore
SplineSet
347 671 m 1
 350 672 356 673 361 673 c 0
 367.4 673 393 672 416 650 c 1
 419 639 l 1
 304 530 l 2
 289 515 281 511 274 511 c 0
 267 511 260 517 260 524 c 0
 260 535.2 263.3 539.2 271.4 552 c 2
 347 671 l 1
86 122 m 2
 86 559 l 2
 86 643 74 638 22 641 c 1
 16 647 14 663 16 671 c 1
 56 674 131 688 156 698 c 1
 165 698 169 695 169 688 c 2
 169 688 165 648 165 583 c 2
 165 234.2 l 1
 183.9 236.8 210.8 248.6 233 265 c 0
 258.7 284 290 318 313 347 c 0
 322.3 358.7 346 394 290 398 c 1
 284 404 284 425 290 431 c 1
 313 430 350 429 388 429 c 0
 424 429 452 430 475 431 c 1
 481 425 481 404 475 398 c 1
 435 394 400 386 370 354 c 2
 282 263 l 2
 278 259 278 257 278 253 c 0
 278 248 281.4 243.5 285 239 c 2
 417 73 l 2
 443.7 39.4 469 35 503 31 c 1
 509 25 509 4 503 -2 c 1
 483 -1 452 0 421 0 c 0
 401 0 379 -1 359 -2 c 0
 356 -2 355.3 0 355 3 c 0
 353.7 14.7 342.4 33.5 313 73 c 2
 240 171 l 2
 228.1 187 219 196 208 203.5 c 1
 198.3 206.9 184.2 208.4 165 208.9 c 1
 165 122 l 2
 165 39 176 35 217 31 c 1
 223 25 223 4 217 -2 c 1
 194 -1 161 0 126 0 c 0
 86 0 52 -1 19 -2 c 1
 13 4 13 25 19 31 c 1
 75 35 86 39 86 122 c 2
EndSplineSet
Colour: ff00ff
EndChar

StartChar: uni1E32
Encoding: 7730 7730 179
Width: 637
GlyphClass: 2
Flags: MW
LayerCount: 2
Fore
SplineSet
276 -156 m 0
 276 -132 304 -108 328 -108 c 0
 355 -108 376 -136 376 -160 c 0
 376 -181.1 352 -208 324 -208 c 0
 300 -208 276 -182 276 -156 c 0
191 122 m 2
 191 39 208 34 278 31 c 1
 284 25 284 4 278 -2 c 1
 233 -1 187 0 149 0 c 0
 110 0 64 -1 19 -2 c 1
 13 4 13 25 19 31 c 1
 89 34 106 39 106 122 c 2
 106 523 l 2
 106 606 89 611 19 614 c 1
 13 620 13 641 19 647 c 1
 64 646 109.5 645 148 645 c 0
 184.5 645 232 646 278 647 c 1
 284 641 284 620 278 614 c 1
 208 611 191 606 191 523 c 2
 191 347.3 l 1
 226.1 350.2 248.7 363.3 270 386 c 2
 435 562 l 2
 477.1 606.9 443.1 610.6 407 614 c 1
 401 620 401 641 407 647 c 1
 444 646 483 645 520 645 c 0
 552.2 645 584 646 615 647 c 1
 621 641 621 620 615 614 c 1
 575 611 535 607 489 558 c 1
 342 407 l 2
 308 372 307 365 307 358 c 0
 307 350 312.3 342.1 320 333 c 2
 539 73 l 2
 569.6 36.7 598.1 33.6 627 31 c 1
 633 25 633 4 627 -2 c 1
 594 -1 560 0 526 0 c 0
 504.9 0 492 -1 472 -2 c 0
 468 -2 467.4 1 467 4 c 0
 465 20 451.3 47.4 431 73 c 2
 274 271 l 2
 253.7 296.6 224.8 307.9 191 308.9 c 1
 191 122 l 2
EndSplineSet
Colour: ff00ff
EndChar

StartChar: uni1E33
Encoding: 7731 7731 180
Width: 512
GlyphClass: 2
Flags: MW
LayerCount: 2
Fore
SplineSet
202 -156 m 0
 202 -132 230 -108 254 -108 c 0
 281 -108 302 -136 302 -160 c 0
 302 -181.1 278 -208 250 -208 c 0
 226 -208 202 -182 202 -156 c 0
86 122 m 2
 86 559 l 2
 86 643 74 638 22 641 c 1
 16 647 14 663 16 671 c 1
 56 674 131 688 156 698 c 1
 165 698 169 695 169 688 c 2
 169 688 165 648 165 583 c 2
 165 234.2 l 1
 183.9 236.8 210.8 248.6 233 265 c 0
 258.7 284 290 318 313 347 c 0
 322.3 358.7 346 394 290 398 c 1
 284 404 284 425 290 431 c 1
 313 430 350 429 388 429 c 0
 424 429 452 430 475 431 c 1
 481 425 481 404 475 398 c 1
 435 394 400 386 370 354 c 2
 282 263 l 2
 278 259 278 257 278 253 c 0
 278 248 281.4 243.5 285 239 c 2
 417 73 l 2
 443.7 39.4 469 35 503 31 c 1
 509 25 509 4 503 -2 c 1
 483 -1 452 0 421 0 c 0
 401 0 379 -1 359 -2 c 0
 356 -2 355.3 0 355 3 c 0
 353.7 14.7 342.4 33.5 313 73 c 2
 240 171 l 2
 228.1 187 219 196 208 203.5 c 1
 198.3 206.9 184.2 208.4 165 208.9 c 1
 165 122 l 2
 165 39 176 35 217 31 c 1
 223 25 223 4 217 -2 c 1
 194 -1 161 0 126 0 c 0
 86 0 52 -1 19 -2 c 1
 13 4 13 25 19 31 c 1
 75 35 86 39 86 122 c 2
EndSplineSet
Colour: ff00ff
EndChar

StartChar: uni1E34
Encoding: 7732 7732 181
Width: 637
GlyphClass: 2
Flags: MW
LayerCount: 2
Fore
SplineSet
436 -131 m 2
 231 -131 l 2
 223 -131 219 -123 219 -116 c 0
 219 -104 229 -87 241 -87 c 2
 446 -87 l 2
 455 -87 459 -94 459 -101 c 0
 459 -113 449 -131 436 -131 c 2
191 122 m 2
 191 39 208 34 278 31 c 1
 284 25 284 4 278 -2 c 1
 233 -1 187 0 149 0 c 0
 110 0 64 -1 19 -2 c 1
 13 4 13 25 19 31 c 1
 89 34 106 39 106 122 c 2
 106 523 l 2
 106 606 89 611 19 614 c 1
 13 620 13 641 19 647 c 1
 64 646 109.5 645 148 645 c 0
 184.5 645 232 646 278 647 c 1
 284 641 284 620 278 614 c 1
 208 611 191 606 191 523 c 2
 191 347.3 l 1
 226.1 350.2 248.7 363.3 270 386 c 2
 435 562 l 2
 477.1 606.9 443.1 610.6 407 614 c 1
 401 620 401 641 407 647 c 1
 444 646 483 645 520 645 c 0
 552.2 645 584 646 615 647 c 1
 621 641 621 620 615 614 c 1
 575 611 535 607 489 558 c 1
 342 407 l 2
 308 372 307 365 307 358 c 0
 307 350 312.3 342.1 320 333 c 2
 539 73 l 2
 569.6 36.7 598.1 33.6 627 31 c 1
 633 25 633 4 627 -2 c 1
 594 -1 560 0 526 0 c 0
 504.9 0 492 -1 472 -2 c 0
 468 -2 467.4 1 467 4 c 0
 465 20 451.3 47.4 431 73 c 2
 274 271 l 2
 253.7 296.6 224.8 307.9 191 308.9 c 1
 191 122 l 2
EndSplineSet
Colour: ff00ff
EndChar

StartChar: uni1E35
Encoding: 7733 7733 182
Width: 512
GlyphClass: 2
Flags: MW
LayerCount: 2
Fore
SplineSet
360 -131 m 2
 155 -131 l 2
 147 -131 143 -123 143 -116 c 0
 143 -104 153 -87 165 -87 c 2
 370 -87 l 2
 379 -87 383 -94 383 -101 c 0
 383 -113 373 -131 360 -131 c 2
86 122 m 2
 86 559 l 2
 86 643 74 638 22 641 c 1
 16 647 14 663 16 671 c 1
 56 674 131 688 156 698 c 1
 165 698 169 695 169 688 c 2
 169 688 165 648 165 583 c 2
 165 234.2 l 1
 183.9 236.8 210.8 248.6 233 265 c 0
 258.7 284 290 318 313 347 c 0
 322.3 358.7 346 394 290 398 c 1
 284 404 284 425 290 431 c 1
 313 430 350 429 388 429 c 0
 424 429 452 430 475 431 c 1
 481 425 481 404 475 398 c 1
 435 394 400 386 370 354 c 2
 282 263 l 2
 278 259 278 257 278 253 c 0
 278 248 281.4 243.5 285 239 c 2
 417 73 l 2
 443.7 39.4 469 35 503 31 c 1
 509 25 509 4 503 -2 c 1
 483 -1 452 0 421 0 c 0
 401 0 379 -1 359 -2 c 0
 356 -2 355.3 0 355 3 c 0
 353.7 14.7 342.4 33.5 313 73 c 2
 240 171 l 2
 228.1 187 219 196 208 203.5 c 1
 198.3 206.9 184.2 208.4 165 208.9 c 1
 165 122 l 2
 165 39 176 35 217 31 c 1
 223 25 223 4 217 -2 c 1
 194 -1 161 0 126 0 c 0
 86 0 52 -1 19 -2 c 1
 13 4 13 25 19 31 c 1
 75 35 86 39 86 122 c 2
EndSplineSet
Colour: ff00ff
EndChar

StartChar: uni1E36
Encoding: 7734 7734 183
Width: 528
GlyphClass: 2
Flags: MW
LayerCount: 2
Fore
SplineSet
227 -156 m 0
 227 -132 255 -108 279 -108 c 0
 306 -108 327 -136 327 -160 c 0
 327 -181.1 303 -208 275 -208 c 0
 251 -208 227 -182 227 -156 c 0
149 0 m 2
 115.3 0 58 -1 19 -2 c 1
 13 4 13 25 19 31 c 1
 89 34 106 39 106 122 c 2
 106 523 l 2
 106 606 89 611 19 614 c 1
 13 620 13 641 19 647 c 1
 65 646 111.9 645 148 645 c 0
 186.1 645 233 646 278 647 c 1
 284 641 284 620 278 614 c 1
 208 611 191 606 191 523 c 2
 191 109 l 2
 191 58 209 39 248 39 c 2
 311 39 l 2
 417 39 454 98 474 170 c 1
 486.4 171.8 497.2 169.7 507 165 c 1
 501 113 491 48 481 -2 c 1
 481 -2 389 0 361.7 0 c 2
 149 0 l 2
EndSplineSet
Colour: ff00ff
EndChar

StartChar: uni1E37
Encoding: 7735 7735 184
Width: 264
GlyphClass: 2
Flags: MW
LayerCount: 2
Fore
SplineSet
95 122 m 2
 95 559 l 2
 95 634 89 637 31 641 c 1
 25 647 23 663 25 671 c 1
 65 674 140 688 165 698 c 1
 174 698 178 695 178 688 c 2
 178 688 174 648 174 583 c 2
 174 122 l 2
 174 39 185 34 246 31 c 1
 252 25 252 4 246 -2 c 1
 213 -1 175 0 135 0 c 0
 95 0 58 -1 23 -2 c 1
 17 4 17 25 23 31 c 1
 84 34 95 39 95 122 c 2
82 -156 m 0
 82 -132 110 -108 134 -108 c 0
 161 -108 182 -136 182 -160 c 0
 182 -181.1 158 -208 130 -208 c 0
 106 -208 82 -182 82 -156 c 0
EndSplineSet
Colour: ff00ff
EndChar

StartChar: uni1E38
Encoding: 7736 7736 185
Width: 528
GlyphClass: 2
Flags: MW
LayerCount: 2
Fore
SplineSet
257 713 m 2
 33 713 l 2
 24 713 20 724 20 731 c 0
 20 743 31 763 42 763 c 2
 267 763 l 2
 277 763 281 752 281 746 c 0
 281 734 270 713 257 713 c 2
227 -156 m 0
 227 -132 255 -108 279 -108 c 0
 306 -108 327 -136 327 -160 c 0
 327 -181.1 303 -208 275 -208 c 0
 251 -208 227 -182 227 -156 c 0
149 0 m 2
 115.3 0 58 -1 19 -2 c 1
 13 4 13 25 19 31 c 1
 89 34 106 39 106 122 c 2
 106 523 l 2
 106 606 89 611 19 614 c 1
 13 620 13 641 19 647 c 1
 65 646 111.9 645 148 645 c 0
 186.1 645 233 646 278 647 c 1
 284 641 284 620 278 614 c 1
 208 611 191 606 191 523 c 2
 191 109 l 2
 191 58 209 39 248 39 c 2
 311 39 l 2
 417 39 454 98 474 170 c 1
 486.4 171.8 497.2 169.7 507 165 c 1
 501 113 491 48 481 -2 c 1
 481 -2 389 0 361.7 0 c 2
 149 0 l 2
EndSplineSet
Colour: ff00ff
EndChar

StartChar: uni1E39
Encoding: 7737 7737 186
Width: 264
GlyphClass: 2
Flags: MW
LayerCount: 2
Fore
SplineSet
95 122 m 2
 95 559 l 2
 95 634 89 637 31 641 c 1
 25 647 23 663 25 671 c 1
 65 674 140 688 165 698 c 1
 174 698 178 695 178 688 c 2
 178 688 174 648 174 583 c 2
 174 122 l 2
 174 39 185 34 246 31 c 1
 252 25 252 4 246 -2 c 1
 213 -1 175 0 135 0 c 0
 95 0 58 -1 23 -2 c 1
 17 4 17 25 23 31 c 1
 84 34 95 39 95 122 c 2
82 -156 m 0
 82 -132 110 -108 134 -108 c 0
 161 -108 182 -136 182 -160 c 0
 182 -181.1 158 -208 130 -208 c 0
 106 -208 82 -182 82 -156 c 0
231 736 m 2
 7 736 l 2
 -2 736 -6 747 -6 754 c 0
 -6 766 5 786 16 786 c 2
 241 786 l 2
 251 786 255 775 255 769 c 0
 255 757 244 736 231 736 c 2
EndSplineSet
Colour: ff00ff
EndChar

StartChar: uni1E3A
Encoding: 7738 7738 187
Width: 528
GlyphClass: 2
Flags: MW
LayerCount: 2
Fore
SplineSet
368 -131 m 2
 163 -131 l 2
 155 -131 151 -123 151 -116 c 0
 151 -104 161 -87 173 -87 c 2
 378 -87 l 2
 387 -87 391 -94 391 -101 c 0
 391 -113 381 -131 368 -131 c 2
149 0 m 2
 115.3 0 58 -1 19 -2 c 1
 13 4 13 25 19 31 c 1
 89 34 106 39 106 122 c 2
 106 523 l 2
 106 606 89 611 19 614 c 1
 13 620 13 641 19 647 c 1
 65 646 111.9 645 148 645 c 0
 186.1 645 233 646 278 647 c 1
 284 641 284 620 278 614 c 1
 208 611 191 606 191 523 c 2
 191 109 l 2
 191 58 209 39 248 39 c 2
 311 39 l 2
 417 39 454 98 474 170 c 1
 486.4 171.8 497.2 169.7 507 165 c 1
 501 113 491 48 481 -2 c 1
 481 -2 389 0 361.7 0 c 2
 149 0 l 2
EndSplineSet
Colour: ff00ff
EndChar

StartChar: uni1E3B
Encoding: 7739 7739 188
Width: 264
GlyphClass: 2
Flags: MW
LayerCount: 2
Fore
SplineSet
95 122 m 2
 95 559 l 2
 95 634 89 637 31 641 c 1
 25 647 23 663 25 671 c 1
 65 674 140 688 165 698 c 1
 174 698 178 695 178 688 c 2
 178 688 174 648 174 583 c 2
 174 122 l 2
 174 39 185 34 246 31 c 1
 252 25 252 4 246 -2 c 1
 213 -1 175 0 135 0 c 0
 95 0 58 -1 23 -2 c 1
 17 4 17 25 23 31 c 1
 84 34 95 39 95 122 c 2
227 -131 m 2
 22 -131 l 2
 14 -131 10 -123 10 -116 c 0
 10 -104 20 -87 32 -87 c 2
 237 -87 l 2
 246 -87 250 -94 250 -101 c 0
 250 -113 240 -131 227 -131 c 2
EndSplineSet
Colour: ff00ff
EndChar

StartChar: uni1E3C
Encoding: 7740 7740 189
Width: 528
GlyphClass: 2
Flags: MW
LayerCount: 2
Fore
SplineSet
298 -43 m 1
 327 -90 371 -143 407 -183 c 1
 402 -190 393.4 -198.1 384 -200 c 1
 346 -176 311 -148 281 -117 c 1
 249 -149 216 -178 177 -200 c 1
 168 -198 161 -192 155 -183 c 1
 191 -143 237 -89 266 -43 c 1
 276.7 -40.7 287.3 -40 298 -43 c 1
149 0 m 2
 115.3 0 58 -1 19 -2 c 1
 13 4 13 25 19 31 c 1
 89 34 106 39 106 122 c 2
 106 523 l 2
 106 606 89 611 19 614 c 1
 13 620 13 641 19 647 c 1
 65 646 111.9 645 148 645 c 0
 186.1 645 233 646 278 647 c 1
 284 641 284 620 278 614 c 1
 208 611 191 606 191 523 c 2
 191 109 l 2
 191 58 209 39 248 39 c 2
 311 39 l 2
 417 39 454 98 474 170 c 1
 486.4 171.8 497.2 169.7 507 165 c 1
 501 113 491 48 481 -2 c 1
 481 -2 389 0 361.7 0 c 2
 149 0 l 2
EndSplineSet
Colour: ff00ff
EndChar

StartChar: uni1E3D
Encoding: 7741 7741 190
Width: 264
GlyphClass: 2
Flags: MW
LayerCount: 2
Fore
SplineSet
95 122 m 2
 95 559 l 2
 95 634 89 637 31 641 c 1
 25 647 23 663 25 671 c 1
 65 674 140 688 165 698 c 1
 174 698 178 695 178 688 c 2
 178 688 174 648 174 583 c 2
 174 122 l 2
 174 39 185 34 246 31 c 1
 252 25 252 4 246 -2 c 1
 213 -1 175 0 135 0 c 0
 95 0 58 -1 23 -2 c 1
 17 4 17 25 23 31 c 1
 84 34 95 39 95 122 c 2
149 -43 m 1
 178 -90 222 -143 258 -183 c 1
 253 -190 244.4 -198.1 235 -200 c 1
 197 -176 162 -148 132 -117 c 1
 100 -149 67 -178 28 -200 c 1
 19 -198 12 -192 6 -183 c 1
 42 -143 88 -89 117 -43 c 1
 127.7 -40.7 138.3 -40 149 -43 c 1
EndSplineSet
Colour: ff00ff
EndChar

StartChar: uni1E3E
Encoding: 7742 7742 191
Width: 839
GlyphClass: 2
Flags: MW
LayerCount: 2
Fore
SplineSet
464 819 m 1
 492.6 805.7 513.3 788.3 526 767 c 1
 382 709 l 2
 361 700 349 697 340 697 c 0
 331 697 325 704 325 712 c 0
 325 719 327 724 340 733 c 2
 464 819 l 1
662.7 116 m 2
 637 534 l 1
 635 534 l 1
 410 5 l 2
 406 -3 402 -10 396 -10 c 0
 390 -10 383.8 -2.1 381 5 c 2
 174 524 l 1
 172 524 l 1
 134 123 l 2
 128.6 66.7 134 36 200 31 c 1
 206 25 206 4 200 -2 c 1
 170 -1 130 0 106 0 c 0
 82 0 50 -1 20 -2 c 1
 14 4 14 25 20 31 c 1
 77 36 89 61.1 94.9 121 c 2
 135 533 l 2
 142 608 136 610 67 614 c 1
 61 620 61 641 67 647 c 1
 212 645 l 1
 417 137 l 2
 420.1 129.4 423 124 425 124 c 0
 427 124 430 128 434 138 c 2
 646 645 l 1
 777 647 l 1
 783 641 783 620 777 614 c 1
 709 610 704 596 708.3 542 c 2
 738.1 121 l 2
 743.9 38.2 747 34 815 31 c 1
 821 25 821 4 815 -2 c 1
 781.8 -1 736 0 706 0 c 0
 676 0 636 -1 599 -2 c 1
 593 4 593 25 599 31 c 1
 664 34 667.7 35 662.7 116 c 2
EndSplineSet
Colour: ff00ff
EndChar

StartChar: uni1E3F
Encoding: 7743 7743 192
Width: 790
GlyphClass: 2
Flags: MW
LayerCount: 2
Fore
SplineSet
405 671 m 1
 408 672 414 673 419 673 c 0
 425.4 673 451 672 474 650 c 1
 477 639 l 1
 362 530 l 2
 347 515 339 511 332 511 c 0
 325 511 318 517 318 524 c 0
 318 535.2 321.3 539.2 329.4 552 c 2
 405 671 l 1
170 358 m 0
 170.5 346 177.4 352.9 182 358 c 0
 223.7 404.6 276 439 334 439 c 0
 386 439 424.5 406.6 434 365.6 c 0
 436 357 442 362 445 365.2 c 0
 497.1 420.2 558.8 439 610 439 c 0
 698 439 713 369 713 280 c 2
 713 122 l 2
 713 40 722 35 777 31 c 1
 782 25 782 4 777 -2 c 1
 749 -1 714 0 674 0 c 0
 634 0 597 -1 572 -2 c 1
 567 4 567 25 572 31 c 1
 624 35 634 40 634 122 c 2
 634 298 l 2
 634 365 612 387 574 387 c 0
 535 387 490 374 442 321 c 1
 443 309 443 295 443 281 c 2
 443 122 l 2
 443 40 452 35 502 31 c 1
 507 25 507 4 502 -2 c 1
 477 -1 444 0 404 0 c 0
 364 0 327 -1 302 -2 c 1
 297 4 297 25 302 31 c 1
 356 35 364 40 364 122 c 2
 364 296 l 2
 364 363 336 387 298 387 c 0
 267.1 387 229.6 366.7 190 328 c 0
 182 319.3 173 307 173 286 c 2
 173 122 l 2
 173 40 184 36 234.8 31 c 1
 240.8 25 240.8 4 234.8 -2 c 1
 204.8 -1 174 0 134 0 c 0
 94 0 56 -1 26 -2 c 1
 20 4 20 25 26 31 c 1
 81 35 94 40 94 122 c 2
 94 317 l 2
 94 375 83 380 29 385 c 1
 27 391 25 407 27 413 c 1
 96 422 122 431 150 442 c 1
 158 442 159.9 438.6 162 434 c 0
 166.7 423.7 168.7 387.7 170 358 c 0
EndSplineSet
Colour: ff00ff
EndChar

StartChar: uni1E40
Encoding: 7744 7744 193
Width: 839
GlyphClass: 2
Flags: MW
LayerCount: 2
Fore
SplineSet
371 754 m 0
 371 782 395 806 423 806 c 0
 451 806 475 782 475 754 c 0
 475 726 451 702 423 702 c 0
 395 702 371 726 371 754 c 0
662.7 116 m 2
 637 534 l 1
 635 534 l 1
 410 5 l 2
 406 -3 402 -10 396 -10 c 0
 390 -10 383.8 -2.1 381 5 c 2
 174 524 l 1
 172 524 l 1
 134 123 l 2
 128.6 66.7 134 36 200 31 c 1
 206 25 206 4 200 -2 c 1
 170 -1 130 0 106 0 c 0
 82 0 50 -1 20 -2 c 1
 14 4 14 25 20 31 c 1
 77 36 89 61.1 94.9 121 c 2
 135 533 l 2
 142 608 136 610 67 614 c 1
 61 620 61 641 67 647 c 1
 212 645 l 1
 417 137 l 2
 420.1 129.4 423 124 425 124 c 0
 427 124 430 128 434 138 c 2
 646 645 l 1
 777 647 l 1
 783 641 783 620 777 614 c 1
 709 610 704 596 708.3 542 c 2
 738.1 121 l 2
 743.9 38.2 747 34 815 31 c 1
 821 25 821 4 815 -2 c 1
 781.8 -1 736 0 706 0 c 0
 676 0 636 -1 599 -2 c 1
 593 4 593 25 599 31 c 1
 664 34 667.7 35 662.7 116 c 2
EndSplineSet
Colour: ff00ff
EndChar

StartChar: uni1E41
Encoding: 7745 7745 194
Width: 790
GlyphClass: 2
Flags: MW
LayerCount: 2
Fore
SplineSet
342 599 m 0
 342 623 370 647 394 647 c 0
 421 647 442 619 442 595 c 0
 442 573.9 418 547 390 547 c 0
 366 547 342 573 342 599 c 0
170 358 m 0
 170.5 346 177.4 352.9 182 358 c 0
 223.7 404.6 276 439 334 439 c 0
 386 439 424.5 406.6 434 365.6 c 0
 436 357 442 362 445 365.2 c 0
 497.1 420.2 558.8 439 610 439 c 0
 698 439 713 369 713 280 c 2
 713 122 l 2
 713 40 722 35 777 31 c 1
 782 25 782 4 777 -2 c 1
 749 -1 714 0 674 0 c 0
 634 0 597 -1 572 -2 c 1
 567 4 567 25 572 31 c 1
 624 35 634 40 634 122 c 2
 634 298 l 2
 634 365 612 387 574 387 c 0
 535 387 490 374 442 321 c 1
 443 309 443 295 443 281 c 2
 443 122 l 2
 443 40 452 35 502 31 c 1
 507 25 507 4 502 -2 c 1
 477 -1 444 0 404 0 c 0
 364 0 327 -1 302 -2 c 1
 297 4 297 25 302 31 c 1
 356 35 364 40 364 122 c 2
 364 296 l 2
 364 363 336 387 298 387 c 0
 267.1 387 229.6 366.7 190 328 c 0
 182 319.3 173 307 173 286 c 2
 173 122 l 2
 173 40 184 36 234.8 31 c 1
 240.8 25 240.8 4 234.8 -2 c 1
 204.8 -1 174 0 134 0 c 0
 94 0 56 -1 26 -2 c 1
 20 4 20 25 26 31 c 1
 81 35 94 40 94 122 c 2
 94 317 l 2
 94 375 83 380 29 385 c 1
 27 391 25 407 27 413 c 1
 96 422 122 431 150 442 c 1
 158 442 159.9 438.6 162 434 c 0
 166.7 423.7 168.7 387.7 170 358 c 0
EndSplineSet
Colour: ff00ff
EndChar

StartChar: uni1E42
Encoding: 7746 7746 195
Width: 839
GlyphClass: 2
Flags: MW
LayerCount: 2
Fore
SplineSet
346 -156 m 0
 346 -132 374 -108 398 -108 c 0
 425 -108 446 -136 446 -160 c 0
 446 -181.1 422 -208 394 -208 c 0
 370 -208 346 -182 346 -156 c 0
662.7 116 m 2
 637 534 l 1
 635 534 l 1
 410 5 l 2
 406 -3 402 -10 396 -10 c 0
 390 -10 383.8 -2.1 381 5 c 2
 174 524 l 1
 172 524 l 1
 134 123 l 2
 128.6 66.7 134 36 200 31 c 1
 206 25 206 4 200 -2 c 1
 170 -1 130 0 106 0 c 0
 82 0 50 -1 20 -2 c 1
 14 4 14 25 20 31 c 1
 77 36 89 61.1 94.9 121 c 2
 135 533 l 2
 142 608 136 610 67 614 c 1
 61 620 61 641 67 647 c 1
 212 645 l 1
 417 137 l 2
 420.1 129.4 423 124 425 124 c 0
 427 124 430 128 434 138 c 2
 646 645 l 1
 777 647 l 1
 783 641 783 620 777 614 c 1
 709 610 704 596 708.3 542 c 2
 738.1 121 l 2
 743.9 38.2 747 34 815 31 c 1
 821 25 821 4 815 -2 c 1
 781.8 -1 736 0 706 0 c 0
 676 0 636 -1 599 -2 c 1
 593 4 593 25 599 31 c 1
 664 34 667.7 35 662.7 116 c 2
EndSplineSet
Colour: ff00ff
EndChar

StartChar: uni1E44
Encoding: 7748 7748 197
Width: 699
GlyphClass: 2
Flags: MW
LayerCount: 2
Fore
SplineSet
304 754 m 0
 304 782 328 806 356 806 c 0
 384 806 408 782 408 754 c 0
 408 726 384 702 356 702 c 0
 328 702 304 726 304 754 c 0
556 512 m 2
 556 603 539 607 469 614 c 1
 463 620 463 641 469 647 c 1
 513 646 558.7 645 580 645 c 0
 603.7 645 651 646 692 647 c 1
 698 641 698 620 692 614 c 1
 622 607 605 601 605 512 c 2
 605 21 l 2
 605 2 596 -10 582 -10 c 0
 566 -10 553 -1 542 14 c 2
 193 455 l 2
 176 477 165 488 159 488 c 0
 151 488 151 473 151 439 c 2
 151 133 l 2
 151 42 168 38 238 31 c 1
 244 25 244 4 238 -2 c 1
 196 -1 150.1 0 127 0 c 0
 103.4 0 58 -1 15 -2 c 1
 9 4 9 25 15 31 c 1
 85 38 102 44 102 133 c 2
 102 550 l 1
 96 576 66 611 23 614 c 1
 17 620 17 641 23 647 c 1
 158 645 l 1
 501 210 l 2
 530 173 545 155 549 155 c 0
 556 155 556 166 556 185 c 2
 556 512 l 2
EndSplineSet
Colour: ff00ff
EndChar

StartChar: uni1E45
Encoding: 7749 7749 198
Width: 542
GlyphClass: 2
Flags: MW
LayerCount: 2
Fore
SplineSet
238 599 m 0
 238 623 266 647 290 647 c 0
 317 647 338 619 338 595 c 0
 338 573.9 314 547 286 547 c 0
 262 547 238 573 238 599 c 0
184 358 m 0
 243.3 426 299 439 348 439 c 0
 383 439 414 427 431 405 c 0
 454 374 458 326 458 271 c 2
 458 122 l 2
 458 40 469 36 525 31 c 1
 530 25 530 4 525 -2 c 1
 495 -1 459 0 419 0 c 0
 379 0 347 -1 317 -2 c 1
 312 4 312 25 317 31 c 1
 369 36 379 40 379 122 c 2
 379 274 l 2
 379 304 377 331 367 351 c 0
 355 374 334 387 314 387 c 0
 275 387 230 365 192 328 c 0
 184 319 175 307 175 286 c 2
 175 122 l 2
 175 40 185 36 236 31 c 1
 242 25 242 4 236 -2 c 1
 206 -1 176 0 136 0 c 0
 96 0 56 -1 26 -2 c 1
 20 4 20 25 26 31 c 1
 86 36 96 40 96 122 c 2
 96 317 l 2
 96 375 85 380 31 385 c 1
 29 391 27 407 29 413 c 1
 98 422 124 431 152 442 c 1
 160 442 161.9 438.6 164 434 c 0
 168.7 423.7 171 385 172 358 c 0
 172.3 348.6 177.9 351 184 358 c 0
EndSplineSet
Colour: ff00ff
EndChar

StartChar: uni1E46
Encoding: 7750 7750 199
Width: 699
GlyphClass: 2
Flags: MW
LayerCount: 2
Fore
SplineSet
300 -156 m 0
 300 -132 328 -108 352 -108 c 0
 379 -108 400 -136 400 -160 c 0
 400 -181.1 376 -208 348 -208 c 0
 324 -208 300 -182 300 -156 c 0
556 512 m 2
 556 603 539 607 469 614 c 1
 463 620 463 641 469 647 c 1
 513 646 558.7 645 580 645 c 0
 603.7 645 651 646 692 647 c 1
 698 641 698 620 692 614 c 1
 622 607 605 601 605 512 c 2
 605 21 l 2
 605 2 596 -10 582 -10 c 0
 566 -10 553 -1 542 14 c 2
 193 455 l 2
 176 477 165 488 159 488 c 0
 151 488 151 473 151 439 c 2
 151 133 l 2
 151 42 168 38 238 31 c 1
 244 25 244 4 238 -2 c 1
 196 -1 150.1 0 127 0 c 0
 103.4 0 58 -1 15 -2 c 1
 9 4 9 25 15 31 c 1
 85 38 102 44 102 133 c 2
 102 550 l 1
 96 576 66 611 23 614 c 1
 17 620 17 641 23 647 c 1
 158 645 l 1
 501 210 l 2
 530 173 545 155 549 155 c 0
 556 155 556 166 556 185 c 2
 556 512 l 2
EndSplineSet
Colour: ff00ff
EndChar

StartChar: uni1E47
Encoding: 7751 7751 200
Width: 542
GlyphClass: 2
Flags: MW
LayerCount: 2
Fore
SplineSet
215 -156 m 0
 215 -132 243 -108 267 -108 c 0
 294 -108 315 -136 315 -160 c 0
 315 -181.1 291 -208 263 -208 c 0
 239 -208 215 -182 215 -156 c 0
184 358 m 0
 243.3 426 299 439 348 439 c 0
 383 439 414 427 431 405 c 0
 454 374 458 326 458 271 c 2
 458 122 l 2
 458 40 469 36 525 31 c 1
 530 25 530 4 525 -2 c 1
 495 -1 459 0 419 0 c 0
 379 0 347 -1 317 -2 c 1
 312 4 312 25 317 31 c 1
 369 36 379 40 379 122 c 2
 379 274 l 2
 379 304 377 331 367 351 c 0
 355 374 334 387 314 387 c 0
 275 387 230 365 192 328 c 0
 184 319 175 307 175 286 c 2
 175 122 l 2
 175 40 185 36 236 31 c 1
 242 25 242 4 236 -2 c 1
 206 -1 176 0 136 0 c 0
 96 0 56 -1 26 -2 c 1
 20 4 20 25 26 31 c 1
 86 36 96 40 96 122 c 2
 96 317 l 2
 96 375 85 380 31 385 c 1
 29 391 27 407 29 413 c 1
 98 422 124 431 152 442 c 1
 160 442 161.9 438.6 164 434 c 0
 168.7 423.7 171 385 172 358 c 0
 172.3 348.6 177.9 351 184 358 c 0
EndSplineSet
Colour: ff00ff
EndChar

StartChar: uni1E48
Encoding: 7752 7752 201
Width: 699
GlyphClass: 2
Flags: MW
LayerCount: 2
Fore
SplineSet
453 -131 m 2
 248 -131 l 2
 240 -131 236 -123 236 -116 c 0
 236 -104 246 -87 258 -87 c 2
 463 -87 l 2
 472 -87 476 -94 476 -101 c 0
 476 -113 466 -131 453 -131 c 2
556 512 m 2
 556 603 539 607 469 614 c 1
 463 620 463 641 469 647 c 1
 513 646 558.7 645 580 645 c 0
 603.7 645 651 646 692 647 c 1
 698 641 698 620 692 614 c 1
 622 607 605 601 605 512 c 2
 605 21 l 2
 605 2 596 -10 582 -10 c 0
 566 -10 553 -1 542 14 c 2
 193 455 l 2
 176 477 165 488 159 488 c 0
 151 488 151 473 151 439 c 2
 151 133 l 2
 151 42 168 38 238 31 c 1
 244 25 244 4 238 -2 c 1
 196 -1 150.1 0 127 0 c 0
 103.4 0 58 -1 15 -2 c 1
 9 4 9 25 15 31 c 1
 85 38 102 44 102 133 c 2
 102 550 l 1
 96 576 66 611 23 614 c 1
 17 620 17 641 23 647 c 1
 158 645 l 1
 501 210 l 2
 530 173 545 155 549 155 c 0
 556 155 556 166 556 185 c 2
 556 512 l 2
EndSplineSet
Colour: ff00ff
EndChar

StartChar: uni1E49
Encoding: 7753 7753 202
Width: 542
GlyphClass: 2
Flags: MW
LayerCount: 2
Fore
SplineSet
359 -131 m 2
 154 -131 l 2
 146 -131 142 -123 142 -116 c 0
 142 -104 152 -87 164 -87 c 2
 369 -87 l 2
 378 -87 382 -94 382 -101 c 0
 382 -113 372 -131 359 -131 c 2
184 358 m 0
 243.3 426 299 439 348 439 c 0
 383 439 414 427 431 405 c 0
 454 374 458 326 458 271 c 2
 458 122 l 2
 458 40 469 36 525 31 c 1
 530 25 530 4 525 -2 c 1
 495 -1 459 0 419 0 c 0
 379 0 347 -1 317 -2 c 1
 312 4 312 25 317 31 c 1
 369 36 379 40 379 122 c 2
 379 274 l 2
 379 304 377 331 367 351 c 0
 355 374 334 387 314 387 c 0
 275 387 230 365 192 328 c 0
 184 319 175 307 175 286 c 2
 175 122 l 2
 175 40 185 36 236 31 c 1
 242 25 242 4 236 -2 c 1
 206 -1 176 0 136 0 c 0
 96 0 56 -1 26 -2 c 1
 20 4 20 25 26 31 c 1
 86 36 96 40 96 122 c 2
 96 317 l 2
 96 375 85 380 31 385 c 1
 29 391 27 407 29 413 c 1
 98 422 124 431 152 442 c 1
 160 442 161.9 438.6 164 434 c 0
 168.7 423.7 171 385 172 358 c 0
 172.3 348.6 177.9 351 184 358 c 0
EndSplineSet
Colour: ff00ff
EndChar

StartChar: uni1E4A
Encoding: 7754 7754 203
Width: 699
GlyphClass: 2
Flags: MW
LayerCount: 2
Fore
SplineSet
367 -43 m 1
 396 -90 440 -143 476 -183 c 1
 471 -190 462.4 -198.1 453 -200 c 1
 415 -176 380 -148 350 -117 c 1
 318 -149 285 -178 246 -200 c 1
 237 -198 230 -192 224 -183 c 1
 260 -143 306 -89 335 -43 c 1
 345.7 -40.7 356.3 -40 367 -43 c 1
556 512 m 2
 556 603 539 607 469 614 c 1
 463 620 463 641 469 647 c 1
 513 646 558.7 645 580 645 c 0
 603.7 645 651 646 692 647 c 1
 698 641 698 620 692 614 c 1
 622 607 605 601 605 512 c 2
 605 21 l 2
 605 2 596 -10 582 -10 c 0
 566 -10 553 -1 542 14 c 2
 193 455 l 2
 176 477 165 488 159 488 c 0
 151 488 151 473 151 439 c 2
 151 133 l 2
 151 42 168 38 238 31 c 1
 244 25 244 4 238 -2 c 1
 196 -1 150.1 0 127 0 c 0
 103.4 0 58 -1 15 -2 c 1
 9 4 9 25 15 31 c 1
 85 38 102 44 102 133 c 2
 102 550 l 1
 96 576 66 611 23 614 c 1
 17 620 17 641 23 647 c 1
 158 645 l 1
 501 210 l 2
 530 173 545 155 549 155 c 0
 556 155 556 166 556 185 c 2
 556 512 l 2
EndSplineSet
Colour: ff00ff
EndChar

StartChar: uni1E4B
Encoding: 7755 7755 204
Width: 542
GlyphClass: 2
Flags: MW
LayerCount: 2
Fore
SplineSet
285 -43 m 1
 314 -90 358 -143 394 -183 c 1
 389 -190 380.4 -198.1 371 -200 c 1
 333 -176 298 -148 268 -117 c 1
 236 -149 203 -178 164 -200 c 1
 155 -198 148 -192 142 -183 c 1
 178 -143 224 -89 253 -43 c 1
 263.7 -40.7 274.3 -40 285 -43 c 1
184 358 m 0
 243.3 426 299 439 348 439 c 0
 383 439 414 427 431 405 c 0
 454 374 458 326 458 271 c 2
 458 122 l 2
 458 40 469 36 525 31 c 1
 530 25 530 4 525 -2 c 1
 495 -1 459 0 419 0 c 0
 379 0 347 -1 317 -2 c 1
 312 4 312 25 317 31 c 1
 369 36 379 40 379 122 c 2
 379 274 l 2
 379 304 377 331 367 351 c 0
 355 374 334 387 314 387 c 0
 275 387 230 365 192 328 c 0
 184 319 175 307 175 286 c 2
 175 122 l 2
 175 40 185 36 236 31 c 1
 242 25 242 4 236 -2 c 1
 206 -1 176 0 136 0 c 0
 96 0 56 -1 26 -2 c 1
 20 4 20 25 26 31 c 1
 86 36 96 40 96 122 c 2
 96 317 l 2
 96 375 85 380 31 385 c 1
 29 391 27 407 29 413 c 1
 98 422 124 431 152 442 c 1
 160 442 161.9 438.6 164 434 c 0
 168.7 423.7 171 385 172 358 c 0
 172.3 348.6 177.9 351 184 358 c 0
EndSplineSet
Colour: ff00ff
EndChar

StartChar: uni1E4C
Encoding: 7756 7756 205
Width: 702
GlyphClass: 2
Flags: MW
LayerCount: 2
Fore
SplineSet
400.7 748.1 m 0
 419.4 748.1 428.7 759.1 440.6 805.3 c 1
 450 806.4 458.4 803.1 463.5 798.7 c 1
 453.3 732.7 428.7 689.8 389.6 689.8 c 0
 370.9 689.8 353 709.6 335.2 725 c 0
 319.9 737.1 303.8 745.9 289.3 745.9 c 0
 267.2 745.9 258.7 729.4 250.2 693.1 c 1
 240.8 690.9 232.3 692 227.2 698.6 c 1
 239.1 763.5 258.7 806.4 295.2 806.4 c 0
 320.7 806.4 339.5 784.4 356.5 769 c 0
 370.1 755.8 384.5 748.1 400.7 748.1 c 0
331 622 m 0
 232 622 133 537 133 327 c 0
 133 135 248 26 370 26 c 0
 484 26 570 131 570 310 c 0
 570 512 463 622 331 622 c 0
666 329 m 0
 666 245 644 172.7 604.2 116 c 0
 549.3 37.7 460.8 -10 350 -10 c 0
 180 -10 37 113 37 310 c 0
 37 503.9 150.3 658 344 658 c 0
 523 658 666 536 666 329 c 0
608.1 804.9 m 1
 630.2 793.2 646.1 777.9 655.9 759.1 c 1
 545 708 l 2
 528.8 700.1 519.5 697.5 512.6 697.5 c 0
 505.7 697.5 501.1 703.7 501.1 710.7 c 0
 501.1 716.9 502.6 721.3 512.6 729.2 c 2
 608.1 804.9 l 1
EndSplineSet
Colour: ff00ff
EndChar

StartChar: uni1E4D
Encoding: 7757 7757 206
Width: 504
GlyphClass: 2
Flags: MW
LayerCount: 2
Fore
SplineSet
304 551 m 0
 326 551 337 561 351 603 c 1
 362 604 372 601 378 597 c 1
 366 537 337 498 291 498 c 0
 269 498 248 516 227 530 c 0
 209 541 190 549 173 549 c 0
 147 549 137 534 127 501 c 1
 116 499 106 500 100 506 c 1
 114 565 137 604 180 604 c 0
 210 604 232 584 252 570 c 0
 268 558 285 551 304 551 c 0
41 205 m 0
 41 268.2 60 326.4 96.3 369 c 0
 132.9 412 187.2 439 253 439 c 0
 406 439 463 318 463 214 c 0
 463 152.7 442.7 89.8 397.9 46 c 0
 363.8 12.7 315.4 -10 251 -10 c 0
 109 -10 41 103 41 205 c 0
238 404 m 0
 148 404 127 315 127 228 c 0
 127 151 161 25 265 25 c 0
 312 25 377 56 377 182 c 0
 377 326 324 404 238 404 c 0
341 750 m 1
 343.3 750.9 347.8 751.8 351.7 751.8 c 0
 356.6 751.8 376.4 751 394.1 731.6 c 1
 396.4 721.9 l 1
 307.8 626 l 2
 296.3 612.8 290.2 609.2 284.8 609.2 c 0
 279.4 609.2 274 614.5 274 620.7 c 0
 274 630.6 276.5 634 282.8 645.3 c 2
 341 750 l 1
EndSplineSet
Colour: ff00ff
EndChar

StartChar: uni1E4E
Encoding: 7758 7758 207
Width: 702
GlyphClass: 2
Flags: MW
LayerCount: 2
Fore
SplineSet
511 752 m 0
 511 777 532 798 557 798 c 0
 582 798 603 777 603 752 c 0
 603 727 582 706 557 706 c 0
 532 706 511 727 511 752 c 0
101 752 m 0
 101 777 122 798 147 798 c 0
 172 798 193 777 193 752 c 0
 193 727 172 706 147 706 c 0
 122 706 101 727 101 752 c 0
400.7 748.1 m 0
 419.4 748.1 428.7 759.1 440.6 805.3 c 1
 450 806.4 458.4 803.1 463.5 798.7 c 1
 453.3 732.7 428.7 689.8 389.6 689.8 c 0
 370.9 689.8 353 709.6 335.2 725 c 0
 319.9 737.1 303.8 745.9 289.3 745.9 c 0
 267.2 745.9 258.7 729.4 250.2 693.1 c 1
 240.8 690.9 232.3 692 227.2 698.6 c 1
 239.1 763.5 258.7 806.4 295.2 806.4 c 0
 320.7 806.4 339.5 784.4 356.5 769 c 0
 370.1 755.8 384.5 748.1 400.7 748.1 c 0
331 622 m 0
 232 622 133 537 133 327 c 0
 133 135 248 26 370 26 c 0
 484 26 570 131 570 310 c 0
 570 512 463 622 331 622 c 0
666 329 m 0
 666 245 644 172.7 604.2 116 c 0
 549.3 37.7 460.8 -10 350 -10 c 0
 180 -10 37 113 37 310 c 0
 37 503.9 150.3 658 344 658 c 0
 523 658 666 536 666 329 c 0
EndSplineSet
Colour: ff9ccc
EndChar

StartChar: uni1E4F
Encoding: 7759 7759 208
Width: 504
GlyphClass: 2
Flags: MW
LayerCount: 2
Fore
SplineSet
304 551 m 0
 326 551 337 561 351 603 c 1
 362 604 372 601 378 597 c 1
 366 537 337 498 291 498 c 0
 269 498 248 516 227 530 c 0
 209 541 190 549 173 549 c 0
 147 549 137 534 127 501 c 1
 116 499 106 500 100 506 c 1
 114 565 137 604 180 604 c 0
 210 604 232 584 252 570 c 0
 268 558 285 551 304 551 c 0
41 205 m 0
 41 268.2 60 326.4 96.3 369 c 0
 132.9 412 187.2 439 253 439 c 0
 406 439 463 318 463 214 c 0
 463 152.7 442.7 89.8 397.9 46 c 0
 363.8 12.7 315.4 -10 251 -10 c 0
 109 -10 41 103 41 205 c 0
238 404 m 0
 148 404 127 315 127 228 c 0
 127 151 161 25 265 25 c 0
 312 25 377 56 377 182 c 0
 377 326 324 404 238 404 c 0
110 682 m 0
 110 708 131 730 157 730 c 0
 183 730 204 708 204 682 c 0
 204 656 183 635 157 635 c 0
 131 635 110 656 110 682 c 0
279 682 m 0
 279 708 300 730 326 730 c 0
 352 730 373 708 373 682 c 0
 373 656 352 635 326 635 c 0
 300 635 279 656 279 682 c 0
EndSplineSet
Colour: ff00ff
EndChar

StartChar: uni1E50
Encoding: 7760 7760 209
Width: 702
GlyphClass: 2
Flags: MW
LayerCount: 2
Fore
SplineSet
442.3 745 m 2
 252 745 l 2
 244.3 745 240.9 756 240.9 763 c 0
 240.9 775 250.3 795 259.6 795 c 2
 450.8 795 l 2
 459.3 795 462.7 784 462.7 778 c 0
 462.7 766 453.4 745 442.3 745 c 2
331 622 m 0
 232 622 133 537 133 327 c 0
 133 135 248 26 370 26 c 0
 484 26 570 131 570 310 c 0
 570 512 463 622 331 622 c 0
666 329 m 0
 666 245 644 172.7 604.2 116 c 0
 549.3 37.7 460.8 -10 350 -10 c 0
 180 -10 37 113 37 310 c 0
 37 503.9 150.3 658 344 658 c 0
 523 658 666 536 666 329 c 0
95.9 805.1 m 1
 189.1 731.2 l 2
 197.6 724.2 200.6 718.9 200.6 712.7 c 0
 200.6 705.7 195.3 699.5 189.1 699.5 c 0
 182.9 699.5 172.2 702.1 156 710 c 2
 37.4 765.5 l 1
 51.5 781.1 69.6 794.9 95.9 805.1 c 1
EndSplineSet
Colour: ff00ff
EndChar

StartChar: uni1E51
Encoding: 7761 7761 210
Width: 504
GlyphClass: 2
Flags: MW
LayerCount: 2
Fore
SplineSet
213.9 758 m 1
 267.8 647.2 l 2
 271.6 638.4 272.4 632.2 272.4 626 c 0
 272.4 621.6 267 616.4 260.8 616.4 c 0
 256.2 616.4 250.8 620.8 238.5 634 c 2
 150.7 729.9 l 1
 152.3 739.6 l 1
 158.5 744.9 176.1 759.8 202.3 759.8 c 0
 206.1 759.8 210.8 758.9 213.9 758 c 1
360 518 m 2
 136 518 l 2
 127 518 123 529 123 536 c 0
 123 548 134 568 145 568 c 2
 370 568 l 2
 380 568 384 557 384 551 c 0
 384 539 373 518 360 518 c 2
41 205 m 0
 41 268.2 60 326.4 96.3 369 c 0
 132.9 412 187.2 439 253 439 c 0
 406 439 463 318 463 214 c 0
 463 152.7 442.7 89.8 397.9 46 c 0
 363.8 12.7 315.4 -10 251 -10 c 0
 109 -10 41 103 41 205 c 0
238 404 m 0
 148 404 127 315 127 228 c 0
 127 151 161 25 265 25 c 0
 312 25 377 56 377 182 c 0
 377 326 324 404 238 404 c 0
EndSplineSet
Colour: ff00ff
EndChar

StartChar: uni1E52
Encoding: 7762 7762 211
Width: 702
GlyphClass: 2
Flags: MW
LayerCount: 2
Fore
SplineSet
420.3 745 m 2
 230 745 l 2
 222.3 745 218.9 756 218.9 763 c 0
 218.9 775 228.3 795 237.6 795 c 2
 428.8 795 l 2
 437.3 795 440.7 784 440.7 778 c 0
 440.7 766 431.4 745 420.3 745 c 2
331 622 m 0
 232 622 133 537 133 327 c 0
 133 135 248 26 370 26 c 0
 484 26 570 131 570 310 c 0
 570 512 463 622 331 622 c 0
666 329 m 0
 666 245 644 172.7 604.2 116 c 0
 549.3 37.7 460.8 -10 350 -10 c 0
 180 -10 37 113 37 310 c 0
 37 503.9 150.3 658 344 658 c 0
 523 658 666 536 666 329 c 0
603.1 804.9 m 1
 625.2 793.2 641.1 777.9 650.9 759.1 c 1
 540 708 l 2
 523.8 700.1 514.5 697.5 507.6 697.5 c 0
 500.7 697.5 496.1 703.7 496.1 710.7 c 0
 496.1 716.9 497.6 721.3 507.6 729.2 c 2
 603.1 804.9 l 1
EndSplineSet
Colour: ff00ff
EndChar

StartChar: uni1E53
Encoding: 7763 7763 212
Width: 504
GlyphClass: 2
Flags: MW
LayerCount: 2
Fore
SplineSet
273 767 m 1
 275.3 767.9 279.8 768.8 283.7 768.8 c 0
 288.6 768.8 308.4 768 326.1 748.6 c 1
 328.4 738.9 l 1
 239.8 643 l 2
 228.3 629.8 222.2 626.2 216.8 626.2 c 0
 211.4 626.2 206 631.5 206 637.7 c 0
 206 647.6 208.5 651 214.8 662.3 c 2
 273 767 l 1
360 518 m 2
 136 518 l 2
 127 518 123 529 123 536 c 0
 123 548 134 568 145 568 c 2
 370 568 l 2
 380 568 384 557 384 551 c 0
 384 539 373 518 360 518 c 2
41 205 m 0
 41 268.2 60 326.4 96.3 369 c 0
 132.9 412 187.2 439 253 439 c 0
 406 439 463 318 463 214 c 0
 463 152.7 442.7 89.8 397.9 46 c 0
 363.8 12.7 315.4 -10 251 -10 c 0
 109 -10 41 103 41 205 c 0
238 404 m 0
 148 404 127 315 127 228 c 0
 127 151 161 25 265 25 c 0
 312 25 377 56 377 182 c 0
 377 326 324 404 238 404 c 0
EndSplineSet
Colour: ff00ff
EndChar

StartChar: uni1E54
Encoding: 7764 7764 213
Width: 541
GlyphClass: 2
Flags: MW
LayerCount: 2
Fore
SplineSet
344 819 m 1
 372.6 805.7 393.3 788.3 406 767 c 1
 262 709 l 2
 241 700 229 697 220 697 c 0
 211 697 205 704 205 712 c 0
 205 719 207 724 220 733 c 2
 344 819 l 1
189 554 m 2
 189 321 l 1
 200 318 240 316 265 316 c 0
 362 316 414 360 414 468 c 0
 414 595 345 618 276 618 c 0
 204 618 189 583 189 554 c 2
104 523 m 2
 104 606 87 611 17 614 c 1
 11 620 11 641 17 647 c 1
 57 646 109.3 645 146 645 c 0
 186 645 244.7 652 283 652 c 0
 468 652 507 545 507 486 c 0
 507 401 452 282 270 282 c 0
 235 282 211 285 189 292 c 1
 189 122 l 2
 189 39 213 35 291 31 c 1
 297 25 297 4 291 -2 c 1
 241 -1 182.4 0 147 0 c 0
 111.3 0 62 -1 17 -2 c 1
 11 4 11 25 17 31 c 1
 87 34 104 39 104 122 c 2
 104 523 l 2
EndSplineSet
Colour: ff00ff
EndChar

StartChar: uni1E55
Encoding: 7765 7765 214
Width: 519
GlyphClass: 2
Flags: MW
LayerCount: 2
Fore
SplineSet
313 671 m 1
 316 672 322 673 327 673 c 0
 333.4 673 359 672 382 650 c 1
 385 639 l 1
 270 530 l 2
 255 515 247 511 240 511 c 0
 233 511 226 517 226 524 c 0
 226 535.2 229.3 539.2 237.4 552 c 2
 313 671 l 1
175 331 m 0
 163.4 316.7 159 308 159 287 c 2
 159 105 l 2
 159 68.9 162.9 63.1 183 45.1 c 0
 201 29 236 24 254 24 c 0
 366 24 395 126 395 208 c 0
 395 321 340 393 276 393 c 0
 246.8 393 201 363 175 331 c 0
156 368 m 0
 156.5 358.4 161.4 357.7 167 364 c 0
 206.5 408.5 257.5 439 304 439 c 0
 406 439 481 341 481 235 c 0
 481 154 454 92 407 46 c 0
 366 7 316 -10 260 -10 c 0
 228.4 -10 197.5 -4.4 173 5.5 c 0
 162.8 9.7 159 11 159 -2 c 2
 159 -110 l 2
 159 -193 170 -197 241 -201 c 1
 247 -207 247 -228 241 -234 c 1
 208 -233 160 -232 120 -232 c 0
 80 -232 43 -233 8 -234 c 1
 2 -228 2 -207 8 -201 c 1
 69 -198 80 -193 80 -110 c 2
 80 317 l 2
 80 375 69 380 15 385 c 1
 13 391 11 407 13 413 c 1
 82 422 108 431 136 442 c 1
 144 442 145.9 438.6 148 434 c 0
 152.7 423.7 154.5 398 156 368 c 0
EndSplineSet
Colour: ff00ff
EndChar

StartChar: uni1E56
Encoding: 7766 7766 215
Width: 541
GlyphClass: 2
Flags: MW
LayerCount: 2
Fore
SplineSet
234 754 m 0
 234 782 258 806 286 806 c 0
 314 806 338 782 338 754 c 0
 338 726 314 702 286 702 c 0
 258 702 234 726 234 754 c 0
189 554 m 2
 189 321 l 1
 200 318 240 316 265 316 c 0
 362 316 414 360 414 468 c 0
 414 595 345 618 276 618 c 0
 204 618 189 583 189 554 c 2
104 523 m 2
 104 606 87 611 17 614 c 1
 11 620 11 641 17 647 c 1
 57 646 109.3 645 146 645 c 0
 186 645 244.7 652 283 652 c 0
 468 652 507 545 507 486 c 0
 507 401 452 282 270 282 c 0
 235 282 211 285 189 292 c 1
 189 122 l 2
 189 39 213 35 291 31 c 1
 297 25 297 4 291 -2 c 1
 241 -1 182.4 0 147 0 c 0
 111.3 0 62 -1 17 -2 c 1
 11 4 11 25 17 31 c 1
 87 34 104 39 104 122 c 2
 104 523 l 2
EndSplineSet
Colour: ff00ff
EndChar

StartChar: uni1E57
Encoding: 7767 7767 216
Width: 519
GlyphClass: 2
Flags: MW
LayerCount: 2
Fore
SplineSet
218 599 m 0
 218 623 246 647 270 647 c 0
 297 647 318 619 318 595 c 0
 318 573.9 294 547 266 547 c 0
 242 547 218 573 218 599 c 0
175 331 m 0
 163.4 316.7 159 308 159 287 c 2
 159 105 l 2
 159 68.9 162.9 63.1 183 45.1 c 0
 201 29 236 24 254 24 c 0
 366 24 395 126 395 208 c 0
 395 321 340 393 276 393 c 0
 246.8 393 201 363 175 331 c 0
156 368 m 0
 156.5 358.4 161.4 357.7 167 364 c 0
 206.5 408.5 257.5 439 304 439 c 0
 406 439 481 341 481 235 c 0
 481 154 454 92 407 46 c 0
 366 7 316 -10 260 -10 c 0
 228.4 -10 197.5 -4.4 173 5.5 c 0
 162.8 9.7 159 11 159 -2 c 2
 159 -110 l 2
 159 -193 170 -197 241 -201 c 1
 247 -207 247 -228 241 -234 c 1
 208 -233 160 -232 120 -232 c 0
 80 -232 43 -233 8 -234 c 1
 2 -228 2 -207 8 -201 c 1
 69 -198 80 -193 80 -110 c 2
 80 317 l 2
 80 375 69 380 15 385 c 1
 13 391 11 407 13 413 c 1
 82 422 108 431 136 442 c 1
 144 442 145.9 438.6 148 434 c 0
 152.7 423.7 154.5 398 156 368 c 0
EndSplineSet
Colour: ff00ff
EndChar

StartChar: uni1E58
Encoding: 7768 7768 217
Width: 587
GlyphClass: 2
Flags: MW
LayerCount: 2
Fore
SplineSet
224 754 m 0
 224 782 248 806 276 806 c 0
 304 806 328 782 328 754 c 0
 328 726 304 702 276 702 c 0
 248 702 224 726 224 754 c 0
272 618 m 0
 201 618 189 583 189 554 c 2
 189 325 l 1
 237 325 l 2
 334 325 405 353 405 478 c 0
 405 596 333 618 272 618 c 0
189 122 m 2
 189 39 206 34 276 31 c 1
 282 25 282 4 276 -2 c 1
 232 -1 184.6 0 147 0 c 0
 108.5 0 62 -1 17 -2 c 1
 11 4 11 25 17 31 c 1
 87 34 104 39 104 122 c 2
 104 523 l 2
 104 606 87 611 17 614 c 1
 11 620 11 641 17 647 c 1
 64 646 111 645 146 645 c 0
 182 645 224 652 271 652 c 0
 334 652 396 649 444 604 c 0
 480 570 497 529 497 479 c 0
 497 374 407 322 364 308 c 1
 490 98 l 2
 516 54.6 541 21 586 21 c 1
 590 13 590.5 3.9 587 -3 c 1
 577 -8 560 -10 545 -10 c 0
 485 -10 441.7 32.4 413 79 c 2
 306 253 l 2
 291.7 276.3 273 291 189 291 c 1
 189 122 l 2
EndSplineSet
Colour: ff00ff
EndChar

StartChar: uni1E59
Encoding: 7769 7769 218
Width: 372
GlyphClass: 2
Flags: MW
LayerCount: 2
Fore
SplineSet
157 599 m 0
 157 623 185 647 209 647 c 0
 236 647 257 619 257 595 c 0
 257 573.9 233 547 205 547 c 0
 181 547 157 573 157 599 c 0
176 358 m 0
 176.2 353 181 345 187 356 c 0
 210 395 251 439 298 439 c 0
 340 439 358 410.1 358 391 c 0
 358 366 335 341 311 341 c 0
 293.6 341 282.4 354.3 274.8 364.3 c 0
 267 374.6 258 377 249 377 c 0
 237 377 214 344 203 328 c 0
 191 310 179 287 179 261 c 2
 179 122 l 2
 179 39 191 36 261 31 c 1
 267 25 267 4 261 -2 c 1
 226 -1 180 0 140 0 c 0
 100 0 61 -1 26 -2 c 1
 20 4 20 25 26 31 c 1
 88 35 100 39 100 122 c 2
 100 317 l 2
 100 375 89 380 35 385 c 1
 33 391 31 407 33 413 c 1
 102 422 128 431 156 442 c 1
 164 442 165.9 438.6 168 434 c 0
 172.7 423.7 174.3 398 176 358 c 0
EndSplineSet
Colour: ff00ff
EndChar

StartChar: uni1E5A
Encoding: 7770 7770 219
Width: 587
GlyphClass: 2
Flags: MW
LayerCount: 2
Fore
SplineSet
243 -156 m 0
 243 -132 271 -108 295 -108 c 0
 322 -108 343 -136 343 -160 c 0
 343 -181.1 319 -208 291 -208 c 0
 267 -208 243 -182 243 -156 c 0
272 618 m 0
 201 618 189 583 189 554 c 2
 189 325 l 1
 237 325 l 2
 334 325 405 353 405 478 c 0
 405 596 333 618 272 618 c 0
189 122 m 2
 189 39 206 34 276 31 c 1
 282 25 282 4 276 -2 c 1
 232 -1 184.6 0 147 0 c 0
 108.5 0 62 -1 17 -2 c 1
 11 4 11 25 17 31 c 1
 87 34 104 39 104 122 c 2
 104 523 l 2
 104 606 87 611 17 614 c 1
 11 620 11 641 17 647 c 1
 64 646 111 645 146 645 c 0
 182 645 224 652 271 652 c 0
 334 652 396 649 444 604 c 0
 480 570 497 529 497 479 c 0
 497 374 407 322 364 308 c 1
 490 98 l 2
 516 54.6 541 21 586 21 c 1
 590 13 590.5 3.9 587 -3 c 1
 577 -8 560 -10 545 -10 c 0
 485 -10 441.7 32.4 413 79 c 2
 306 253 l 2
 291.7 276.3 273 291 189 291 c 1
 189 122 l 2
EndSplineSet
Colour: ff00ff
EndChar

